<svg xmlns="http://www.w3.org/2000/svg" xmlns:xlink="http://www.w3.org/1999/xlink" width="120" height="26" version="1.1" viewBox="0 0 120 26"><title>logo_acuvera-text</title><desc>Created with Sketch.</desc><g id="Page-1" fill="none" fill-rule="evenodd" stroke="none" stroke-width="1"><path id="logo_acuvera-text" fill="#FFF" fill-rule="nonzero" d="M70.2503509,8.74414062 C72.1289317,8.74414062 73.6369883,9.41438802 74.7745208,10.7548828 C75.9120534,12.0953776 76.4808197,14.1627604 76.4808197,16.9570312 L76.4808197,16.9570312 L76.4808197,17.5234375 L65.5774994,17.5234375 L65.585978,17.8849585 C65.6311972,18.839691 65.8572936,19.7198351 66.2642669,20.5253906 C66.722112,21.4316406 67.3239186,22.1113281 68.0696869,22.5644531 C68.8154551,23.0175781 69.6650645,23.2441406 70.618515,23.2441406 C72.3177337,23.2441406 74.1963145,22.6777344 76.2542572,21.5449219 L76.2542572,21.5449219 L76.2542572,23.9521484 L75.8347389,24.1456076 C73.8840358,25.0172859 72.0320133,25.453125 70.2786712,25.453125 C68.8532155,25.453125 67.5788014,25.0991211 66.4554291,24.3911133 C65.3320567,23.6831055 64.4328867,22.6706543 63.7579193,21.3537598 C63.0829518,20.0368652 62.7454681,18.6279297 62.7454681,17.1269531 C62.7454681,15.6826172 63.0664317,14.2949219 63.7083587,12.9638672 C64.3502858,11.6328125 65.2470957,10.5967611 66.3987884,9.85571289 C67.5504811,9.11466471 68.8343353,8.74414062 70.2503509,8.74414062 Z M25.3264067,8.74414062 C26.9595447,8.74414062 28.6870838,9.05094401 30.5090239,9.66455078 L30.5090239,9.66455078 L30.5090239,12.1992187 L30.1175245,12.0256123 C28.4338626,11.3011807 26.9170643,10.9389648 25.5671294,10.9389648 C24.6042387,10.9389648 23.6979887,11.1773275 22.8483794,11.6540527 C21.99877,12.130778 21.3426827,12.8741862 20.8801176,13.8842773 C20.4175525,14.8943685 20.18627,15.9327799 20.18627,16.9995117 C20.18627,18.4249674 20.6323149,19.7843424 21.5244047,21.0776367 C22.4164946,22.370931 23.81599,23.0175781 25.7228911,23.0175781 C26.2987374,23.0175781 26.8651437,22.9774577 27.4221098,22.8972168 C27.979076,22.8169759 29.0080473,22.5219727 30.5090239,22.012207 L30.5090239,22.012207 L30.5090239,24.546875 L30.029685,24.7017005 C28.4389105,25.1932101 26.9183515,25.4389648 25.4680083,25.4389648 C23.8820708,25.4389648 22.4731352,25.0731608 21.2412016,24.3415527 C20.009268,23.6099447 19.0487374,22.6187337 18.3596098,21.3679199 C17.6704822,20.1171061 17.3259184,18.6940104 17.3259184,17.0986328 C17.3259184,14.7008464 18.107087,12.7089844 19.6694243,11.1230469 C21.2317615,9.53710937 23.1174223,8.74414062 25.3264067,8.74414062 Z M34.9626759,9.18310547 L34.9626759,18.3447266 L34.9636513,18.6418066 C34.9727558,19.9960211 35.0455915,20.9000054 35.1821583,21.3537598 C35.3284799,21.8399251 35.5975229,22.2387695 35.9892872,22.550293 C36.3810515,22.8618164 36.8034962,23.0175781 37.2566212,23.0175781 C38.1817514,23.0175781 39.1753224,22.5809733 40.2373341,21.7077637 C41.2993458,20.834554 42.1796355,19.7324219 42.8782032,18.4013672 L42.8782032,18.4013672 L42.8782032,9.18310547 L45.5119923,9.18310547 L45.5119923,25 L42.8782032,25 L42.8782032,21.5307617 L42.6638342,21.8496602 C41.8706032,22.9940762 40.9980491,23.8648275 40.046172,24.4619141 C39.0077605,25.1132812 37.969349,25.4389648 36.9309376,25.4389648 C36.0058074,25.4389648 35.158558,25.1911621 34.3891895,24.6955566 C33.6198211,24.1999512 33.0840951,23.548584 32.7820118,22.7414551 C32.4799285,21.9343262 32.3288868,20.3601888 32.3288868,18.019043 L32.3288868,18.019043 L32.3288868,9.18310547 L34.9626759,9.18310547 Z M101.148378,8.95654297 C101.648703,8.95654297 102.403911,9.00846354 103.414003,9.11230469 C103.565044,9.1311849 103.791607,9.15478516 104.09369,9.18310547 L104.09369,9.18310547 L106.741639,9.18310547 L106.741639,20.3554687 L106.745158,20.789155 C106.773311,22.4984283 106.97038,23.9020433 107.336366,25 L107.336366,25 L104.589296,25 L104.533708,24.7552985 C104.351928,23.9134908 104.205255,22.8103249 104.09369,21.4458008 C103.291281,22.7674154 102.326031,23.7633464 101.197938,24.4335937 C100.069846,25.1038411 99.0337942,25.4389648 98.0897838,25.4389648 C96.7681692,25.4389648 95.5810761,24.8678385 94.5285045,23.7255859 C93.4759329,22.5833333 92.9496471,20.8510742 92.9496471,18.5288086 C92.9496471,16.6974284 93.2989309,15.0619303 93.9974986,13.6223145 C94.6960663,12.1826986 95.6306367,11.045166 96.8012096,10.2097168 C97.9717825,9.37426758 99.4208385,8.95654297 101.148378,8.95654297 Z M9.841993,3.0234375 L16.6530282,25 L13.6369149,25 L12.1359383,20.1713867 L4.404493,20.1713867 L2.91767659,25 L0.170606281,25 L6.93916097,3.0234375 L9.841993,3.0234375 Z M48.9602732,9.18310547 L54.383613,21.7006836 L59.9202341,9.18310547 L62.5540232,9.18310547 L55.6297068,25 L52.9392771,25 L46.0716013,9.18310547 L48.9602732,9.18310547 Z M88.7508779,8.74414062 C89.7043284,8.74414062 90.6577789,8.89046224 91.6112295,9.18310547 L91.6112295,9.18310547 L91.6112295,14.8896484 L89.0765615,14.8896484 L89.0765615,11.2788086 L88.8625858,11.2441949 C88.5190709,11.1917499 88.2411123,11.1655273 88.0287099,11.1655273 C87.0469391,11.1655273 86.0840485,11.5525716 85.1400381,12.3266602 C84.1960276,13.1007487 83.2756175,14.2618815 82.3788076,15.8100586 L82.3788076,15.8100586 L82.3788076,25 L79.7450185,25 L79.7450185,9.18310547 L82.3788076,9.18310547 L82.3788076,12.6381836 L82.5866374,12.3193342 C83.3578742,11.1752788 84.230248,10.3068712 85.2037588,9.71411133 C86.2657705,9.06746419 87.4481435,8.74414062 88.7508779,8.74414062 Z M101.488221,11.1655273 C99.8645234,11.1655273 98.5122285,11.7932943 97.4313365,13.0488281 C96.3504446,14.304362 95.8099986,16.0130208 95.8099986,18.1748047 C95.8099986,19.741862 96.1050019,20.924235 96.6950084,21.7219238 C97.2850149,22.5196126 97.9576223,22.918457 98.7128307,22.918457 C99.5341197,22.918457 100.44037,22.5030924 101.431581,21.6723633 C102.422792,20.8416341 103.310161,19.7229818 104.09369,18.3164062 L104.09369,18.3164062 L104.09369,11.5336914 L103.697206,11.4360152 C102.912328,11.25569 102.176,11.1655273 101.488221,11.1655273 Z M8.22773519,7.42724609 L7.67548909,9.63623047 L5.0841805,17.9765625 L11.4987313,17.9765625 L8.85078206,9.63623047 L8.22773519,7.42724609 Z M70.1370697,10.9389648 C69.0703379,10.9389648 68.1475677,11.3283691 67.3687591,12.1071777 C66.5899505,12.8859863 66.0447845,14.035319 65.7332611,15.5551758 L65.7332611,15.5551758 L73.6204681,15.5551758 L73.6204681,15.1728516 L73.6148543,14.8790912 C73.569944,13.722818 73.2555718,12.7917668 72.6717376,12.0859375 C72.0392507,11.3212891 71.1943613,10.9389648 70.1370697,10.9389648 Z M115.725,0.8 C116.231667,0.8 116.705,0.89 117.145,1.07 C117.585,1.25 117.968333,1.50333333 118.295,1.83 C118.621667,2.15666667 118.878333,2.54333333 119.065,2.99 C119.251667,3.43666667 119.345,3.92 119.345,4.44 C119.345,4.96 119.251667,5.44333333 119.065,5.89 C118.878333,6.33666667 118.621667,6.72333333 118.295,7.05 C117.968333,7.37666667 117.585,7.63 117.145,7.81 C116.705,7.99 116.231667,8.08 115.725,8.08 C115.218333,8.08 114.745,7.99 114.305,7.81 C113.865,7.63 113.481667,7.37666667 113.155,7.05 C112.828333,6.72333333 112.571667,6.33666667 112.385,5.89 C112.198333,5.44333333 112.105,4.96 112.105,4.44 C112.105,3.92 112.198333,3.43666667 112.385,2.99 C112.571667,2.54333333 112.828333,2.15666667 113.155,1.83 C113.481667,1.50333333 113.865,1.25 114.305,1.07 C114.745,0.89 115.218333,0.8 115.725,0.8 Z M115.725,1.1 C115.271667,1.1 114.848333,1.18333333 114.455,1.35 C114.061667,1.51666667 113.718333,1.74333333 113.425,2.03 C113.131667,2.31666667 112.901667,2.65333333 112.735,3.04 C112.568333,3.42666667 112.485,3.84 112.485,4.28 L112.485,4.28 L112.485,4.6 L112.495,4.8608 C112.521667,5.20426667 112.601667,5.53066667 112.735,5.84 C112.901667,6.22666667 113.131667,6.56333333 113.425,6.85 C113.718333,7.13666667 114.061667,7.36333333 114.455,7.53 C114.848333,7.69666667 115.271667,7.78 115.725,7.78 C116.178333,7.78 116.601667,7.69666667 116.995,7.53 C117.388333,7.36333333 117.731667,7.13666667 118.025,6.85 C118.318333,6.56333333 118.548333,6.22666667 118.715,5.84 C118.881667,5.45333333 118.965,5.04 118.965,4.6 L118.965,4.6 L118.965,4.28 L118.955,4.0192 C118.928333,3.67573333 118.848333,3.34933333 118.715,3.04 C118.548333,2.65333333 118.318333,2.31666667 118.025,2.03 C117.731667,1.74333333 117.388333,1.51666667 116.995,1.35 C116.601667,1.18333333 116.178333,1.1 115.725,1.1 Z M116.025,2.58 L116.192222,2.58722222 C116.460741,2.6112963 116.678333,2.69555556 116.845,2.84 C117.045,3.01333333 117.145,3.29333333 117.145,3.68 C117.145,4 117.055,4.24666667 116.875,4.42 C116.695,4.59333333 116.465,4.68666667 116.185,4.7 L116.185,4.7 L117.245,6.28 L116.885,6.28 L115.865,4.72 L114.985,4.72 L114.985,6.28 L114.685,6.28 L114.685,2.58 L116.025,2.58 Z M116.005,2.84 L114.985,2.84 L114.985,4.46 L116.005,4.46 C116.311667,4.46 116.525,4.40333333 116.645,4.29 C116.765,4.17666667 116.825,3.98666667 116.825,3.72 L116.825,3.72 L116.825,3.58 L116.82,3.45305556 C116.803333,3.25212963 116.745,3.10444444 116.645,3.01 C116.525,2.89666667 116.311667,2.84 116.005,2.84 L116.005,2.84 Z"/></g></svg>