<svg xmlns="http://www.w3.org/2000/svg" xmlns:xlink="http://www.w3.org/1999/xlink" width="157" height="30" version="1.1" viewBox="0 0 157 30"><title>logo_acuvera</title><desc>Created with Sketch.</desc><g id="Page-1" fill="none" fill-rule="evenodd" stroke="none" stroke-width="1"><path id="logo_acuvera" fill="#FFF" fill-rule="nonzero" d="M29.1518568,28.538 L29.1518568,29.089 L15.2318568,29.089 L15.2318568,28.538 L29.1518568,28.538 Z M107.250351,8.74414062 C109.128932,8.74414062 110.636988,9.41438802 111.774521,10.7548828 C112.912053,12.0953776 113.48082,14.1627604 113.48082,16.9570312 L113.48082,16.9570312 L113.48082,17.5234375 L102.577499,17.5234375 L102.585978,17.8849585 C102.631197,18.839691 102.857294,19.7198351 103.264267,20.5253906 C103.722112,21.4316406 104.323919,22.1113281 105.069687,22.5644531 C105.815455,23.0175781 106.665064,23.2441406 107.618515,23.2441406 C109.317734,23.2441406 111.196314,22.6777344 113.254257,21.5449219 L113.254257,21.5449219 L113.254257,23.9521484 L112.834739,24.1456076 C110.884036,25.0172859 109.032013,25.453125 107.278671,25.453125 C105.853216,25.453125 104.578801,25.0991211 103.455429,24.3911133 C102.332057,23.6831055 101.432887,22.6706543 100.757919,21.3537598 C100.082952,20.0368652 99.7454681,18.6279297 99.7454681,17.1269531 C99.7454681,15.6826172 100.066432,14.2949219 100.708359,12.9638672 C101.350286,11.6328125 102.247096,10.5967611 103.398788,9.85571289 C104.550481,9.11466471 105.834335,8.74414062 107.250351,8.74414062 Z M62.3264067,8.74414062 C63.9595447,8.74414062 65.6870838,9.05094401 67.5090239,9.66455078 L67.5090239,9.66455078 L67.5090239,12.1992187 L67.1175245,12.0256123 C65.4338626,11.3011807 63.9170643,10.9389648 62.5671294,10.9389648 C61.6042387,10.9389648 60.6979887,11.1773275 59.8483794,11.6540527 C58.99877,12.130778 58.3426827,12.8741862 57.8801176,13.8842773 C57.4175525,14.8943685 57.18627,15.9327799 57.18627,16.9995117 C57.18627,18.4249674 57.6323149,19.7843424 58.5244047,21.0776367 C59.4164946,22.370931 60.81599,23.0175781 62.7228911,23.0175781 C63.2987374,23.0175781 63.8651437,22.9774577 64.4221098,22.8972168 C64.979076,22.8169759 66.0080473,22.5219727 67.5090239,22.012207 L67.5090239,22.012207 L67.5090239,24.546875 L67.029685,24.7017005 C65.4389105,25.1932101 63.9183515,25.4389648 62.4680083,25.4389648 C60.8820708,25.4389648 59.4731352,25.0731608 58.2412016,24.3415527 C57.009268,23.6099447 56.0487374,22.6187337 55.3596098,21.3679199 C54.6704822,20.1171061 54.3259184,18.6940104 54.3259184,17.0986328 C54.3259184,14.7008464 55.107087,12.7089844 56.6694243,11.1230469 C58.2317615,9.53710937 60.1174223,8.74414062 62.3264067,8.74414062 Z M71.9626759,9.18310547 L71.9626759,18.3447266 L71.9636513,18.6418066 C71.9727558,19.9960211 72.0455915,20.9000054 72.1821583,21.3537598 C72.3284799,21.8399251 72.5975229,22.2387695 72.9892872,22.550293 C73.3810515,22.8618164 73.8034962,23.0175781 74.2566212,23.0175781 C75.1817514,23.0175781 76.1753224,22.5809733 77.2373341,21.7077637 C78.2993458,20.834554 79.1796355,19.7324219 79.8782032,18.4013672 L79.8782032,18.4013672 L79.8782032,9.18310547 L82.5119923,9.18310547 L82.5119923,25 L79.8782032,25 L79.8782032,21.5307617 L79.6638342,21.8496602 C78.8706032,22.9940762 77.9980491,23.8648275 77.046172,24.4619141 C76.0077605,25.1132812 74.969349,25.4389648 73.9309376,25.4389648 C73.0058074,25.4389648 72.158558,25.1911621 71.3891895,24.6955566 C70.6198211,24.1999512 70.0840951,23.548584 69.7820118,22.7414551 C69.4799285,21.9343262 69.3288868,20.3601888 69.3288868,18.019043 L69.3288868,18.019043 L69.3288868,9.18310547 L71.9626759,9.18310547 Z M138.148378,8.95654297 C138.648703,8.95654297 139.403911,9.00846354 140.414003,9.11230469 C140.565044,9.1311849 140.791607,9.15478516 141.09369,9.18310547 L141.09369,9.18310547 L143.741639,9.18310547 L143.741639,20.3554687 L143.745158,20.789155 C143.773311,22.4984283 143.97038,23.9020433 144.336366,25 L144.336366,25 L141.589296,25 L141.533708,24.7552985 C141.351928,23.9134908 141.205255,22.8103249 141.09369,21.4458008 C140.291281,22.7674154 139.326031,23.7633464 138.197938,24.4335937 C137.069846,25.1038411 136.033794,25.4389648 135.089784,25.4389648 C133.768169,25.4389648 132.581076,24.8678385 131.528504,23.7255859 C130.475933,22.5833333 129.949647,20.8510742 129.949647,18.5288086 C129.949647,16.6974284 130.298931,15.0619303 130.997499,13.6223145 C131.696066,12.1826986 132.630637,11.045166 133.80121,10.2097168 C134.971782,9.37426758 136.420838,8.95654297 138.148378,8.95654297 Z M46.841993,3.0234375 L53.6530282,25 L50.6369149,25 L49.1359383,20.1713867 L41.404493,20.1713867 L39.9176766,25 L37.1706063,25 L43.939161,3.0234375 L46.841993,3.0234375 Z M85.9602732,9.18310547 L91.383613,21.7006836 L96.9202341,9.18310547 L99.5540232,9.18310547 L92.6297068,25 L89.9392771,25 L83.0716013,9.18310547 L85.9602732,9.18310547 Z M125.750878,8.74414062 C126.704328,8.74414062 127.657779,8.89046224 128.611229,9.18310547 L128.611229,9.18310547 L128.611229,14.8896484 L126.076561,14.8896484 L126.076561,11.2788086 L125.862586,11.2441949 C125.519071,11.1917499 125.241112,11.1655273 125.02871,11.1655273 C124.046939,11.1655273 123.084048,11.5525716 122.140038,12.3266602 C121.196028,13.1007487 120.275617,14.2618815 119.378808,15.8100586 L119.378808,15.8100586 L119.378808,25 L116.745019,25 L116.745019,9.18310547 L119.378808,9.18310547 L119.378808,12.6381836 L119.586637,12.3193342 C120.357874,11.1752788 121.230248,10.3068712 122.203759,9.71411133 C123.26577,9.06746419 124.448144,8.74414062 125.750878,8.74414062 Z M0.659357194,8.412 L13.1293572,15.894 L13.1293572,16.416 L0.659357194,23.898 L0.659357194,23.231 L12.4623572,16.184 L12.4623572,16.126 L0.659357194,9.079 L0.659357194,8.412 Z M138.488221,11.1655273 C136.864523,11.1655273 135.512228,11.7932943 134.431337,13.0488281 C133.350445,14.304362 132.809999,16.0130208 132.809999,18.1748047 C132.809999,19.741862 133.105002,20.924235 133.695008,21.7219238 C134.285015,22.5196126 134.957622,22.918457 135.712831,22.918457 C136.53412,22.918457 137.44037,22.5030924 138.431581,21.6723633 C139.422792,20.8416341 140.310161,19.7229818 141.09369,18.3164062 L141.09369,18.3164062 L141.09369,11.5336914 L140.697206,11.4360152 C139.912328,11.25569 139.176,11.1655273 138.488221,11.1655273 Z M45.2277352,7.42724609 L44.6754891,9.63623047 L42.0841805,17.9765625 L48.4987313,17.9765625 L45.8507821,9.63623047 L45.2277352,7.42724609 Z M107.13707,10.9389648 C106.070338,10.9389648 105.147568,11.3283691 104.368759,12.1071777 C103.589951,12.8859863 103.044785,14.035319 102.733261,15.5551758 L102.733261,15.5551758 L110.620468,15.5551758 L110.620468,15.1728516 L110.614854,14.8790912 C110.569944,13.722818 110.255572,12.7917668 109.671738,12.0859375 C109.039251,11.3212891 108.194361,10.9389648 107.13707,10.9389648 Z M152.725,0.8 C153.231667,0.8 153.705,0.89 154.145,1.07 C154.585,1.25 154.968333,1.50333333 155.295,1.83 C155.621667,2.15666667 155.878333,2.54333333 156.065,2.99 C156.251667,3.43666667 156.345,3.92 156.345,4.44 C156.345,4.96 156.251667,5.44333333 156.065,5.89 C155.878333,6.33666667 155.621667,6.72333333 155.295,7.05 C154.968333,7.37666667 154.585,7.63 154.145,7.81 C153.705,7.99 153.231667,8.08 152.725,8.08 C152.218333,8.08 151.745,7.99 151.305,7.81 C150.865,7.63 150.481667,7.37666667 150.155,7.05 C149.828333,6.72333333 149.571667,6.33666667 149.385,5.89 C149.198333,5.44333333 149.105,4.96 149.105,4.44 C149.105,3.92 149.198333,3.43666667 149.385,2.99 C149.571667,2.54333333 149.828333,2.15666667 150.155,1.83 C150.481667,1.50333333 150.865,1.25 151.305,1.07 C151.745,0.89 152.218333,0.8 152.725,0.8 Z M152.725,1.1 C152.271667,1.1 151.848333,1.18333333 151.455,1.35 C151.061667,1.51666667 150.718333,1.74333333 150.425,2.03 C150.131667,2.31666667 149.901667,2.65333333 149.735,3.04 C149.568333,3.42666667 149.485,3.84 149.485,4.28 L149.485,4.28 L149.485,4.6 L149.495,4.8608 C149.521667,5.20426667 149.601667,5.53066667 149.735,5.84 C149.901667,6.22666667 150.131667,6.56333333 150.425,6.85 C150.718333,7.13666667 151.061667,7.36333333 151.455,7.53 C151.848333,7.69666667 152.271667,7.78 152.725,7.78 C153.178333,7.78 153.601667,7.69666667 153.995,7.53 C154.388333,7.36333333 154.731667,7.13666667 155.025,6.85 C155.318333,6.56333333 155.548333,6.22666667 155.715,5.84 C155.881667,5.45333333 155.965,5.04 155.965,4.6 L155.965,4.6 L155.965,4.28 L155.955,4.0192 C155.928333,3.67573333 155.848333,3.34933333 155.715,3.04 C155.548333,2.65333333 155.318333,2.31666667 155.025,2.03 C154.731667,1.74333333 154.388333,1.51666667 153.995,1.35 C153.601667,1.18333333 153.178333,1.1 152.725,1.1 Z M153.025,2.58 L153.192222,2.58722222 C153.460741,2.6112963 153.678333,2.69555556 153.845,2.84 C154.045,3.01333333 154.145,3.29333333 154.145,3.68 C154.145,4 154.055,4.24666667 153.875,4.42 C153.695,4.59333333 153.465,4.68666667 153.185,4.7 L153.185,4.7 L154.245,6.28 L153.885,6.28 L152.865,4.72 L151.985,4.72 L151.985,6.28 L151.685,6.28 L151.685,2.58 L153.025,2.58 Z M153.005,2.84 L151.985,2.84 L151.985,4.46 L153.005,4.46 C153.311667,4.46 153.525,4.40333333 153.645,4.29 C153.765,4.17666667 153.825,3.98666667 153.825,3.72 L153.825,3.72 L153.825,3.58 L153.82,3.45305556 C153.803333,3.25212963 153.745,3.10444444 153.645,3.01 C153.525,2.89666667 153.311667,2.84 153.005,2.84 L153.005,2.84 Z"/></g></svg>