<svg xmlns="http://www.w3.org/2000/svg" xmlns:xlink="http://www.w3.org/1999/xlink" width="210" height="21" version="1.1" viewBox="0 0 210 21"><title>logo_email</title><desc>Created with Sketch.</desc><g id="Page-1" fill="none" fill-rule="evenodd" stroke="none" stroke-width="1"><g id="logo_email" transform="translate(-1.000000, 0.000000)"><g id="logo_acuvera-text" fill="#000" fill-rule="nonzero"><path d="M40.9793714,5.1007487 C42.0752102,5.1007487 42.9549098,5.49172635 43.6184705,6.27368163 C44.2820311,7.05563693 44.6138115,8.26161023 44.6138115,9.89160153 L44.6138115,9.89160153 L44.6138115,10.2220052 L38.2535413,10.2220052 L38.2584872,10.4328925 C38.284865,10.9898197 38.4167546,11.5032371 38.6541557,11.9731445 C38.921232,12.5017904 39.2722858,12.8982747 39.7073174,13.1625976 C40.1423488,13.4269206 40.6379543,13.559082 41.1941337,13.559082 C42.1853447,13.559082 43.2811835,13.2286784 44.48165,12.5678711 L44.48165,12.5678711 L44.48165,13.9720866 L44.236931,14.0849378 C43.0990209,14.5934168 42.0186744,14.8476562 40.9958915,14.8476562 C40.1643757,14.8476562 39.4209675,14.641154 38.765667,14.2281494 C38.1103664,13.8151449 37.5858506,13.2245483 37.1921196,12.4563599 C36.7983885,11.6881714 36.6015231,10.8662923 36.6015231,9.99072264 C36.6015231,9.14819337 36.7887518,8.33870444 37.1632092,7.56225587 C37.5376667,6.78580729 38.0608058,6.18144397 38.7326266,5.74916585 C39.4044473,5.31688775 40.1533623,5.1007487 40.9793714,5.1007487 Z M14.7737372,5.1007487 C15.7264011,5.1007487 16.7341322,5.27971734 17.7969306,5.63765462 L17.7969306,5.63765462 L17.7969306,7.11621091 L17.568556,7.01494051 C16.5864198,6.59235541 15.7016208,6.3810628 14.9141588,6.3810628 C14.3524726,6.3810628 13.8238267,6.52010771 13.3282213,6.79819741 C12.8326158,7.07628717 12.4498982,7.50994195 12.1800686,8.09916176 C11.910239,8.68838162 11.7753242,9.29412161 11.7753242,9.91638183 C11.7753242,10.7478977 12.035517,11.5408664 12.5559027,12.2952881 C13.0762885,13.0497097 13.8926608,13.4269206 15.0050198,13.4269206 C15.3409301,13.4269206 15.6713338,13.403517 15.9962307,13.3567098 C16.3211277,13.3099026 16.9213609,13.1378174 17.7969306,12.8404541 L17.7969306,12.8404541 L17.7969306,14.3190104 L17.5173162,14.4093253 C16.5893645,14.6960392 15.7023717,14.8393961 14.8563382,14.8393961 C13.931208,14.8393961 13.1093289,14.6260105 12.3907009,14.1992391 C11.672073,13.7724677 11.1117635,13.1942613 10.7097724,12.4646199 C10.3077813,11.7349786 10.1067857,10.9048394 10.1067857,9.97420247 C10.1067857,8.57549373 10.5624674,7.41357423 11.4738308,6.48844402 C12.3851942,5.5633138 13.485163,5.1007487 14.7737372,5.1007487 Z M20.3948943,5.35681152 L20.3948943,10.7010905 L20.3954633,10.8743872 C20.4007742,11.6643456 20.4432617,12.1916698 20.5229257,12.4563599 C20.6082799,12.7399563 20.7652217,12.9726155 20.9937509,13.1543376 C21.22228,13.3360596 21.4687061,13.4269206 21.733029,13.4269206 C22.2726883,13.4269206 22.8522714,13.1722344 23.4717782,12.6628622 C24.091285,12.1534898 24.6047874,11.5105794 25.0122852,10.7341309 L25.0122852,10.7341309 L25.0122852,5.35681152 L26.5486622,5.35681152 L26.5486622,14.5833333 L25.0122852,14.5833333 L25.0122852,12.559611 L24.8872366,12.7456351 C24.4245185,13.4132111 23.9155286,13.9211494 23.360267,14.2694499 C22.754527,14.649414 22.1487869,14.8393961 21.5430469,14.8393961 C21.0033877,14.8393961 20.5091588,14.6948446 20.0603605,14.4057414 C19.6115623,14.1166382 19.2990555,13.736674 19.1228402,13.2658488 C18.946625,12.7950236 18.8585173,11.8767768 18.8585173,10.5111084 L18.8585173,10.5111084 L18.8585173,5.35681152 L20.3948943,5.35681152 Z M59.0032205,5.22465007 C59.2950767,5.22465007 59.7356147,5.25493706 60.3248351,5.31551107 C60.4129423,5.32652452 60.5451041,5.34029134 60.7213192,5.35681152 L60.7213192,5.35681152 L62.2659561,5.35681152 L62.2659561,11.8740234 L62.2680088,12.1270071 C62.2844314,13.1240832 62.3993883,13.9428586 62.6128802,14.5833333 L62.6128802,14.5833333 L61.0104227,14.5833333 L60.9779963,14.4405908 C60.871958,13.9495363 60.7863987,13.3060229 60.7213192,12.5100505 C60.2532472,13.2809923 59.6901848,13.8619521 59.0321305,14.2529297 C58.3740768,14.6439073 57.7697133,14.8393961 57.2190406,14.8393961 C56.4480987,14.8393961 55.7556277,14.5062391 55.1416276,13.8399251 C54.5276275,13.1736111 54.2206275,12.1631266 54.2206275,10.8084717 C54.2206275,9.74016657 54.4243764,8.78612601 54.8318742,7.94635012 C55.239372,7.10657418 55.7845381,6.4430135 56.4673723,5.95566813 C57.1502065,5.46832275 57.9954891,5.22465007 59.0032205,5.22465007 Z M5.74116258,1.76367188 L9.71426645,14.5833333 L7.95486702,14.5833333 L7.07929734,11.7666422 L2.56928758,11.7666422 L1.70197801,14.5833333 L0.0995203306,14.5833333 L4.0478439,1.76367188 L5.74116258,1.76367188 Z M28.5601594,5.35681152 L31.7237742,12.6587321 L34.9534699,5.35681152 L36.4898469,5.35681152 L32.4506623,14.5833333 L30.881245,14.5833333 L26.8751008,5.35681152 L28.5601594,5.35681152 Z M51.7713454,5.10074869 C52.3275249,5.10074869 52.8837044,5.18610297 53.4398839,5.35681152 L53.4398839,5.35681152 L53.4398839,8.68562823 L51.9613275,8.68562823 L51.9613275,6.57930502 L51.8365084,6.55911369 C51.6361247,6.52852077 51.4739822,6.51322426 51.3500808,6.51322426 C50.7773811,6.51322426 50.215695,6.7390001 49.6650222,7.19055178 C49.1143494,7.64210341 48.5774435,8.31943087 48.0543044,9.22253418 L48.0543044,9.22253418 L48.0543044,14.5833333 L46.5179275,14.5833333 L46.5179275,5.35681152 L48.0543044,5.35681152 L48.0543044,7.37227377 L48.1755385,7.18627828 C48.6254266,6.51891263 49.1343113,6.01234153 49.7021926,5.66656494 C50.3216995,5.28935411 51.011417,5.10074869 51.7713454,5.10074869 Z M59.2014622,6.51322426 C58.2543053,6.51322426 57.4654666,6.87942168 56.8349463,7.61181639 C56.204426,8.34421117 55.8891658,9.3409288 55.8891658,10.6019694 C55.8891658,11.5160862 56.0612511,12.2058037 56.4054216,12.6711222 C56.749592,13.1364407 57.1419463,13.3690999 57.5824846,13.3690999 C58.0615698,13.3690999 58.5902158,13.1268039 59.1684222,12.6422119 C59.7466287,12.1576199 60.2642606,11.5050727 60.7213192,10.6845703 L60.7213192,10.6845703 L60.7213192,6.72798665 L60.4900368,6.67100887 C60.0321913,6.56581917 59.6026667,6.51322426 59.2014622,6.51322426 Z M4.79951219,4.33256022 L4.47736864,5.62113444 L2.96577196,10.4863281 L6.70759326,10.4863281 L5.1629562,5.62113444 L4.79951219,4.33256022 Z M40.9132907,6.3810628 C40.2910304,6.3810628 39.7527478,6.60821531 39.2984428,7.06252032 C38.8441378,7.51682534 38.5261243,8.18726942 38.3444023,9.07385255 L38.3444023,9.07385255 L42.9452731,9.07385255 L42.9452731,8.8508301 L42.9419983,8.67946987 C42.9158007,8.00497717 42.7324169,7.46186397 42.3918469,7.05013021 C42.0228962,6.60408531 41.5300441,6.3810628 40.9132907,6.3810628 Z M67.50625,0.466666667 C67.8018057,0.466666667 68.0779167,0.519166667 68.3345833,0.624166667 C68.59125,0.729166667 68.8148609,0.876944443 69.0054167,1.0675 C69.1959724,1.25805556 69.3456942,1.48361111 69.4545833,1.74416667 C69.5634724,2.00472222 69.6179167,2.28666667 69.6179167,2.59 C69.6179167,2.89333333 69.5634724,3.17527778 69.4545833,3.43583333 C69.3456942,3.69638889 69.1959724,3.92194444 69.0054167,4.1125 C68.8148609,4.30305556 68.59125,4.45083333 68.3345833,4.55583333 C68.0779167,4.66083333 67.8018057,4.71333333 67.50625,4.71333333 C67.2106942,4.71333333 66.9345833,4.66083333 66.6779167,4.55583333 C66.42125,4.45083333 66.1976391,4.30305556 66.0070833,4.1125 C65.8165276,3.92194444 65.6668057,3.69638889 65.5579167,3.43583333 C65.4490276,3.17527778 65.3945833,2.89333333 65.3945833,2.59 C65.3945833,2.28666667 65.4490276,2.00472222 65.5579167,1.74416667 C65.6668057,1.48361111 65.8165276,1.25805556 66.0070833,1.0675 C66.1976391,0.876944443 66.42125,0.729166667 66.6779167,0.624166667 C66.9345833,0.519166667 67.2106942,0.466666667 67.50625,0.466666667 Z M67.50625,0.641666667 C67.2418057,0.641666667 66.9948609,0.690277776 66.7654167,0.7875 C66.5359724,0.884722224 66.3356942,1.01694444 66.1645833,1.18416667 C65.9934724,1.35138889 65.8593057,1.54777778 65.7620833,1.77333333 C65.6648609,1.99888889 65.61625,2.24 65.61625,2.49666667 L65.61625,2.49666667 L65.61625,2.68333333 L65.6220833,2.83546667 C65.6376391,3.03582222 65.6843057,3.22622222 65.7620833,3.40666667 C65.8593057,3.63222222 65.9934724,3.82861111 66.1645833,3.99583333 C66.3356942,4.16305556 66.5359724,4.29527778 66.7654167,4.3925 C66.9948609,4.48972222 67.2418057,4.53833333 67.50625,4.53833333 C67.7706942,4.53833333 68.0176391,4.48972222 68.2470833,4.3925 C68.4765276,4.29527778 68.6768057,4.16305556 68.8479167,3.99583333 C69.0190276,3.82861111 69.1531942,3.63222222 69.2504167,3.40666667 C69.3476391,3.18111111 69.39625,2.94 69.39625,2.68333333 L69.39625,2.68333333 L69.39625,2.49666667 L69.3904167,2.34453333 C69.3748609,2.14417778 69.3281942,1.95377778 69.2504167,1.77333333 C69.1531942,1.54777778 69.0190276,1.35138889 68.8479167,1.18416667 C68.6768057,1.01694444 68.4765276,0.884722224 68.2470833,0.7875 C68.0176391,0.690277776 67.7706942,0.641666667 67.50625,0.641666667 Z M67.68125,1.505 L67.7787962,1.50921296 C67.9354323,1.52325618 68.0623609,1.57240741 68.1595833,1.65666667 C68.27625,1.75777778 68.3345833,1.92111111 68.3345833,2.14666667 C68.3345833,2.33333333 68.2820833,2.47722222 68.1770833,2.57833333 C68.0720833,2.67944444 67.9379167,2.73388889 67.7745833,2.74166667 L67.7745833,2.74166667 L68.3929167,3.66333333 L68.1829167,3.66333333 L67.5879167,2.75333333 L67.0745833,2.75333333 L67.0745833,3.66333333 L66.8995833,3.66333333 L66.8995833,1.505 L67.68125,1.505 Z M67.6695833,1.65666667 L67.0745833,1.65666667 L67.0745833,2.60166667 L67.6695833,2.60166667 C67.8484724,2.60166667 67.9729167,2.56861111 68.0429167,2.5025 C68.1129167,2.43638889 68.1479167,2.32555556 68.1479167,2.17 L68.1479167,2.17 L68.1479167,2.08833333 L68.145,2.01428241 C68.1352776,1.89707562 68.10125,1.81092592 68.0429167,1.75583333 C67.9729167,1.68972222 67.8484724,1.65666667 67.6695833,1.65666667 L67.6695833,1.65666667 Z" transform="translate(141.000000, 6.000000)"/></g><line id="Path" x1="1.313" x2="210.5" y1="1.313" y2="1.5" stroke="#000"/><polyline id="Path-2" stroke="#000" stroke-width=".6" points="1 11 7 14.5 1 18"/><line id="Path-3" x1="8" x2="15" y1="20.5" y2="20.5" stroke="#000" stroke-width=".6"/></g></g></svg>