<svg xmlns="http://www.w3.org/2000/svg" xmlns:xlink="http://www.w3.org/1999/xlink" width="236" height="88" version="1.1" viewBox="0 0 236 88"><title>Logo_goene</title><desc>Created with Sketch.</desc><g id="Goene" fill="none" fill-rule="evenodd" stroke="none" stroke-width="1"><g id="About" fill="#FFF" fill-rule="nonzero" transform="translate(-500.000000, -757.000000)"><g id="Group" transform="translate(285.000000, 440.000000)"><g id="Logo_goene" transform="translate(215.000000, 317.000000)"><path id="GOENÉ" d="M18.9945806,58.5965903 C28.9874688,58.5965903 36.1678597,51.565347 36.1678597,40.0170626 L36.1678597,37.5454741 L19.6763981,37.5454741 L19.6763981,40.0170626 L33.5684303,40.0170626 C33.5045099,50.0312576 27.4320725,56.0397746 18.9945806,56.0397746 C9.40652155,56.0397746 2.9718686,48.2627934 2.9718686,36.181839 C2.9718686,23.9943506 9.49174875,16.3239034 18.7602058,16.3239034 C26.8354822,16.3239034 31.8212729,22.1193524 33.1422944,28.0000286 L35.8695645,28.0000286 C34.6337702,21.0327057 28.6252532,13.7670876 18.7602058,13.7670876 C7.80851171,13.7670876 0.351132462,22.6307155 0.351132462,36.181839 C0.351132462,49.6903488 7.74459132,58.5965903 18.9945806,58.5965903 Z M58.9075353,58.5965903 C69.7740022,58.5965903 77.3592222,49.669042 77.3592222,36.181839 C77.3592222,22.6946359 69.7740022,13.7670876 58.9075353,13.7670876 C47.9984548,13.7670876 40.4345416,22.6946359 40.4345416,36.181839 C40.4345416,49.6477352 47.9984548,58.5965903 58.9075353,58.5965903 Z M58.9075353,56.0397746 C49.5751578,56.0397746 43.0552777,48.2627934 43.0552777,36.181839 C43.0552777,23.9943506 49.660385,16.3239034 58.9075353,16.3239034 C68.1546856,16.3239034 74.7384861,24.058271 74.7597929,36.181839 C74.7597929,48.305407 68.1546856,56.0397746 58.9075353,56.0397746 Z M108.238095,58 L108.238095,55.5284114 L86.1003324,55.5284114 L86.1003324,37.3963265 L106.427018,37.3963265 L106.427018,34.9247379 L86.1003324,34.9247379 L86.1003324,16.8352665 L107.726732,16.8352665 L107.726732,14.363678 L83.4369826,14.363678 L83.4369826,58 L108.238095,58 Z M117.08573,58 L117.08573,19.2003211 L117.341412,19.2003211 L145.16809,58 L147.767519,58 L147.767519,14.363678 L145.125476,14.363678 L145.125476,53.2059705 L144.869794,53.2059705 L117.043116,14.363678 L114.42238,14.363678 L114.42238,58 L117.08573,58 Z M169.420549,9.69748925 L175.833896,0.279884592 L172.74441,0.279884592 L167.034188,9.69748925 L169.420549,9.69748925 Z M180.8623,58 L180.8623,55.5284114 L158.724537,55.5284114 L158.724537,37.3963265 L179.051222,37.3963265 L179.051222,34.9247379 L158.724537,34.9247379 L158.724537,16.8352665 L180.350937,16.8352665 L180.350937,14.363678 L156.061187,14.363678 L156.061187,58 L180.8623,58 Z"/><path id="Advies,Training&amp;Projecten" d="M44.1558938,84 L45.4023415,80.5110119 L50.143104,80.5110119 L51.3895517,84 L52.092676,84 L48.1562451,73.0909195 L47.3892004,73.0909195 L43.4527695,84 L44.1558938,84 Z M49.9247093,79.8931147 L45.6207361,79.8931147 L47.7460892,73.9485181 L47.7993562,73.9485181 L49.9247093,79.8931147 Z M56.7002801,84.1704544 C58.1012021,84.1704544 58.953474,83.2702422 59.3423231,82.2155557 L59.4222236,82.2155557 L59.4222236,84 L60.0507741,84 L60.0507741,73.0909195 L59.4062435,73.0909195 L59.4062435,77.6452475 L59.3423231,77.6452475 C58.9641274,76.590561 58.1065288,75.6956755 56.7056068,75.6956755 C54.7400547,75.6956755 53.4403401,77.4641398 53.4403401,79.9304016 C53.4403401,82.4073169 54.7240746,84.1704544 56.7002801,84.1704544 Z M56.7588738,83.5685373 C55.0756368,83.5685373 54.0848707,81.9811809 54.0848707,79.9250749 C54.0848707,77.8689689 55.0756368,76.3029193 56.7588738,76.3029193 C58.4208041,76.3029193 59.4115702,77.8370087 59.4115702,79.9250749 C59.4115702,82.0184678 58.4208041,83.5685373 56.7588738,83.5685373 Z M66.0007061,84 L68.9570243,75.8181896 L68.2592266,75.8181896 L65.6597973,83.1637082 L65.6065303,83.1637082 L63.007101,75.8181896 L62.3093033,75.8181896 L65.2656215,84 L66.0007061,84 Z M71.3433933,74.3693274 C71.631035,74.3693274 71.8654098,74.1402793 71.8654098,73.8579642 C71.8654098,73.5756491 71.631035,73.3466011 71.3433933,73.3466011 C71.0557515,73.3466011 70.81605,73.5756491 70.81605,73.8579642 C70.81605,74.1402793 71.0557515,74.3693274 71.3433933,74.3693274 Z M71.6629952,84 L71.6629952,75.8181896 L71.0184646,75.8181896 L71.0184646,84 L71.6629952,84 Z M77.5809616,84.1704544 C79.1949515,84.1704544 80.1857176,83.2276286 80.5585866,82.4019902 L79.9673229,82.1622887 C79.6637011,82.7695324 78.9126364,83.5685373 77.5809616,83.5685373 C75.7219435,83.5685373 74.6086633,82.0664081 74.5820298,80.0529157 L80.8249216,80.0529157 L80.8249216,79.6480865 C80.8249216,77.2191116 79.2588719,75.6956755 77.4264873,75.6956755 C75.3970148,75.6956755 73.9374991,77.5014267 73.9374991,79.9463817 C73.9374991,82.3860101 75.3597279,84.1704544 77.5809616,84.1704544 Z M80.1750642,79.4616521 L74.5926832,79.4616521 C74.720524,77.6772077 75.8764178,76.3029193 77.4264873,76.3029193 C78.9818835,76.3029193 80.1750642,77.6878611 80.1750642,79.4616521 Z M85.4751385,84.1704544 C87.1796823,84.1704544 88.3622096,83.2223019 88.3622096,81.8639935 C88.3622096,80.809307 87.7016988,80.0795492 86.4126376,79.7599472 L85.1555365,79.445672 C84.0901966,79.1846637 83.5788335,78.6786272 83.5788335,77.9009291 C83.5788335,76.9421232 84.420452,76.2869392 85.624286,76.2869392 C86.7428929,76.2869392 87.3661168,76.8462426 87.6644119,77.7411281 L88.266329,77.5813271 C87.8721532,76.3774931 87.0092279,75.6956755 85.624286,75.6956755 C84.0582364,75.6956755 82.9343028,76.6012144 82.9343028,77.9222359 C82.9343028,78.9769224 83.6001403,79.7173336 84.9371418,80.0422623 L86.2421832,80.3618643 C87.2169692,80.6015657 87.7016988,81.128909 87.7016988,81.8853003 C87.7016988,82.8760664 86.8068133,83.573864 85.4698118,83.573864 C84.260651,83.573864 83.5095864,83.0092339 83.2752116,81.9385673 L82.6519877,82.0983683 C82.9343028,83.4300432 83.9517024,84.1704544 85.4751385,84.1704544 Z M90.9669728,86.6633497 C91.2173277,85.8856516 91.60085,84.1651277 91.7926112,83.0678276 L91.8884918,82.5085241 L91.1960209,82.5085241 L91.1001403,83.1051145 C90.8817456,84.5433233 90.6100839,85.896305 90.4609364,86.6633497 L90.9669728,86.6633497 Z M102.456671,84 L102.456671,73.7088166 L105.94566,73.7088166 L105.94566,73.0909195 L98.3018458,73.0909195 L98.3018458,73.7088166 L101.790834,73.7088166 L101.790834,84 L102.456671,84 Z M108.795453,84 L108.795453,78.6093801 C108.795453,77.2883587 109.780892,76.3348795 111.144527,76.3348795 C111.314981,76.3348795 111.426842,76.3561863 111.512069,76.3668397 L111.512069,75.7116556 C111.410862,75.7063289 111.299001,75.7063289 111.181814,75.7063289 C110.100494,75.7063289 109.189628,76.2603057 108.838066,77.0965975 L108.779473,77.0965975 L108.779473,75.8181896 L108.145595,75.8181896 L108.145595,84 L108.795453,84 Z M115.427198,84.1757811 C116.726913,84.1757811 117.643105,83.4406966 118.069241,82.5245042 L118.117182,82.5245042 L118.117182,84 L118.767039,84 L118.767039,78.2844515 C118.767039,76.4946805 117.435364,75.6956755 115.981175,75.6956755 C114.718747,75.6956755 113.53622,76.2656324 113.06747,77.442833 L113.680041,77.671881 C113.999643,76.8622227 114.830608,76.2922659 115.997155,76.2922659 C117.318177,76.2922659 118.117182,77.0539839 118.117182,78.2418379 L118.117182,78.5827466 C118.117182,79.2112972 117.200989,79.2752176 115.954542,79.4243652 C113.770595,79.6907001 112.833096,80.3831711 112.833096,81.7468061 C112.833096,83.3022024 114.015623,84.1757811 115.427198,84.1757811 Z M115.491119,83.573864 C114.345878,83.573864 113.482953,82.8867198 113.482953,81.7681129 C113.482953,80.75604 114.228691,80.2127167 116.018462,79.9996487 C116.817467,79.9090948 117.776273,79.7599472 118.117182,79.4776322 L118.117182,80.6814662 C118.117182,82.3433965 117.025208,83.573864 115.491119,83.573864 Z M121.845879,74.3693274 C122.133521,74.3693274 122.367896,74.1402793 122.367896,73.8579642 C122.367896,73.5756491 122.133521,73.3466011 121.845879,73.3466011 C121.558237,73.3466011 121.318536,73.5756491 121.318536,73.8579642 C121.318536,74.1402793 121.558237,74.3693274 121.845879,74.3693274 Z M122.165481,84 L122.165481,75.8181896 L121.52095,75.8181896 L121.52095,84 L122.165481,84 Z M125.542612,84 L125.542612,78.6946073 C125.542612,77.2670519 126.533378,76.3135727 127.897013,76.3135727 C129.255321,76.3135727 130.155533,77.2350917 130.155533,78.6306869 L130.155533,84 L130.805391,84 L130.805391,78.6040534 C130.805391,76.8142824 129.665477,75.7116556 128.019527,75.7116556 C126.85298,75.7116556 125.974074,76.2656324 125.590552,77.1125776 L125.526632,77.1125776 L125.526632,75.8181896 L124.892754,75.8181896 L124.892754,84 L125.542612,84 Z M133.857598,74.3693274 C134.14524,74.3693274 134.379614,74.1402793 134.379614,73.8579642 C134.379614,73.5756491 134.14524,73.3466011 133.857598,73.3466011 C133.569956,73.3466011 133.330255,73.5756491 133.330255,73.8579642 C133.330255,74.1402793 133.569956,74.3693274 133.857598,74.3693274 Z M134.1772,84 L134.1772,75.8181896 L133.532669,75.8181896 L133.532669,84 L134.1772,84 Z M137.55433,84 L137.55433,78.6946073 C137.55433,77.2670519 138.545097,76.3135727 139.908732,76.3135727 C141.26704,76.3135727 142.167252,77.2350917 142.167252,78.6306869 L142.167252,84 L142.81711,84 L142.81711,78.6040534 C142.81711,76.8142824 141.677196,75.7116556 140.031246,75.7116556 C138.864699,75.7116556 137.985793,76.2656324 137.602271,77.1125776 L137.53835,77.1125776 L137.53835,75.8181896 L136.904473,75.8181896 L136.904473,84 L137.55433,84 Z M148.463419,87.2386333 C150.375704,87.2386333 151.670092,86.2425405 151.670092,84.1917612 L151.670092,75.8181896 L151.041542,75.8181896 L151.041542,77.6452475 L150.966968,77.6452475 C150.578119,76.590561 149.741827,75.6956755 148.324925,75.6956755 C146.343393,75.6956755 145.059658,77.4534864 145.059658,79.9090948 C145.059658,82.3647033 146.38068,83.9573864 148.319598,83.9573864 C149.661927,83.9573864 150.583446,83.1903417 150.961641,82.1303285 L151.025562,82.1303285 L151.025562,84.1651277 C151.025562,85.843038 150.040122,86.6420429 148.463419,86.6420429 C147.147724,86.6420429 146.316759,86.0720861 145.95987,85.2784079 L145.416547,85.5980098 C145.86399,86.6100827 146.934656,87.2386333 148.463419,87.2386333 Z M148.378192,83.3554694 C146.700282,83.3554694 145.704189,81.9492207 145.704189,79.9037681 C145.704189,77.8689689 146.684302,76.3029193 148.378192,76.3029193 C150.045449,76.3029193 151.030888,77.8370087 151.030888,79.9037681 C151.030888,82.0344479 150.018815,83.3554694 148.378192,83.3554694 Z M161.364698,84.1491476 C162.424711,84.1491476 163.537991,83.7070315 164.257096,82.9346601 L164.321016,82.8600863 L164.321016,82.8600863 L165.237208,84 L166.02556,84 L164.704538,82.3487232 C165.098714,81.7734396 165.530177,80.9371478 165.615404,79.7972341 L164.981527,79.7652739 C164.890973,80.5642788 164.656598,81.2674032 164.299709,81.8480134 L161.396658,78.2152044 L162.190336,77.6239407 C163.229043,76.8196091 163.708446,76.1218115 163.708446,75.1949658 C163.708446,73.9378647 162.76562,72.957752 161.396658,72.957752 C160.02237,72.957752 158.967683,74.0017851 158.967683,75.3121532 C158.967683,76.2336722 159.55362,76.9314698 160.496446,78.0926903 L160.171517,78.3323918 C158.802555,79.3497914 158.163351,80.1061827 158.163351,81.2141362 C158.163351,82.8707397 159.500353,84.1491476 161.364698,84.1491476 Z M160.997156,77.7198213 C160.13423,76.643828 159.61754,76.0312576 159.61754,75.3228066 C159.61754,74.3959609 160.421872,73.5436889 161.407311,73.5436889 C162.366117,73.5436889 163.058588,74.2841002 163.058588,75.1949658 C163.058588,75.9566838 162.653759,76.4787004 161.7642,77.1445378 L160.997156,77.7198213 Z M161.354044,83.5525572 C159.894529,83.5365771 158.818535,82.4925441 158.818535,81.2141362 C158.818535,80.5323186 159.207385,79.8664812 160.400565,78.9556156 L160.895948,78.5880733 L163.92684,82.3647033 C163.28231,83.1051145 162.398077,83.5365771 161.354044,83.5525572 Z M172.763847,84 L172.763847,79.6480865 L175.464484,79.6480865 C177.531243,79.6480865 178.783018,78.2524913 178.783018,76.3721664 C178.783018,74.4811881 177.531243,73.0909195 175.459157,73.0909195 L172.09801,73.0909195 L172.09801,84 L172.763847,84 Z M175.448504,79.0301894 L172.763847,79.0301894 L172.763847,73.7088166 L175.443177,73.7088166 C177.126414,73.7088166 178.122507,74.8220968 178.122507,76.3721664 C178.122507,77.9169092 177.126414,79.0301894 175.448504,79.0301894 Z M181.760652,84 L181.760652,78.6093801 C181.760652,77.2883587 182.746091,76.3348795 184.109726,76.3348795 C184.28018,76.3348795 184.392041,76.3561863 184.477268,76.3668397 L184.477268,75.7116556 C184.376061,75.7063289 184.2642,75.7063289 184.147013,75.7063289 C183.065693,75.7063289 182.154827,76.2603057 181.803265,77.0965975 L181.744671,77.0965975 L181.744671,75.8181896 L181.110794,75.8181896 L181.110794,84 L181.760652,84 Z M189.265976,84.1704544 C191.290122,84.1704544 192.760291,82.3913368 192.760291,79.9357283 C192.760291,77.4801199 191.284795,75.6956755 189.265976,75.6956755 C187.24183,75.6956755 185.771661,77.4747932 185.771661,79.9357283 C185.771661,82.3913368 187.24183,84.1704544 189.265976,84.1704544 Z M189.265976,83.5685373 C187.545452,83.5685373 186.416192,81.9652008 186.416192,79.9357283 C186.416192,77.9169092 187.556105,76.3029193 189.265976,76.3029193 C190.981173,76.3029193 192.11576,77.9115825 192.11576,79.9357283 C192.11576,81.9652008 190.9865,83.5685373 189.265976,83.5685373 Z M195.354402,74.3693274 C195.642044,74.3693274 195.876418,74.1402793 195.876418,73.8579642 C195.876418,73.5756491 195.642044,73.3466011 195.354402,73.3466011 C195.06676,73.3466011 194.827059,73.5756491 194.827059,73.8579642 C194.827059,74.1402793 195.06676,74.3693274 195.354402,74.3693274 Z M193.649858,87.0681789 C194.843039,87.0681789 195.67933,86.2638473 195.67933,84.9960928 L195.67933,75.8181896 L195.0348,75.8181896 L195.0348,84.9960928 C195.0348,85.9069584 194.438209,86.4502818 193.639205,86.4502818 L193.479404,86.4502818 L193.447443,87.0521988 C193.532671,87.0681789 193.591264,87.0681789 193.649858,87.0681789 Z M201.597297,84.1704544 C203.211287,84.1704544 204.202053,83.2276286 204.574922,82.4019902 L203.983658,82.1622887 C203.680036,82.7695324 202.928972,83.5685373 201.597297,83.5685373 C199.738279,83.5685373 198.624999,82.0664081 198.598365,80.0529157 L204.841257,80.0529157 L204.841257,79.6480865 C204.841257,77.2191116 203.275207,75.6956755 201.442823,75.6956755 C199.41335,75.6956755 197.953834,77.5014267 197.953834,79.9463817 C197.953834,82.3860101 199.376063,84.1704544 201.597297,84.1704544 Z M204.191399,79.4616521 L198.609018,79.4616521 C198.736859,77.6772077 199.892753,76.3029193 201.442823,76.3029193 C202.998219,76.3029193 204.191399,77.6878611 204.191399,79.4616521 Z M210.151984,84.1704544 C211.749994,84.1704544 212.953828,83.1264213 213.188203,81.6136386 L212.527692,81.6136386 C212.314624,82.8014926 211.350492,83.5685373 210.151984,83.5685373 C208.442114,83.5685373 207.275567,82.0078144 207.275567,79.9250749 C207.275567,77.8157019 208.490054,76.3029193 210.151984,76.3029193 C211.382452,76.3029193 212.303971,77.123231 212.511712,78.2258578 L213.172223,78.2258578 C212.932522,76.7184018 211.696727,75.6956755 210.146658,75.6956755 C208.074572,75.6956755 206.631036,77.5067534 206.631036,79.9357283 C206.631036,82.3647033 208.063918,84.1704544 210.151984,84.1704544 Z M217.912993,84.1331675 C218.243249,84.1331675 218.46697,84.0745738 218.669385,84 L218.509584,83.4087364 C218.349783,83.4620034 218.189982,83.5046169 217.955607,83.5046169 C217.231176,83.5046169 216.570665,83.0571742 216.570665,82.0664081 L216.570665,76.3987999 L218.291189,76.3987999 L218.291189,75.8181896 L216.570665,75.8181896 L216.570665,73.8579642 L215.926135,73.8579642 L215.926135,75.8181896 L214.716974,75.8181896 L214.716974,76.3987999 L215.926135,76.3987999 L215.926135,82.1835955 C215.926135,83.4247165 216.890267,84.1331675 217.912993,84.1331675 Z M223.889555,84.1704544 C225.503545,84.1704544 226.494311,83.2276286 226.86718,82.4019902 L226.275917,82.1622887 C225.972295,82.7695324 225.22123,83.5685373 223.889555,83.5685373 C222.030537,83.5685373 220.917257,82.0664081 220.890624,80.0529157 L227.133515,80.0529157 L227.133515,79.6480865 C227.133515,77.2191116 225.567466,75.6956755 223.735081,75.6956755 C221.705609,75.6956755 220.246093,77.5014267 220.246093,79.9463817 C220.246093,82.3860101 221.668322,84.1704544 223.889555,84.1704544 Z M226.483658,79.4616521 L220.901277,79.4616521 C221.029118,77.6772077 222.185012,76.3029193 223.735081,76.3029193 C225.290477,76.3029193 226.483658,77.6878611 226.483658,79.4616521 Z M230.025921,84 L230.025921,78.6946073 C230.025921,77.2670519 231.016687,76.3135727 232.380323,76.3135727 C233.738631,76.3135727 234.638843,77.2350917 234.638843,78.6306869 L234.638843,84 L235.2887,84 L235.2887,78.6040534 C235.2887,76.8142824 234.148787,75.7116556 232.502837,75.7116556 C231.336289,75.7116556 230.457384,76.2656324 230.073862,77.1125776 L230.009941,77.1125776 L230.009941,75.8181896 L229.376064,75.8181896 L229.376064,84 L230.025921,84 Z"/></g></g></g></g></svg>