<svg xmlns="http://www.w3.org/2000/svg" xmlns:xlink="http://www.w3.org/1999/xlink" width="359" height="75" version="1.1" viewBox="0 0 359 75"><title>logo_acuvera-text-black</title><desc>Created with Sketch.</desc><g id="Page-1-Copy" fill="none" fill-rule="evenodd" stroke="none" stroke-width="1"><g id="Artboard" fill="#000" fill-rule="nonzero" transform="translate(-1557.000000, -351.000000)"><g id="logo_acuvera-text" transform="translate(1557.000000, 351.000000)"><path id="logo_acuvera-text-black" d="M210.751053,24.2324219 C216.386795,24.2324219 220.910965,26.2431641 224.323562,30.2646484 C227.73616,34.2861328 229.442459,40.4882812 229.442459,48.8710936 L229.442459,48.8710936 L229.442459,50.5703125 L196.732498,50.5703125 L196.757934,51.6548755 C196.893592,54.519073 197.571881,57.1595053 198.792801,59.5761718 C200.166336,62.2949218 201.971756,64.3339843 204.209061,65.6933593 C206.446365,67.0527343 208.995194,67.7324219 211.855545,67.7324219 C216.953201,67.7324219 222.588944,66.0332032 228.762772,62.6347657 L228.762772,62.6347657 L228.762772,69.8564452 L227.504217,70.4368228 C221.652107,73.0518577 216.09604,74.359375 210.836014,74.359375 C206.559647,74.359375 202.736404,73.2973633 199.366287,71.1733399 C195.99617,69.0493165 193.29866,66.0119629 191.273758,62.0612794 C189.248855,58.1105956 188.236404,53.8837891 188.236404,49.3808593 C188.236404,45.0478516 189.199295,40.8847657 191.125076,36.8916016 C193.050857,32.8984375 195.741287,29.7902833 199.196365,27.5671387 C202.651443,25.3439941 206.503006,24.2324219 210.751053,24.2324219 Z M75.9792201,24.2324219 C80.8786341,24.2324219 86.0612514,25.152832 91.5270717,26.9936523 L91.5270717,26.9936523 L91.5270717,34.5976561 L90.3525735,34.0768369 C85.3015878,31.9035421 80.7511929,30.8168944 76.7013882,30.8168944 C73.8127161,30.8168944 71.0939661,31.5319825 68.5451382,32.9621581 C65.99631,34.392334 64.0280481,36.6225586 62.6403528,39.6528319 C61.2526575,42.6831055 60.55881,45.7983397 60.55881,48.9985351 C60.55881,53.2749022 61.8969447,57.3530272 64.5732141,61.2329101 C67.2494838,65.112793 71.44797,67.0527343 77.1686733,67.0527343 C78.8962122,67.0527343 80.5954311,66.9323731 82.2663294,66.6916504 C83.937228,66.4509277 87.0241419,65.5659181 91.5270717,64.036621 L91.5270717,64.036621 L91.5270717,71.640625 L90.089055,72.1051015 C85.3167315,73.5796303 80.7550545,74.3168944 76.4040249,74.3168944 C71.6462124,74.3168944 67.4194056,73.2194824 63.7236048,71.0246581 C60.027804,68.8298341 57.1462122,65.8562011 55.0788294,62.1037597 C53.0114466,58.3513183 51.9777552,54.0820312 51.9777552,49.2958984 C51.9777552,42.1025392 54.321261,36.1269532 59.0082729,31.3691407 C63.6952845,26.6113281 69.3522669,24.2324219 75.9792201,24.2324219 Z M104.888028,25.5493164 L104.888028,53.0341798 L104.890954,53.9254198 C104.918267,57.9880633 105.136775,60.7000162 105.546475,62.0612794 C105.98544,63.5197753 106.792569,64.7163085 107.967862,65.650879 C109.143155,66.5854492 110.410489,67.0527343 111.769864,67.0527343 C114.545254,67.0527343 117.525967,65.7429199 120.712002,63.1232911 C123.898037,60.503662 126.538907,57.1972657 128.63461,53.2041016 L128.63461,53.2041016 L128.63461,25.5493164 L136.535977,25.5493164 L136.535977,73 L128.63461,73 L128.63461,62.5922851 L127.991503,63.5489806 C125.61181,66.9822286 122.994147,69.5944825 120.138516,71.3857423 C117.023282,73.3398436 113.908047,74.3168944 110.792813,74.3168944 C108.017422,74.3168944 105.475674,73.5734863 103.167569,72.0866698 C100.859463,70.5998536 99.2522853,68.645752 98.3460354,66.2243653 C97.4397855,63.8029786 96.9866604,59.0805664 96.9866604,52.057129 L96.9866604,52.057129 L96.9866604,25.5493164 L104.888028,25.5493164 Z M303.445134,24.8696289 C304.946109,24.8696289 307.211733,25.0253906 310.242009,25.3369141 C310.695132,25.3935547 311.374821,25.4643555 312.28107,25.5493164 L312.28107,25.5493164 L320.224917,25.5493164 L320.224917,59.0664061 L320.235474,60.367465 C320.319933,65.4952849 320.91114,69.7061299 322.009098,73 L322.009098,73 L313.767888,73 L313.601124,72.2658955 C313.055784,69.7404724 312.615765,66.4309747 312.28107,62.3374024 C309.873843,66.3022462 306.978093,69.2900392 303.593814,71.3007811 C300.209538,73.3115233 297.101383,74.3168944 294.269351,74.3168944 C290.304508,74.3168944 286.743228,72.6035155 283.585514,69.1767577 C280.427799,65.7499999 278.848941,60.5532226 278.848941,53.5864258 C278.848941,48.0922852 279.896793,43.1857909 281.992496,38.8669435 C284.088199,34.5480958 286.89191,31.135498 290.403629,28.6291504 C293.915348,26.1228027 298.262516,24.8696289 303.445134,24.8696289 Z M29.525979,7.0703125 L49.9590846,73 L40.9107447,73 L36.4078149,58.5141601 L13.213479,58.5141601 L8.75302977,73 L0.511818843,73 L20.8174829,7.0703125 L29.525979,7.0703125 Z M146.88082,25.5493164 L163.150839,63.1020508 L179.760702,25.5493164 L187.66207,25.5493164 L166.88912,73 L158.817831,73 L138.214804,25.5493164 L146.88082,25.5493164 Z M266.252634,24.2324219 C269.112985,24.2324219 271.973337,24.6713867 274.833689,25.5493164 L274.833689,25.5493164 L274.833689,42.6689452 L267.229685,42.6689452 L267.229685,31.8364258 L266.587757,31.7325847 C265.557213,31.5752497 264.723337,31.4965819 264.08613,31.4965819 C261.140817,31.4965819 258.252146,32.6577148 255.420114,34.9799806 C252.588083,37.3022461 249.826853,40.7856445 247.136423,45.4301758 L247.136423,45.4301758 L247.136423,73 L239.235056,73 L239.235056,25.5493164 L247.136423,25.5493164 L247.136423,35.9145508 L247.759912,34.9580026 C250.073623,31.5258364 252.690744,28.9206136 255.611276,27.142334 C258.797312,25.2023926 262.344431,24.2324219 266.252634,24.2324219 Z M304.464663,31.4965819 C299.59357,31.4965819 295.536686,33.3798829 292.29401,37.1464843 C289.051334,40.913086 287.429996,46.0390624 287.429996,52.5244141 C287.429996,57.225586 288.315006,60.772705 290.085025,63.1657714 C291.855045,65.5588378 293.872867,66.755371 296.138492,66.755371 C298.602359,66.755371 301.32111,65.5092772 304.294743,63.0170899 C307.268376,60.5249023 309.930483,57.1689454 312.28107,52.9492186 L312.28107,52.9492186 L312.28107,32.6010742 L311.091618,32.3080456 C308.736984,31.76707 306.528,31.4965819 304.464663,31.4965819 Z M24.6832056,20.2817383 L23.0264673,26.9086914 L15.2525415,51.9296875 L34.4961939,51.9296875 L26.5523462,26.9086914 L24.6832056,20.2817383 Z M210.411209,30.8168944 C207.211014,30.8168944 204.442703,31.9851073 202.106277,34.3215331 C199.769852,36.6579589 198.134354,40.105957 197.199783,44.6655274 L197.199783,44.6655274 L220.861404,44.6655274 L220.861404,43.5185548 L220.844563,42.6372736 C220.709832,39.168454 219.766715,36.3753004 218.015213,34.2578125 C216.117752,31.9638673 213.583084,30.8168944 210.411209,30.8168944 Z M347.175,0.4 C348.695001,0.4 350.115,0.67 351.435,1.21 C352.755,1.75 353.904999,2.50999999 354.885,3.49 C355.865001,4.47000001 356.634999,5.62999999 357.195,6.97 C357.755001,8.31000001 358.035,9.76 358.035,11.32 C358.035,12.88 357.755001,14.33 357.195,15.67 C356.634999,17.01 355.865001,18.17 354.885,19.15 C353.904999,20.13 352.755,20.89 351.435,21.43 C350.115,21.97 348.695001,22.24 347.175,22.24 C345.654999,22.24 344.235,21.97 342.915,21.43 C341.595,20.89 340.445001,20.13 339.465,19.15 C338.484999,18.17 337.715001,17.01 337.155,15.67 C336.594999,14.33 336.315,12.88 336.315,11.32 C336.315,9.76 336.594999,8.31000001 337.155,6.97 C337.715001,5.62999999 338.484999,4.47000001 339.465,3.49 C340.445001,2.50999999 341.595,1.75 342.915,1.21 C344.235,0.67 345.654999,0.4 347.175,0.4 Z M347.175,1.3 C345.815001,1.3 344.544999,1.54999999 343.365,2.05 C342.185001,2.55000001 341.154999,3.22999999 340.275,4.09 C339.395001,4.95000001 338.705001,5.95999999 338.205,7.12 C337.704999,8.28000001 337.455,9.52 337.455,10.84 L337.455,10.84 L337.455,11.8 L337.485,12.5824 C337.565001,13.6128 337.805001,14.592 338.205,15.52 C338.705001,16.68 339.395001,17.69 340.275,18.55 C341.154999,19.41 342.185001,20.09 343.365,20.59 C344.544999,21.09 345.815001,21.34 347.175,21.34 C348.534999,21.34 349.805001,21.09 350.985,20.59 C352.164999,20.09 353.195001,19.41 354.075,18.55 C354.955,17.69 355.644999,16.68 356.145,15.52 C356.645001,14.36 356.895,13.12 356.895,11.8 L356.895,11.8 L356.895,10.84 L356.865,10.0576 C356.784999,9.02719999 356.544999,8.04799999 356.145,7.12 C355.644999,5.95999999 354.955,4.95000001 354.075,4.09 C353.195001,3.22999999 352.164999,2.55000001 350.985,2.05 C349.805001,1.54999999 348.534999,1.3 347.175,1.3 Z M348.075,5.74 L348.576666,5.76166666 C349.382223,5.8338889 350.034999,6.08666668 350.535,6.52 C351.135,7.03999999 351.435,7.87999999 351.435,9.04 C351.435,10 351.165,10.74 350.625,11.26 C350.085,11.78 349.395,12.06 348.555,12.1 L348.555,12.1 L351.735,16.84 L350.655,16.84 L347.595,12.16 L344.955,12.16 L344.955,16.84 L344.055,16.84 L344.055,5.74 L348.075,5.74 Z M348.015,6.52 L344.955,6.52 L344.955,11.38 L348.015,11.38 C348.935001,11.38 349.575,11.21 349.935,10.87 C350.295,10.53 350.475,9.96000001 350.475,9.16 L350.475,9.16 L350.475,8.74 L350.46,8.35916668 C350.409999,7.75638889 350.235,7.31333332 349.935,7.03 C349.575,6.69000001 348.935001,6.52 348.015,6.52 L348.015,6.52 Z"/></g></g></g></svg>