<svg xmlns="http://www.w3.org/2000/svg" xmlns:xlink="http://www.w3.org/1999/xlink" width="166" height="30" version="1.1" viewBox="0 0 166 30"><title>marquee_loading</title><desc>Created with Sketch.</desc><g id="Page-1" fill="none" fill-rule="evenodd" stroke="none" stroke-width="1"><path id="marquee_loading" fill="#FFF" fill-rule="nonzero" d="M0,22.191457 L12.47,14.709457 L12.47,14.187457 L0,6.70545703 L0,7.37245703 L11.803,14.419457 L11.803,14.477457 L0,21.524457 L0,22.191457 Z M28.4924996,27.382457 L28.4924996,26.831457 L14.5724996,26.831457 L14.5724996,27.382457 L28.4924996,27.382457 Z M51.0112491,23.293457 L51.0112491,20.8720703 L42.0053897,20.8720703 L42.0053897,1.31689453 L39.1450382,1.31689453 L39.1450382,23.293457 L51.0112491,23.293457 Z M60.0527917,23.7324219 C62.3089766,23.7324219 64.1167565,22.9418132 65.4761315,21.3605957 C66.8355065,19.7793783 67.515194,17.7851562 67.515194,15.3779297 C67.515194,12.9707031 66.8355065,10.9788411 65.4761315,9.40234375 C64.1167565,7.82584635 62.3089766,7.03759766 60.0527917,7.03759766 C57.7871667,7.03759766 55.9746667,7.82584635 54.6152917,9.40234375 C53.2559167,10.9788411 52.5762292,12.9707031 52.5762292,15.3779297 C52.5762292,17.7851562 53.2559167,19.7793783 54.6152917,21.3605957 C55.9746667,22.9418132 57.7871667,23.7324219 60.0527917,23.7324219 Z M60.0527917,21.5375977 C58.6367761,21.5375977 57.5134037,20.9900716 56.6826745,19.8950195 C55.8519453,18.7999674 55.4365808,17.2942708 55.4365808,15.3779297 C55.4365808,13.4710286 55.8519453,11.9700521 56.6826745,10.875 C57.5134037,9.77994792 58.6367761,9.23242188 60.0527917,9.23242188 C61.4593672,9.23242188 62.5780196,9.77994792 63.4087487,10.875 C64.2394779,11.9700521 64.6548425,13.4710286 64.6548425,15.3779297 C64.6548425,17.2942708 64.2394779,18.7999674 63.4087487,19.8950195 C62.5780196,20.9900716 61.4593672,21.5375977 60.0527917,21.5375977 Z M73.2290999,23.7324219 C74.1731103,23.7324219 75.2091618,23.3972982 76.3372542,22.7270508 C77.4653467,22.0568034 78.4305973,21.0608724 79.2330062,19.7392578 C79.3557275,21.2402344 79.5209294,22.4249674 79.7286116,23.293457 L79.7286116,23.293457 L82.475682,23.293457 C82.0791976,22.1040039 81.8809554,20.5558268 81.8809554,18.6489258 L81.8809554,18.6489258 L81.8809554,7.4765625 L79.2330062,7.4765625 C78.9309228,7.44824219 78.7043603,7.42464193 78.5533187,7.40576172 C77.5432275,7.30192057 76.7880192,7.25 76.2876937,7.25 C74.5601546,7.25 73.1110986,7.66772461 71.9405257,8.50317383 C70.7699528,9.33862305 69.8353825,10.4761556 69.1368148,11.9157715 C68.4382471,13.3553874 68.0889632,14.9908854 68.0889632,16.8222656 C68.0889632,19.1445312 68.615249,20.8767904 69.6678206,22.019043 C70.7203922,23.1612956 71.9074853,23.7324219 73.2290999,23.7324219 Z M73.8521468,21.2119141 C73.0969385,21.2119141 72.424331,20.8130697 71.8343245,20.0153809 C71.244318,19.2176921 70.9493148,18.035319 70.9493148,16.4682617 C70.9493148,14.3064779 71.4897607,12.597819 72.5706527,11.3422852 C73.6515446,10.0867513 75.0038395,9.45898438 76.6275374,9.45898438 C77.4299463,9.45898438 78.2984359,9.58170573 79.2330062,9.82714844 L79.2330062,9.82714844 L79.2330062,16.6098633 C78.4494775,18.0164388 77.5621077,19.1350911 76.5708968,19.9658203 C75.5796859,20.7965495 74.6734359,21.2119141 73.8521468,21.2119141 Z M88.6993535,23.7324219 C89.6433639,23.7324219 90.6794153,23.3972982 91.8075078,22.7270508 C92.9356002,22.0568034 93.9008509,21.0608724 94.7032597,19.7392578 L94.7032597,19.7392578 L94.7032597,23.293457 L97.3512089,23.293457 L97.3512089,0.438964844 L94.7032597,0.438964844 L94.7032597,7.4765625 C94.4011764,7.44824219 94.1746139,7.42464193 94.0235722,7.40576172 C93.0134811,7.30192057 92.2582727,7.25 91.7579472,7.25 C90.0304082,7.25 88.5813522,7.66772461 87.4107793,8.50317383 C86.2402063,9.33862305 85.305636,10.4761556 84.6070683,11.9157715 C83.9085006,13.3553874 83.5592168,14.9908854 83.5592168,16.8222656 C83.5592168,19.1445312 84.0855026,20.8767904 85.1380742,22.019043 C86.1906458,23.1612956 87.3777389,23.7324219 88.6993535,23.7324219 Z M89.3224003,21.2119141 C88.567192,21.2119141 87.8945846,20.8130697 87.3045781,20.0153809 C86.7145716,19.2176921 86.4195683,18.035319 86.4195683,16.4682617 C86.4195683,14.3064779 86.9600143,12.597819 88.0409062,11.3422852 C89.1217981,10.0867513 90.4740931,9.45898438 92.097791,9.45898438 C92.9001998,9.45898438 93.7686894,9.58170573 94.7032597,9.82714844 L94.7032597,9.82714844 L94.7032597,16.6098633 C93.9197311,18.0164388 93.0323613,19.1350911 92.0411503,19.9658203 C91.0499394,20.7965495 90.1436894,21.2119141 89.3224003,21.2119141 Z M105.189138,3.52587891 C105.557302,3.52587891 105.944347,3.37955729 106.350271,3.08691406 C106.756196,2.79427083 106.959158,2.35530599 106.959158,1.77001953 C106.959158,1.17529297 106.756196,0.731608073 106.350271,0.438964844 C105.944347,0.146321615 105.557302,0 105.189138,0 C104.830414,0 104.44809,0.146321615 104.042166,0.438964844 C103.636241,0.731608073 103.433279,1.17529297 103.433279,1.77001953 C103.433279,2.35530599 103.636241,2.79427083 104.042166,3.08691406 C104.44809,3.37955729 104.830414,3.52587891 105.189138,3.52587891 Z M110.909841,23.293457 L110.909841,21.0986328 L106.506033,21.0986328 L106.506033,7.4765625 L99.4825953,7.4765625 L99.4825953,9.67138672 L103.872244,9.67138672 L103.872244,23.293457 L110.909841,23.293457 Z M117.374236,23.293457 L117.374236,14.0751953 C118.063363,12.7535807 118.938933,11.6538086 120.000945,10.7758789 C121.062956,9.89794922 122.056527,9.45898438 122.981657,9.45898438 C123.444223,9.45898438 123.871387,9.61474609 124.263152,9.92626953 C124.654916,10.237793 124.923959,10.6366374 125.07028,11.1228027 C125.216602,11.6089681 125.289763,12.6119792 125.289763,14.1318359 L125.289763,23.293457 L127.923552,23.293457 L127.923552,14.4575195 C127.923552,12.1069336 127.77015,10.5304362 127.463347,9.72802734 C127.156543,8.92561849 126.620818,8.27661133 125.856169,7.78100586 C125.091521,7.28540039 124.241911,7.03759766 123.307341,7.03759766 C122.240609,7.03759766 121.173877,7.38216146 120.107146,8.07128906 C119.040414,8.76041667 118.129444,9.71386719 117.374236,10.9316406 L117.374236,10.9316406 L117.374236,7.4765625 L114.740446,7.4765625 L114.740446,23.293457 L117.374236,23.293457 Z M135.336677,29.8779297 C137.243578,29.8779297 138.869636,29.4720052 140.21485,28.6601562 C141.560065,27.8483073 142.421475,26.7390951 142.799079,25.3325195 C142.959561,24.7283529 143.075202,24.1312663 143.146003,23.5412598 C143.216804,22.9512533 143.252204,21.3251953 143.252204,18.6630859 L143.252204,7.4765625 L140.604255,7.4765625 C140.302171,7.44824219 140.075609,7.42464193 139.924567,7.40576172 C138.914476,7.30192057 138.159268,7.25 137.658942,7.25 C135.931403,7.25 134.482347,7.66772461 133.311774,8.50317383 C132.141201,9.33862305 131.206631,10.4761556 130.508063,11.9157715 C129.809496,13.3553874 129.460212,14.9908854 129.460212,16.8222656 C129.460212,19.1445312 129.986498,20.8767904 131.039069,22.019043 C132.091641,23.1612956 133.278734,23.7324219 134.600348,23.7324219 C135.544359,23.7324219 136.58041,23.3972982 137.708503,22.7270508 C138.836595,22.0568034 139.801846,21.0608724 140.604255,19.7392578 L140.604255,19.7392578 L140.604255,21.9765625 C140.604255,23.0338542 140.524014,23.8811035 140.363532,24.5183105 C140.20305,25.1555176 139.900967,25.7148438 139.457282,26.1962891 C139.013597,26.6777344 138.433031,27.0458984 137.715583,27.3007812 C136.998135,27.5556641 136.238207,27.6831055 135.435798,27.6831055 C134.416266,27.6831055 133.361335,27.4872233 132.271003,27.095459 C131.180671,26.7036947 130.262621,26.2529297 129.516852,25.7431641 L129.516852,25.7431641 L129.516852,28.4052734 C131.480394,29.3870443 133.420335,29.8779297 135.336677,29.8779297 Z M135.223395,21.2119141 C134.468187,21.2119141 133.79558,20.8130697 133.205573,20.0153809 C132.615567,19.2176921 132.320563,18.035319 132.320563,16.4682617 C132.320563,14.3064779 132.861009,12.597819 133.941901,11.3422852 C135.022793,10.0867513 136.375088,9.45898438 137.998786,9.45898438 C138.801195,9.45898438 139.669684,9.58170573 140.604255,9.82714844 L140.604255,9.82714844 L140.604255,16.6098633 C139.820726,18.0164388 138.933356,19.1350911 137.942145,19.9658203 C136.950934,20.7965495 136.044684,21.2119141 135.223395,21.2119141 Z M156.248571,23.7524414 C156.613154,23.7524414 156.937047,23.6124674 157.22025,23.3325195 C157.503454,23.0525716 157.645055,22.7237956 157.645055,22.3461914 C157.645055,21.9685872 157.503454,21.6414388 157.22025,21.3647461 C156.937047,21.0880534 156.613154,20.949707 156.248571,20.949707 C155.877477,20.949707 155.550329,21.0880534 155.267125,21.3647461 C154.983922,21.6414388 154.842321,21.9685872 154.842321,22.3461914 C154.842321,22.7237956 154.983922,23.0525716 155.267125,23.3325195 C155.550329,23.6124674 155.877477,23.7524414 156.248571,23.7524414 Z M160.242711,23.7524414 C160.613805,23.7524414 160.940954,23.6124674 161.224157,23.3325195 C161.50736,23.0525716 161.648961,22.7237956 161.648961,22.3461914 C161.648961,21.9685872 161.50736,21.6414388 161.224157,21.3647461 C160.940954,21.0880534 160.613805,20.949707 160.242711,20.949707 C159.871618,20.949707 159.546097,21.0880534 159.266149,21.3647461 C158.986201,21.6414388 158.846227,21.9685872 158.846227,22.3461914 C158.846227,22.7237956 158.986201,23.0525716 159.266149,23.3325195 C159.546097,23.6124674 159.871618,23.7524414 160.242711,23.7524414 Z M164.246618,23.7524414 C164.617711,23.7524414 164.943232,23.6124674 165.22318,23.3325195 C165.503128,23.0525716 165.643102,22.7237956 165.643102,22.3461914 C165.643102,21.9685872 165.503128,21.6414388 165.22318,21.3647461 C164.943232,21.0880534 164.617711,20.949707 164.246618,20.949707 C163.875524,20.949707 163.548375,21.0880534 163.265172,21.3647461 C162.981969,21.6414388 162.840368,21.9685872 162.840368,22.3461914 C162.840368,22.7237956 162.981969,23.0525716 163.265172,23.3325195 C163.548375,23.6124674 163.875524,23.7524414 164.246618,23.7524414 Z"/></g></svg>