<?xml version="1.0" encoding="UTF-8"?>
<svg width="540px" height="420px" viewBox="0 0 540 420" version="1.1" xmlns="http://www.w3.org/2000/svg" xmlns:xlink="http://www.w3.org/1999/xlink">
    <!-- Generator: Sketch 61 (89581) - https://sketch.com -->
    <title>usecase_lawenforcement</title>
    <desc>Created with Sketch.</desc>
    <g id="Page-1" stroke="none" stroke-width="1" fill="none" fill-rule="evenodd">
        <g id="usecase_lawenforcement">
            <rect id="Rectangle" fill-opacity="0.526797421" fill="#000000" x="0" y="0" width="540" height="420" rx="19"></rect>
            <path d="M78.2322209,344 L78.2322209,336.393473 L59.5248523,336.393473 L59.5248523,300.363678 L50.2990089,300.363678 L50.2990089,344 L78.2322209,344 Z M89.1592265,344.617897 C93.9958696,344.617897 97.1279689,342.508524 98.7259787,339.461652 L98.9816603,339.461652 L98.9816603,344 L107.589607,344 L107.589607,321.926157 C107.589607,314.127869 100.984499,310.846623 93.6975744,310.846623 C85.8566728,310.846623 80.7004277,314.596619 79.4433267,320.562522 L87.838205,321.24434 C88.4561022,319.071047 90.3950208,317.473037 93.6549608,317.473037 C96.7444465,317.473037 98.5129108,319.028433 98.5129108,321.713089 L98.5129108,321.84093 C98.5129108,323.950303 96.275697,324.227292 90.586782,324.781268 C84.1095154,325.377859 78.2927596,327.551152 78.2927596,334.859384 C78.2927596,341.33665 82.9163347,344.617897 89.1592265,344.617897 Z M91.7586558,338.353699 C88.9674653,338.353699 86.9646263,337.053984 86.9646263,334.561089 C86.9646263,332.004273 89.0739993,330.747172 92.270019,330.299729 C94.2515512,330.022741 97.4901845,329.553991 98.5768312,328.82956 L98.5768312,332.302568 C98.5768312,335.732962 95.743027,338.353699 91.7586558,338.353699 Z M126.336208,344 L131.961202,323.417633 L132.366032,323.417633 L137.991026,344 L147.600392,344 L156.485327,311.272758 L147.323404,311.272758 L142.337613,333.133533 L142.060625,333.133533 L136.691312,311.272758 L127.678536,311.272758 L122.39445,333.261374 L122.096155,333.261374 L117.025137,311.272758 L107.841907,311.272758 L116.748149,344 L126.336208,344 Z M196.173125,344 L196.173125,336.393473 L175.91036,336.393473 L175.91036,325.974449 L194.575115,325.974449 L194.575115,318.367922 L175.91036,318.367922 L175.91036,307.970205 L196.087898,307.970205 L196.087898,300.363678 L166.684517,300.363678 L166.684517,344 L196.173125,344 Z M207.995019,344 L207.995019,325.079563 C208.016325,320.860818 210.530528,318.389229 214.195297,318.389229 C217.838759,318.389229 220.033359,320.77559 220.012053,324.781268 L220.012053,344 L229.088748,344 L229.088748,323.161952 C229.088748,315.534118 224.614321,310.846623 217.796146,310.846623 C212.938196,310.846623 209.422574,313.232984 207.952405,317.046901 L207.568883,317.046901 L207.568883,311.272758 L198.918323,311.272758 L198.918323,344 L207.995019,344 Z M243.275697,344 L243.275697,318.090934 L249.774271,318.090934 L249.774271,311.272758 L243.275697,311.272758 L243.275697,309.078158 C243.275697,306.862251 244.170583,305.562537 246.833933,305.562537 C247.920579,305.562537 249.028533,305.796911 249.752964,306.031286 L251.350974,299.213111 C250.221713,298.872202 247.728818,298.318225 244.937627,298.318225 C238.779963,298.318225 234.199001,301.791233 234.199001,308.907704 L234.199001,311.272758 L229.575426,311.272758 L229.575426,318.090934 L234.199001,318.090934 L234.199001,344 L243.275697,344 Z M264.600409,344.639204 C274.529377,344.639204 280.708348,337.842335 280.708348,327.76422 C280.708348,317.622184 274.529377,310.846623 264.600409,310.846623 C254.671441,310.846623 248.49247,317.622184 248.49247,327.76422 C248.49247,337.842335 254.671441,344.639204 264.600409,344.639204 Z M264.643023,337.607961 C260.062061,337.607961 257.718313,333.410521 257.718313,327.7003 C257.718313,321.990078 260.062061,317.771332 264.643023,317.771332 C269.138757,317.771332 271.482505,321.990078 271.482505,327.7003 C271.482505,333.410521 269.138757,337.607961 264.643023,337.607961 Z M291.358368,344 L291.358368,325.484393 C291.358368,321.457408 294.298706,318.687524 298.304384,318.687524 C299.561485,318.687524 301.287336,318.900592 302.139608,319.17758 L302.139608,311.123611 C301.32995,310.93185 300.200689,310.804009 299.284497,310.804009 C295.619728,310.804009 292.615469,312.934689 291.422289,316.98298 L291.08138,316.98298 L291.08138,311.272758 L282.281672,311.272758 L282.281672,344 L291.358368,344 Z M315.708646,344.639204 C324.423126,344.639204 329.898973,339.525572 330.325109,332.004273 L321.759776,332.004273 C321.227107,335.498588 318.925972,337.458813 315.81518,337.458813 C311.575127,337.458813 308.82655,333.900578 308.82655,327.636379 C308.82655,321.457408 311.596434,317.920479 315.81518,317.920479 C319.13904,317.920479 321.26972,320.11508 321.759776,323.37502 L330.325109,323.37502 C329.941587,315.811106 324.210058,310.846623 315.666032,310.846623 C305.737064,310.846623 299.600707,317.728718 299.600707,327.76422 C299.600707,337.714495 305.63053,344.639204 315.708646,344.639204 Z M346.727963,344.639204 C354.824546,344.639204 360.279086,340.697446 361.557494,334.625009 L353.162616,334.071032 C352.246424,336.563928 349.902676,337.863642 346.877111,337.863642 C342.338763,337.863642 339.462345,334.859384 339.462345,329.980127 L339.462345,329.95882 L361.749256,329.95882 L361.749256,327.465925 C361.749256,316.343776 355.016307,310.846623 346.365747,310.846623 C336.735075,310.846623 330.492183,317.686105 330.492183,327.785527 C330.492183,338.161937 336.649848,344.639204 346.727963,344.639204 Z M353.20523,324.333826 L339.462345,324.333826 C339.654106,320.605136 342.48791,317.622184 346.514895,317.622184 C350.456653,317.622184 353.183923,320.434682 353.20523,324.333826 Z M372.399274,344 L372.399274,324.355132 C372.399274,320.732977 374.700409,318.325309 377.725974,318.325309 C380.708926,318.325309 382.711765,320.370761 382.711765,323.588088 L382.711765,344 L391.511472,344 L391.511472,324.014224 C391.511472,320.626443 393.450391,318.325309 396.752944,318.325309 C399.650669,318.325309 401.823962,320.136386 401.823962,323.779849 L401.823962,344 L410.879351,344 L410.879351,321.990078 C410.879351,314.894914 406.660605,310.846623 400.566861,310.846623 C395.772832,310.846623 392.044142,313.296904 390.701814,317.046901 L390.360905,317.046901 C389.316872,313.254291 385.971705,310.846623 381.47597,310.846623 C377.065463,310.846623 373.720296,313.19037 372.356661,317.046901 L371.973139,317.046901 L371.973139,311.272758 L363.322579,311.272758 L363.322579,344 L372.399274,344 Z M428.603245,344.639204 C436.699828,344.639204 442.154369,340.697446 443.432777,334.625009 L435.037898,334.071032 C434.121706,336.563928 431.777958,337.863642 428.752393,337.863642 C424.214045,337.863642 421.337627,334.859384 421.337627,329.980127 L421.337627,329.95882 L443.624538,329.95882 L443.624538,327.465925 C443.624538,316.343776 436.89159,310.846623 428.24103,310.846623 C418.610357,310.846623 412.367465,317.686105 412.367465,327.785527 C412.367465,338.161937 418.52513,344.639204 428.603245,344.639204 Z M435.080512,324.333826 L421.337627,324.333826 C421.529388,320.605136 424.363193,317.622184 428.390177,317.622184 C432.331935,317.622184 435.059205,320.434682 435.080512,324.333826 Z M454.274557,344 L454.274557,325.079563 C454.295864,320.860818 456.810066,318.389229 460.474835,318.389229 C464.118297,318.389229 466.312898,320.77559 466.291591,324.781268 L466.291591,344 L475.368287,344 L475.368287,323.161952 C475.368287,315.534118 470.893859,310.846623 464.075684,310.846623 C459.217734,310.846623 455.702112,313.232984 454.231943,317.046901 L453.848421,317.046901 L453.848421,311.272758 L445.197861,311.272758 L445.197861,344 L454.274557,344 Z M491.238472,344.447443 C493.58222,344.362216 495.24415,343.893466 496.160343,343.595171 L494.732787,336.840916 C494.285345,336.926143 493.326539,337.139211 492.474267,337.139211 C490.663189,337.139211 489.406088,336.457394 489.406088,333.943191 L489.406088,318.090934 L495.563752,318.090934 L495.563752,311.272758 L489.406088,311.272758 L489.406088,303.431857 L480.329392,303.431857 L480.329392,311.272758 L475.854964,311.272758 L475.854964,318.090934 L480.329392,318.090934 L480.329392,335.136372 C480.286778,341.549718 484.654672,344.724431 491.238472,344.447443 Z" id="LawEnforcement" stroke="#979797" fill-opacity="0.7" fill="#FFFFFF" fill-rule="nonzero"></path>
            <g id="icon_lawenforcement" transform="translate(191.000000, 72.000000)" fill="#FFFFFF" fill-rule="nonzero">
                <path d="M56.5789474,108.789474 L52.3684211,133.263158 C52.1052632,134.315789 52.6315789,135.368421 53.4210526,135.894737 C54.2105263,136.421053 55.2631579,136.684211 56.3157895,136.157895 L78.1578947,124.578947 L100,136.157895 C100.263158,136.421053 100.789474,136.421053 101.315789,136.421053 C101.842105,136.421053 102.368421,136.157895 102.894737,135.894737 C103.684211,135.368421 104.210526,134.315789 103.947368,133.263158 L99.7368421,108.789474 L117.368421,91.6842105 C118.157895,90.8947368 118.421053,89.8421053 118.157895,89.0526316 C117.894737,88 117.105263,87.4736842 116.052632,87.2105263 L91.5789474,83.5263158 L80.5263158,61.1578947 C80,60.3684211 79.2105263,59.5789474 78.1578947,59.5789474 C78.1578947,59.5789474 78.1578947,59.5789474 78.1578947,59.5789474 C77.1052632,59.5789474 76.3157895,60.1052632 75.7894737,61.1578947 L64.7368421,83.2631579 L40.2631579,86.6842105 C39.2105263,86.9473684 38.4210526,87.4736842 38.1578947,88.5263158 C37.8947368,89.5789474 38.1578947,90.6315789 38.9473684,91.1578947 L56.5789474,108.789474 Z M67.1052632,88.2631579 C67.8947368,88.2631579 68.6842105,87.4736842 69.2105263,86.9473684 L78.4210526,68.2631579 L87.6315789,86.9473684 C87.8947368,87.7368421 88.6842105,88.2631579 89.7368421,88.2631579 L110.263158,91.4210526 L95,105.894737 C94.4736842,106.421053 94.2105263,107.473684 94.2105263,108.263158 L97.6315789,128.789474 L79.2105263,119.052632 C78.9473684,118.789474 78.4210526,118.789474 77.8947368,118.789474 C77.3684211,118.789474 77.1052632,118.789474 76.5789474,119.052632 L58.1578947,128.789474 L61.5789474,108.263158 C61.8421053,107.473684 61.3157895,106.421053 60.7894737,105.894737 L46.0526316,91.4210526 L67.1052632,88.2631579 Z" id="Shape"></path>
                <path d="M14.4736842,158 C27.8947368,176.421053 43.6842105,180.631579 56.3157895,183.789474 C65.2631579,186.157895 72.3684211,188 76.0526316,194.315789 C76.5789474,195.105263 77.3684211,195.631579 78.4210526,195.631579 C79.4736842,195.631579 80.2631579,195.105263 80.7894737,194.315789 C84.2105263,188 91.3157895,186.157895 100.526316,183.789474 C113.157895,180.368421 128.947368,176.157895 142.368421,158 C167.368421,123.789474 152.894737,88.5263158 146.842105,73.5263158 C139.210526,54.8421053 154.736842,30.3684211 154.736842,30.1052632 C155.526316,29.0526316 155.263158,27.4736842 154.210526,26.6842105 L137.631579,12.4736842 C136.842105,11.9473684 135.789474,11.6842105 135,11.9473684 C100.263158,26.4210526 81.5789474,2.47368421 80.7894737,1.42105263 C80.2631579,0.894736842 79.4736842,0.368421053 78.6842105,0.368421053 C77.8947368,0.368421053 77.1052632,0.631578947 76.5789474,1.42105263 C75.7894737,2.47368421 57.1052632,26.4210526 22.3684211,11.9473684 C21.5789474,11.6842105 20.5263158,11.6842105 19.7368421,12.4736842 L2.63157895,26.4210526 C1.57894737,27.2105263 1.31578947,28.7894737 2.10526316,29.8421053 C2.36842105,30.1052632 17.8947368,54.3157895 10,73.2631579 C3.94736842,88.2631579 -10.5263158,123.789474 14.4736842,158 Z M7.63157895,29.0526316 L21.3157895,17.4736842 C52.3684211,29.5789474 72.1052632,13.5263158 78.1578947,6.94736842 C80.5263158,9.57894737 85.2631579,13.5263158 91.8421053,16.6842105 C101.052632,21.1578947 115.789474,24.8421053 135.263158,17.2105263 L148.947368,28.7894737 C145.263158,35.3684211 134.210526,56.9473684 141.578947,75.1052632 C151.052632,98.7894737 158.157895,126.421053 137.631579,154.578947 C125.263158,171.421053 111.315789,175.105263 98.6842105,178.526316 C90.2631579,180.631579 82.8947368,182.736842 78.1578947,188.263158 C73.4210526,182.736842 66.0526316,180.631579 57.6315789,178.526316 C45.2631579,175.105263 31.0526316,171.421053 18.6842105,154.578947 C-1.84210526,126.421053 5.26315789,98.5263158 14.7368421,75.1052632 C22.3684211,56.9473684 11.5789474,35.6315789 7.63157895,29.0526316 Z" id="Shape"></path>
            </g>
        </g>
    </g>
</svg>