<?xml version="1.0" encoding="UTF-8"?>
<svg width="1405px" height="770px" viewBox="0 0 1405 770" version="1.1" xmlns="http://www.w3.org/2000/svg" xmlns:xlink="http://www.w3.org/1999/xlink">
    <!-- Generator: Sketch 61 (89581) - https://sketch.com -->
    <title>video_poster_bank</title>
    <desc>Created with Sketch.</desc>
    <defs>
        <linearGradient x1="100%" y1="22.7208161%" x2="0%" y2="77.2791839%" id="linearGradient-1">
            <stop stop-color="#00EAF7" offset="0%"></stop>
            <stop stop-color="#325BFF" offset="100%"></stop>
        </linearGradient>
        <linearGradient x1="100%" y1="49.7419573%" x2="0%" y2="50.2580427%" id="linearGradient-2">
            <stop stop-color="#00EAF7" offset="0%"></stop>
            <stop stop-color="#325BFF" offset="100%"></stop>
        </linearGradient>
        <polygon id="path-3" points="87.25828 61.635875 87.25828 63.3233125 44.62828 63.3233125 44.62828 61.635875"></polygon>
        <filter x="-11.7%" y="-140.8%" width="123.5%" height="381.6%" filterUnits="objectBoundingBox" id="filter-4">
            <feMorphology radius="2" operator="erode" in="SourceAlpha" result="shadowSpreadInner1"></feMorphology>
            <feGaussianBlur stdDeviation="3.5" in="shadowSpreadInner1" result="shadowBlurInner1"></feGaussianBlur>
            <feOffset dx="0" dy="1" in="shadowBlurInner1" result="shadowOffsetInner1"></feOffset>
            <feComposite in="shadowOffsetInner1" in2="SourceAlpha" operator="arithmetic" k2="-1" k3="1" result="shadowInnerInner1"></feComposite>
            <feColorMatrix values="0 0 0 0 0   0 0 0 0 0   0 0 0 0 0  0 0 0 0 0" type="matrix" in="shadowInnerInner1"></feColorMatrix>
        </filter>
        <linearGradient x1="82.4208503%" y1="0%" x2="17.5791497%" y2="100%" id="linearGradient-5">
            <stop stop-color="#00EAF7" offset="0%"></stop>
            <stop stop-color="#325BFF" offset="100%"></stop>
        </linearGradient>
        <polygon id="path-6" points="-3.34239303e-13 1.60156333e-13 38.189375 22.913625 38.189375 24.51225 -3.34239303e-13 47.425875 -3.34239303e-13 45.3831875 36.1466875 23.80175 36.1466875 23.624125 -3.34239303e-13 2.0426875"></polygon>
        <filter x="-13.1%" y="-10.5%" width="126.2%" height="121.1%" filterUnits="objectBoundingBox" id="filter-7">
            <feMorphology radius="2" operator="erode" in="SourceAlpha" result="shadowSpreadInner1"></feMorphology>
            <feGaussianBlur stdDeviation="3.5" in="shadowSpreadInner1" result="shadowBlurInner1"></feGaussianBlur>
            <feOffset dx="0" dy="1" in="shadowBlurInner1" result="shadowOffsetInner1"></feOffset>
            <feComposite in="shadowOffsetInner1" in2="SourceAlpha" operator="arithmetic" k2="-1" k3="1" result="shadowInnerInner1"></feComposite>
            <feColorMatrix values="0 0 0 0 0   0 0 0 0 0   0 0 0 0 0  0 0 0 0 0" type="matrix" in="shadowInnerInner1"></feColorMatrix>
        </filter>
        <linearGradient x1="100%" y1="45.0288126%" x2="0%" y2="54.9711874%" id="linearGradient-8">
            <stop stop-color="#00EAF7" offset="0%"></stop>
            <stop stop-color="#325BFF" offset="100%"></stop>
        </linearGradient>
        <linearGradient x1="93.5667072%" y1="0%" x2="6.43329279%" y2="100%" id="linearGradient-9">
            <stop stop-color="#00EAF7" offset="0%"></stop>
            <stop stop-color="#325BFF" offset="100%"></stop>
        </linearGradient>
        <linearGradient x1="100%" y1="45.050409%" x2="0%" y2="54.949591%" id="linearGradient-10">
            <stop stop-color="#00EAF7" offset="0%"></stop>
            <stop stop-color="#325BFF" offset="100%"></stop>
        </linearGradient>
        <path d="M51.1300706,23 L51.1300706,18.6054688 L52.8439378,18.6054688 C54.0695237,18.6054688 54.9960374,18.3295898 55.6234788,17.777832 C56.2509202,17.2260742 56.5646409,16.4106445 56.5646409,15.331543 C56.5646409,14.262207 56.2496995,13.4504395 55.6198167,12.8962402 C54.9899339,12.342041 54.0646409,12.0649414 52.8439378,12.0649414 L52.8439378,12.0649414 L49.6505784,12.0649414 L49.6505784,23 L51.1300706,23 Z M52.8439378,17.3896484 L51.1300706,17.3896484 L51.1300706,13.2807617 L52.8439378,13.2807617 C53.5324144,13.2807617 54.0670823,13.4602051 54.4479417,13.8190918 C54.8288011,14.1779785 55.0192308,14.6821289 55.0192308,15.331543 C55.0192308,15.980957 54.8275804,16.4863281 54.4442796,16.8476562 C54.0609788,17.2089844 53.5275315,17.3896484 52.8439378,17.3896484 L52.8439378,17.3896484 Z M65.6961388,23 L65.6961388,21.7548828 L60.4153771,21.7548828 L60.4153771,12.0649414 L58.9285607,12.0649414 L58.9285607,23 L65.6961388,23 Z M68.3017578,23 L69.0927734,20.1508789 L72.9233398,20.1508789 L73.7290039,23 L75.2597656,23 L71.9125977,12.0649414 L70.1181641,12.0649414 L66.7709961,23 L68.3017578,23 Z M72.5717773,18.9643555 L69.4516602,18.9643555 L71.0117188,13.3686523 L72.5717773,18.9643555 Z M80.8976112,23 L80.8976112,18.0927734 L84.405912,12.0649414 L82.8165565,12.0649414 L80.1578651,16.8916016 L77.4918495,12.0649414 L75.9171424,12.0649414 L79.4107948,18.0927734 L79.4107948,23 L80.8976112,23 Z" id="path-11"></path>
    </defs>
    <g id="Page-1-Copy" stroke="none" stroke-width="1" fill="none" fill-rule="evenodd">
        <g id="video_poster_bank">
            <rect id="Rectangle" fill="#000000" x="0" y="0" width="1405" height="770"></rect>
            <g id="Group" transform="translate(160.000000, 578.000000)">
                <g id="logo_acuvera-path" opacity="0.626046317">
                    <use fill="url(#linearGradient-2)" fill-rule="evenodd" xlink:href="#path-3"></use>
                    <use fill="black" fill-opacity="1" filter="url(#filter-4)" xlink:href="#path-3"></use>
                </g>
                <g id="logo_acuvera-path" opacity="0.601771763">
                    <use fill="url(#linearGradient-5)" fill-rule="evenodd" xlink:href="#path-6"></use>
                    <use fill="black" fill-opacity="1" filter="url(#filter-7)" xlink:href="#path-6"></use>
                </g>
            </g>
            <g id="Group-2" opacity="0.697986421" transform="translate(1120.000000, 608.000000)">
                <rect id="Rectangle" stroke="url(#linearGradient-8)" stroke-width="2.5" x="0" y="0" width="111" height="35" rx="17.5"></rect>
                <path d="M32,12 C32,12 35.1764438,13.7633502 41.5293314,17.2900507 L32,22.2086911 C32,15.402897 32,12 32,12 Z" id="Path" stroke="#979797" fill="url(#linearGradient-9)"></path>
                <g id="PLAY" fill-rule="nonzero">
                    <use fill="#FFFFFF" xlink:href="#path-11"></use>
                    <use fill="url(#linearGradient-10)" xlink:href="#path-11"></use>
                </g>
            </g>
            <path d="M124.7,136.375 C126.033333,136.375 127.229167,136.091667 128.2875,135.525 C129.345833,134.958333 130.170833,134.158333 130.7625,133.125 C131.354167,132.091667 131.65,130.9 131.65,129.55 L131.65,129.55 L131.65,118 L130.2,118 L130.2,129.275 C130.2,130.541667 129.916667,131.608333 129.35,132.475 C128.783333,133.341667 128.083333,133.979167 127.25,134.3875 C126.416667,134.795833 125.566667,135 124.7,135 C123.85,135 123.004167,134.795833 122.1625,134.3875 C121.320833,133.979167 120.616667,133.341667 120.05,132.475 C119.483333,131.608333 119.2,130.541667 119.2,129.275 L119.2,129.275 L119.2,118 L117.75,118 L117.75,129.55 C117.75,130.9 118.045833,132.091667 118.6375,133.125 C119.229167,134.158333 120.05,134.958333 121.1,135.525 C122.15,136.091667 123.35,136.375 124.7,136.375 Z M141.802756,136.375 C143.052756,136.375 144.16109,136.166667 145.127756,135.75 C146.094423,135.333333 146.84859,134.733333 147.390256,133.95 C147.931923,133.166667 148.202756,132.25 148.202756,131.2 C148.202756,130.166667 147.969423,129.333333 147.502756,128.7 C147.03609,128.066667 146.506923,127.604167 145.915256,127.3125 C145.32359,127.020833 144.677756,126.766667 143.977756,126.55 L143.977756,126.55 L140.352756,125.475 C139.33609,125.191667 138.515256,124.829167 137.890256,124.3875 C137.265256,123.945833 136.952756,123.291667 136.952756,122.425 C136.952756,121.775 137.144423,121.195833 137.527756,120.6875 C137.91109,120.179167 138.444423,119.775 139.127756,119.475 C139.81109,119.175 140.577756,119.025 141.427756,119.025 C142.794423,119.041667 143.956923,119.425 144.915256,120.175 C145.87359,120.925 146.444423,121.916667 146.627756,123.15 L146.627756,123.15 L148.127756,122.875 C147.944423,121.825 147.552756,120.904167 146.952756,120.1125 C146.352756,119.320833 145.577756,118.708333 144.627756,118.275 C143.677756,117.841667 142.61109,117.625 141.427756,117.625 C140.26109,117.625 139.227756,117.825 138.327756,118.225 C137.427756,118.625 136.719423,119.195833 136.202756,119.9375 C135.68609,120.679167 135.427756,121.525 135.427756,122.475 C135.427756,123.541667 135.74859,124.416667 136.390256,125.1 C137.031923,125.783333 137.969423,126.308333 139.202756,126.675 L139.202756,126.675 L143.727756,128.05 C144.61109,128.3 145.33609,128.658333 145.902756,129.125 C146.469423,129.591667 146.752756,130.291667 146.752756,131.225 C146.752756,132.358333 146.294423,133.266667 145.377756,133.95 C144.46109,134.633333 143.277756,134.975 141.827756,134.975 C140.394423,134.975 139.177756,134.629167 138.177756,133.9375 C137.177756,133.245833 136.51109,132.3 136.177756,131.1 L136.177756,131.1 L134.727756,131.35 C134.927756,132.366667 135.34859,133.254167 135.990256,134.0125 C136.631923,134.770833 137.452756,135.354167 138.452756,135.7625 C139.452756,136.170833 140.569423,136.375 141.802756,136.375 Z M163.155455,136 L163.155455,134.6 L153.480455,134.6 L153.480455,127.65 L161.655455,127.65 L161.655455,126.225 L153.480455,126.225 L153.480455,119.4 L163.155455,119.4 L163.155455,118 L152.030455,118 L152.030455,136 L163.155455,136 Z M180.885614,136.375 C182.935614,136.375 184.623114,135.845833 185.948114,134.7875 C187.273114,133.729167 188.17728,132.266667 188.660614,130.4 L188.660614,130.4 L187.160614,130.025 C186.760614,131.575 186.031447,132.7875 184.973114,133.6625 C183.91478,134.5375 182.55228,134.975 180.885614,134.975 C179.45228,134.975 178.235614,134.641667 177.235614,133.975 C176.235614,133.308333 175.485614,132.375 174.985614,131.175 C174.485614,129.975 174.235614,128.583333 174.235614,127 C174.268947,124.566667 174.85228,122.629167 175.985614,121.1875 C177.118947,119.745833 178.75228,119.025 180.885614,119.025 C182.55228,119.025 183.91478,119.4625 184.973114,120.3375 C186.031447,121.2125 186.760614,122.425 187.160614,123.975 L187.160614,123.975 L188.660614,123.6 C188.17728,121.733333 187.273114,120.270833 185.948114,119.2125 C184.623114,118.154167 182.935614,117.625 180.885614,117.625 C179.135614,117.625 177.648114,118.016667 176.423114,118.8 C175.198114,119.583333 174.273114,120.679167 173.648114,122.0875 C173.023114,123.495833 172.710614,125.133333 172.710614,127 C172.710614,128.866667 173.023114,130.504167 173.648114,131.9125 C174.273114,133.320833 175.198114,134.416667 176.423114,135.2 C177.648114,135.983333 179.135614,136.375 180.885614,136.375 Z M192.463205,136 L194.063,131.475 L202.331,131.475 L203.938205,136 L205.463205,136 L199.088205,118 L197.313205,118 L190.938205,136 L192.463205,136 Z M201.852,130.125 L194.541,130.125 L198.189,119.808 L201.852,130.125 Z M214.615657,136.375 C215.865657,136.375 216.97399,136.166667 217.940657,135.75 C218.907323,135.333333 219.66149,134.733333 220.203157,133.95 C220.744823,133.166667 221.015657,132.25 221.015657,131.2 C221.015657,130.166667 220.782323,129.333333 220.315657,128.7 C219.84899,128.066667 219.319823,127.604167 218.728157,127.3125 C218.13649,127.020833 217.490657,126.766667 216.790657,126.55 L216.790657,126.55 L213.165657,125.475 C212.14899,125.191667 211.328157,124.829167 210.703157,124.3875 C210.078157,123.945833 209.765657,123.291667 209.765657,122.425 C209.765657,121.775 209.957323,121.195833 210.340657,120.6875 C210.72399,120.179167 211.257323,119.775 211.940657,119.475 C212.62399,119.175 213.390657,119.025 214.240657,119.025 C215.607323,119.041667 216.769823,119.425 217.728157,120.175 C218.68649,120.925 219.257323,121.916667 219.440657,123.15 L219.440657,123.15 L220.940657,122.875 C220.757323,121.825 220.365657,120.904167 219.765657,120.1125 C219.165657,119.320833 218.390657,118.708333 217.440657,118.275 C216.490657,117.841667 215.42399,117.625 214.240657,117.625 C213.07399,117.625 212.040657,117.825 211.140657,118.225 C210.240657,118.625 209.532323,119.195833 209.015657,119.9375 C208.49899,120.679167 208.240657,121.525 208.240657,122.475 C208.240657,123.541667 208.56149,124.416667 209.203157,125.1 C209.844823,125.783333 210.782323,126.308333 212.015657,126.675 L212.015657,126.675 L216.540657,128.05 C217.42399,128.3 218.14899,128.658333 218.715657,129.125 C219.282323,129.591667 219.565657,130.291667 219.565657,131.225 C219.565657,132.358333 219.107323,133.266667 218.190657,133.95 C217.27399,134.633333 216.090657,134.975 214.640657,134.975 C213.207323,134.975 211.990657,134.629167 210.990657,133.9375 C209.990657,133.245833 209.32399,132.3 208.990657,131.1 L208.990657,131.1 L207.540657,131.35 C207.740657,132.366667 208.16149,133.254167 208.803157,134.0125 C209.444823,134.770833 210.265657,135.354167 211.265657,135.7625 C212.265657,136.170833 213.382323,136.375 214.615657,136.375 Z M235.968355,136 L235.968355,134.6 L226.293355,134.6 L226.293355,127.65 L234.468355,127.65 L234.468355,126.225 L226.293355,126.225 L226.293355,119.4 L235.968355,119.4 L235.968355,118 L224.843355,118 L224.843355,136 L235.968355,136 Z M243.070812,123.45 L243.070812,121.625 L241.245812,121.625 L241.245812,123.45 L243.070812,123.45 Z M243.070812,132.375 L243.070812,130.55 L241.245812,130.55 L241.245812,132.375 L243.070812,132.375 Z M123.875,170.375 C125.125,170.375 126.233333,170.166667 127.2,169.75 C128.166667,169.333333 128.920833,168.733333 129.4625,167.95 C130.004167,167.166667 130.275,166.25 130.275,165.2 C130.275,164.166667 130.041667,163.333333 129.575,162.7 C129.108333,162.066667 128.579167,161.604167 127.9875,161.3125 C127.395833,161.020833 126.75,160.766667 126.05,160.55 L126.05,160.55 L122.425,159.475 C121.408333,159.191667 120.5875,158.829167 119.9625,158.3875 C119.3375,157.945833 119.025,157.291667 119.025,156.425 C119.025,155.775 119.216667,155.195833 119.6,154.6875 C119.983333,154.179167 120.516667,153.775 121.2,153.475 C121.883333,153.175 122.65,153.025 123.5,153.025 C124.866667,153.041667 126.029167,153.425 126.9875,154.175 C127.945833,154.925 128.516667,155.916667 128.7,157.15 L128.7,157.15 L130.2,156.875 C130.016667,155.825 129.625,154.904167 129.025,154.1125 C128.425,153.320833 127.65,152.708333 126.7,152.275 C125.75,151.841667 124.683333,151.625 123.5,151.625 C122.333333,151.625 121.3,151.825 120.4,152.225 C119.5,152.625 118.791667,153.195833 118.275,153.9375 C117.758333,154.679167 117.5,155.525 117.5,156.475 C117.5,157.541667 117.820833,158.416667 118.4625,159.1 C119.104167,159.783333 120.041667,160.308333 121.275,160.675 L121.275,160.675 L125.8,162.05 C126.683333,162.3 127.408333,162.658333 127.975,163.125 C128.541667,163.591667 128.825,164.291667 128.825,165.225 C128.825,166.358333 128.366667,167.266667 127.45,167.95 C126.533333,168.633333 125.35,168.975 123.9,168.975 C122.466667,168.975 121.25,168.629167 120.25,167.9375 C119.25,167.245833 118.583333,166.3 118.25,165.1 L118.25,165.1 L116.8,165.35 C117,166.366667 117.420833,167.254167 118.0625,168.0125 C118.704167,168.770833 119.525,169.354167 120.525,169.7625 C121.525,170.170833 122.641667,170.375 123.875,170.375 Z M145.227698,170 L145.227698,168.6 L135.552698,168.6 L135.552698,161.65 L143.727698,161.65 L143.727698,160.225 L135.552698,160.225 L135.552698,153.4 L145.227698,153.4 L145.227698,152 L134.102698,152 L134.102698,170 L145.227698,170 Z M156.055156,170.375 C158.105156,170.375 159.792656,169.845833 161.117656,168.7875 C162.442656,167.729167 163.346822,166.266667 163.830156,164.4 L163.830156,164.4 L162.330156,164.025 C161.930156,165.575 161.200989,166.7875 160.142656,167.6625 C159.084322,168.5375 157.721822,168.975 156.055156,168.975 C154.621822,168.975 153.405156,168.641667 152.405156,167.975 C151.405156,167.308333 150.655156,166.375 150.155156,165.175 C149.655156,163.975 149.405156,162.583333 149.405156,161 C149.438489,158.566667 150.021822,156.629167 151.155156,155.1875 C152.288489,153.745833 153.921822,153.025 156.055156,153.025 C157.721822,153.025 159.084322,153.4625 160.142656,154.3375 C161.200989,155.2125 161.930156,156.425 162.330156,157.975 L162.330156,157.975 L163.830156,157.6 C163.346822,155.733333 162.442656,154.270833 161.117656,153.2125 C159.792656,152.154167 158.105156,151.625 156.055156,151.625 C154.305156,151.625 152.817656,152.016667 151.592656,152.8 C150.367656,153.583333 149.442656,154.679167 148.817656,156.0875 C148.192656,157.495833 147.880156,159.133333 147.880156,161 C147.880156,162.866667 148.192656,164.504167 148.817656,165.9125 C149.442656,167.320833 150.367656,168.416667 151.592656,169.2 C152.817656,169.983333 154.305156,170.375 156.055156,170.375 Z M174.807747,170.375 C176.141081,170.375 177.336914,170.091667 178.395247,169.525 C179.453581,168.958333 180.278581,168.158333 180.870247,167.125 C181.461914,166.091667 181.757747,164.9 181.757747,163.55 L181.757747,163.55 L181.757747,152 L180.307747,152 L180.307747,163.275 C180.307747,164.541667 180.024414,165.608333 179.457747,166.475 C178.891081,167.341667 178.191081,167.979167 177.357747,168.3875 C176.524414,168.795833 175.674414,169 174.807747,169 C173.957747,169 173.111914,168.795833 172.270247,168.3875 C171.428581,167.979167 170.724414,167.341667 170.157747,166.475 C169.591081,165.608333 169.307747,164.541667 169.307747,163.275 L169.307747,163.275 L169.307747,152 L167.857747,152 L167.857747,163.55 C167.857747,164.9 168.153581,166.091667 168.745247,167.125 C169.336914,168.158333 170.157747,168.958333 171.207747,169.525 C172.257747,170.091667 173.457747,170.375 174.807747,170.375 Z M187.985504,170 L187.985504,162.975 L194.205,162.975 L197.610504,170 L199.310504,170 L195.687,162.568 L195.830402,162.510714 C196.529892,162.210714 197.124343,161.766071 197.613756,161.176786 L197.773004,160.975 C198.498004,160.008333 198.860504,158.85 198.860504,157.5 C198.860504,156.1 198.473004,154.9 197.698004,153.9 C196.923004,152.9 195.868837,152.3 194.535504,152.1 C194.135504,152.033333 193.735504,152 193.335504,152 L193.335504,152 L186.535504,152 L186.535504,170 L187.985504,170 Z M193.310504,161.575 L187.985504,161.575 L187.985504,153.4 L193.310504,153.4 C193.693837,153.4 194.060504,153.433333 194.410504,153.5 C195.343837,153.7 196.06467,154.170833 196.573004,154.9125 C197.081337,155.654167 197.335504,156.516667 197.335504,157.5 C197.335504,158.466667 197.081337,159.320833 196.573004,160.0625 C196.06467,160.804167 195.343837,161.275 194.410504,161.475 C194.07717,161.541667 193.710504,161.575 193.310504,161.575 L193.310504,161.575 Z M214.462955,170 L214.462955,168.6 L204.787955,168.6 L204.787955,161.65 L212.962955,161.65 L212.962955,160.225 L204.787955,160.225 L204.787955,153.4 L214.462955,153.4 L214.462955,152 L203.337955,152 L203.337955,170 L214.462955,170 Z M232.443114,170 C233.459781,170 234.368114,169.804167 235.168114,169.4125 C235.968114,169.020833 236.593114,168.45 237.043114,167.7 C237.493114,166.95 237.718114,166.066667 237.718114,165.05 C237.718114,163.85 237.376447,162.825 236.693114,161.975 C236.180614,161.3375 235.522801,160.835938 234.719676,160.470312 L234.618,160.428 L234.787329,160.328512 C235.199725,160.070661 235.560056,159.742149 235.86832,159.342975 L236.018114,159.1375 C236.551447,158.3625 236.818114,157.491667 236.818114,156.525 C236.818114,155.675 236.605614,154.904167 236.180614,154.2125 C235.755614,153.520833 235.168114,152.979167 234.418114,152.5875 C233.668114,152.195833 232.834781,152 231.918114,152 L231.918114,152 L225.018114,152 L225.018114,170 L232.443114,170 Z M231.893114,159.825 L226.468114,159.825 L226.468114,153.375 L231.893114,153.375 C232.876447,153.375 233.693114,153.6625 234.343114,154.2375 C234.993114,154.8125 235.318114,155.558333 235.318114,156.475 C235.318114,157.108333 235.163947,157.679167 234.855614,158.1875 C234.547281,158.695833 234.130614,159.095833 233.605614,159.3875 C233.080614,159.679167 232.509781,159.825 231.893114,159.825 L231.893114,159.825 Z M231.968114,168.6 L226.468114,168.6 L226.468114,161.225 L232.368114,161.225 C233.068114,161.225 233.709781,161.395833 234.293114,161.7375 C234.876447,162.079167 235.338947,162.55 235.680614,163.15 C236.022281,163.75 236.193114,164.4 236.193114,165.1 C236.193114,166.183333 235.793114,167.0375 234.993114,167.6625 C234.193114,168.2875 233.184781,168.6 231.968114,168.6 L231.968114,168.6 Z M241.745757,170 L243.345,165.475 L251.613,165.475 L253.220757,170 L254.745757,170 L248.370757,152 L246.595757,152 L240.220757,170 L241.745757,170 Z M251.134,164.125 L243.823,164.125 L247.471,153.808 L251.134,164.125 Z M259.723209,170 L259.723209,154.55 L270.148209,170 L271.598209,170 L271.598209,152 L270.148209,152 L270.148209,167.425 L259.723209,152 L258.273209,152 L258.273209,170 L259.723209,170 Z M277.825709,170 L277.825709,160.8 L287.100709,170 L289.025709,170 L279.675709,160.65 L288.275709,152 L286.375709,152 L277.825709,160.55 L277.825709,152 L276.375709,152 L276.375709,170 L277.825709,170 Z M305.005907,170.375 C307.055907,170.375 308.743407,169.845833 310.068407,168.7875 C311.393407,167.729167 312.297574,166.266667 312.780907,164.4 L312.780907,164.4 L311.280907,164.025 C310.880907,165.575 310.151741,166.7875 309.093407,167.6625 C308.035074,168.5375 306.672574,168.975 305.005907,168.975 C303.572574,168.975 302.355907,168.641667 301.355907,167.975 C300.355907,167.308333 299.605907,166.375 299.105907,165.175 C298.605907,163.975 298.355907,162.583333 298.355907,161 C298.389241,158.566667 298.972574,156.629167 300.105907,155.1875 C301.239241,153.745833 302.872574,153.025 305.005907,153.025 C306.672574,153.025 308.035074,153.4625 309.093407,154.3375 C310.151741,155.2125 310.880907,156.425 311.280907,157.975 L311.280907,157.975 L312.780907,157.6 C312.297574,155.733333 311.393407,154.270833 310.068407,153.2125 C308.743407,152.154167 307.055907,151.625 305.005907,151.625 C303.255907,151.625 301.768407,152.016667 300.543407,152.8 C299.318407,153.583333 298.393407,154.679167 297.768407,156.0875 C297.143407,157.495833 296.830907,159.133333 296.830907,161 C296.830907,162.866667 297.143407,164.504167 297.768407,165.9125 C298.393407,167.320833 299.318407,168.416667 300.543407,169.2 C301.768407,169.983333 303.255907,170.375 305.005907,170.375 Z M316.583499,170 L318.183,165.475 L326.451,165.475 L328.058499,170 L329.583499,170 L323.208499,152 L321.433499,152 L315.058499,170 L316.583499,170 Z M325.972,164.125 L318.661,164.125 L322.309,153.808 L325.972,164.125 Z M334.56095,170 L334.56095,162.975 L340.78,162.975 L344.18595,170 L345.88595,170 L342.262,162.568 L342.405848,162.510714 C343.105338,162.210714 343.699789,161.766071 344.189203,161.176786 L344.34845,160.975 C345.07345,160.008333 345.43595,158.85 345.43595,157.5 C345.43595,156.1 345.04845,154.9 344.27345,153.9 C343.49845,152.9 342.444283,152.3 341.11095,152.1 C340.71095,152.033333 340.31095,152 339.91095,152 L339.91095,152 L333.11095,152 L333.11095,170 L334.56095,170 Z M339.88595,161.575 L334.56095,161.575 L334.56095,153.4 L339.88595,153.4 C340.269283,153.4 340.63595,153.433333 340.98595,153.5 C341.919283,153.7 342.640117,154.170833 343.14845,154.9125 C343.656783,155.654167 343.91095,156.516667 343.91095,157.5 C343.91095,158.466667 343.656783,159.320833 343.14845,160.0625 C342.640117,160.804167 341.919283,161.275 340.98595,161.475 C340.652617,161.541667 340.28595,161.575 339.88595,161.575 L339.88595,161.575 Z M355.288401,170 C356.288401,170 357.071735,169.958333 357.638401,169.875 C358.938401,169.691667 360.042568,169.195833 360.950901,168.3875 C361.859235,167.579167 362.538401,166.5375 362.988401,165.2625 C363.438401,163.9875 363.663401,162.566667 363.663401,161 C363.663401,159.433333 363.438401,158.016667 362.988401,156.75 C362.538401,155.483333 361.859235,154.441667 360.950901,153.625 C360.042568,152.808333 358.938401,152.308333 357.638401,152.125 C357.055068,152.041667 356.271735,152 355.288401,152 L355.288401,152 L349.913401,152 L349.913401,170 L355.288401,170 Z M355.288401,168.6 L351.438401,168.6 L351.438401,153.4 L355.288401,153.4 C356.205068,153.4 356.930068,153.45 357.463401,153.55 C359.063401,153.833333 360.238401,154.633333 360.988401,155.95 C361.738401,157.266667 362.113401,158.95 362.113401,161 C362.113401,163.033333 361.738401,164.7125 360.988401,166.0375 C360.238401,167.3625 359.063401,168.166667 357.463401,168.45 C356.930068,168.55 356.205068,168.6 355.288401,168.6 L355.288401,168.6 Z M118.025,204 L119.625,199.475 L127.893,199.475 L129.5,204 L131.025,204 L124.65,186 L122.875,186 L116.5,204 L118.025,204 Z M127.414,198.125 L120.103,198.125 L123.751,187.808 L127.414,198.125 Z M136.002451,204 L136.002451,188.55 L146.427451,204 L147.877451,204 L147.877451,186 L146.427451,186 L146.427451,201.425 L136.002451,186 L134.552451,186 L134.552451,204 L136.002451,204 Z M158.029951,204 C159.029951,204 159.813285,203.958333 160.379951,203.875 C161.679951,203.691667 162.784118,203.195833 163.692451,202.3875 C164.600785,201.579167 165.279951,200.5375 165.729951,199.2625 C166.179951,197.9875 166.404951,196.566667 166.404951,195 C166.404951,193.433333 166.179951,192.016667 165.729951,190.75 C165.279951,189.483333 164.600785,188.441667 163.692451,187.625 C162.784118,186.808333 161.679951,186.308333 160.379951,186.125 C159.796618,186.041667 159.013285,186 158.029951,186 L158.029951,186 L152.654951,186 L152.654951,204 L158.029951,204 Z M158.029951,202.6 L154.179951,202.6 L154.179951,187.4 L158.029951,187.4 C158.946618,187.4 159.671618,187.45 160.204951,187.55 C161.804951,187.833333 162.979951,188.633333 163.729951,189.95 C164.479951,191.266667 164.854951,192.95 164.854951,195 C164.854951,197.033333 164.479951,198.7125 163.729951,200.0375 C162.979951,201.3625 161.804951,202.166667 160.204951,202.45 C159.671618,202.55 158.946618,202.6 158.029951,202.6 L158.029951,202.6 Z M178.210113,204 L178.210113,196.975 L183.560113,196.975 C183.960113,196.975 184.360113,196.941667 184.760113,196.875 C186.093447,196.675 187.147613,196.079167 187.922613,195.0875 C188.697613,194.095833 189.085113,192.9 189.085113,191.5 C189.085113,190.1 188.697613,188.9 187.922613,187.9 C187.147613,186.9 186.093447,186.3 184.760113,186.1 C184.360113,186.033333 183.960113,186 183.560113,186 L183.560113,186 L176.760113,186 L176.760113,204 L178.210113,204 Z M183.535113,195.575 L178.210113,195.575 L178.210113,187.4 L183.535113,187.4 C183.918447,187.4 184.285113,187.433333 184.635113,187.5 C185.568447,187.7 186.28928,188.170833 186.797613,188.9125 C187.305947,189.654167 187.560113,190.516667 187.560113,191.5 C187.560113,192.466667 187.305947,193.320833 186.797613,194.0625 C186.28928,194.804167 185.568447,195.275 184.635113,195.475 C184.30178,195.541667 183.935113,195.575 183.535113,195.575 L183.535113,195.575 Z M194.562567,204 L194.562567,186 L193.112567,186 L193.112567,204 L194.562567,204 Z M201.040022,204 L201.040022,188.55 L211.465022,204 L212.915022,204 L212.915022,186 L211.465022,186 L211.465022,201.425 L201.040022,186 L199.590022,186 L199.590022,204 L201.040022,204 Z M229.345223,204 C230.345223,204 231.128557,203.958333 231.695223,203.875 C232.995223,203.691667 234.09939,203.195833 235.007723,202.3875 C235.916057,201.579167 236.595223,200.5375 237.045223,199.2625 C237.495223,197.9875 237.720223,196.566667 237.720223,195 C237.720223,193.433333 237.495223,192.016667 237.045223,190.75 C236.595223,189.483333 235.916057,188.441667 235.007723,187.625 C234.09939,186.808333 232.995223,186.308333 231.695223,186.125 C231.11189,186.041667 230.328557,186 229.345223,186 L229.345223,186 L223.970223,186 L223.970223,204 L229.345223,204 Z M229.345223,202.6 L225.495223,202.6 L225.495223,187.4 L229.345223,187.4 C230.26189,187.4 230.98689,187.45 231.520223,187.55 C233.120223,187.833333 234.295223,188.633333 235.045223,189.95 C235.795223,191.266667 236.170223,192.95 236.170223,195 C236.170223,197.033333 235.795223,198.7125 235.045223,200.0375 C234.295223,201.3625 233.120223,202.166667 231.520223,202.45 C230.98689,202.55 230.26189,202.6 229.345223,202.6 L229.345223,202.6 Z M252.922684,204 L252.922684,202.6 L243.247684,202.6 L243.247684,195.65 L251.422684,195.65 L251.422684,194.225 L243.247684,194.225 L243.247684,187.4 L252.922684,187.4 L252.922684,186 L241.797684,186 L241.797684,204 L252.922684,204 Z M267.650141,204 L267.650141,202.6 L258.900141,202.6 L258.900141,186 L257.450141,186 L257.450141,204 L267.650141,204 Z M272.752687,204 L272.752687,186 L271.302687,186 L271.302687,204 L272.752687,204 Z M284.305141,204 L290.680141,186 L289.155141,186 L283.405141,202.2 L277.680141,186 L276.155141,186 L282.530141,204 L284.305141,204 Z M304.957623,204 L304.957623,202.6 L295.282623,202.6 L295.282623,195.65 L303.457623,195.65 L303.457623,194.225 L295.282623,194.225 L295.282623,187.4 L304.957623,187.4 L304.957623,186 L293.832623,186 L293.832623,204 L304.957623,204 Z M310.68508,204 L310.68508,196.975 L316.905,196.975 L320.31008,204 L322.01008,204 L318.387,196.568 L318.529978,196.510714 C319.229468,196.210714 319.82392,195.766071 320.313333,195.176786 L320.47258,194.975 C321.19758,194.008333 321.56008,192.85 321.56008,191.5 C321.56008,190.1 321.17258,188.9 320.39758,187.9 C319.62258,186.9 318.568414,186.3 317.23508,186.1 C316.83508,186.033333 316.43508,186 316.03508,186 L316.03508,186 L309.23508,186 L309.23508,204 L310.68508,204 Z M316.01008,195.575 L310.68508,195.575 L310.68508,187.4 L316.01008,187.4 C316.393414,187.4 316.76008,187.433333 317.11008,187.5 C318.043414,187.7 318.764247,188.170833 319.27258,188.9125 C319.780914,189.654167 320.03508,190.516667 320.03508,191.5 C320.03508,192.466667 319.780914,193.320833 319.27258,194.0625 C318.764247,194.804167 318.043414,195.275 317.11008,195.475 C316.776747,195.541667 316.41008,195.575 316.01008,195.575 L316.01008,195.575 Z M331.462532,204 L331.462532,196.4 L337.462532,186 L335.787532,186 L330.737532,194.75 L325.687532,186 L324.012532,186 L330.012532,196.4 L330.012532,204 L331.462532,204 Z" id="USECASE:SECUREBANKCARDANDPINDELIVERY" fill="#FFFFFF" fill-rule="nonzero"></path>
        </g>
    </g>
</svg>