<?xml version="1.0" encoding="UTF-8"?>
<svg width="1683px" height="1033px" viewBox="0 0 1683 1033" version="1.1" xmlns="http://www.w3.org/2000/svg" xmlns:xlink="http://www.w3.org/1999/xlink">
    <!-- Generator: Sketch 61 (89581) - https://sketch.com -->
    <title>video_poster</title>
    <desc>Created with Sketch.</desc>
    <defs>
        <linearGradient x1="103.162316%" y1="86.5473%" x2="4.47098415%" y2="13.2052354%" id="linearGradient-1">
            <stop stop-color="#000000" offset="0%"></stop>
            <stop stop-color="#1B1B1B" offset="100%"></stop>
        </linearGradient>
        <linearGradient x1="100%" y1="22.8310204%" x2="0%" y2="77.1689796%" id="linearGradient-2">
            <stop stop-color="#00EAF7" offset="0%"></stop>
            <stop stop-color="#325BFF" offset="100%"></stop>
        </linearGradient>
        <linearGradient x1="100%" y1="49.7419573%" x2="0%" y2="50.2580427%" id="linearGradient-3">
            <stop stop-color="#00EAF7" offset="0%"></stop>
            <stop stop-color="#325BFF" offset="100%"></stop>
        </linearGradient>
        <polygon id="path-4" points="174.51656 123.27175 174.51656 126.646625 89.25656 126.646625 89.25656 123.27175"></polygon>
        <filter x="-10.0%" y="-116.3%" width="119.9%" height="332.7%" filterUnits="objectBoundingBox" id="filter-5">
            <feMorphology radius="3" operator="erode" in="SourceAlpha" result="shadowSpreadInner1"></feMorphology>
            <feGaussianBlur stdDeviation="6.5" in="shadowSpreadInner1" result="shadowBlurInner1"></feGaussianBlur>
            <feOffset dx="0" dy="1" in="shadowBlurInner1" result="shadowOffsetInner1"></feOffset>
            <feComposite in="shadowOffsetInner1" in2="SourceAlpha" operator="arithmetic" k2="-1" k3="1" result="shadowInnerInner1"></feComposite>
            <feColorMatrix values="0 0 0 0 0   0 0 0 0 0   0 0 0 0 0  0 0 0 0 0" type="matrix" in="shadowInnerInner1"></feColorMatrix>
        </filter>
        <linearGradient x1="82.4208503%" y1="0%" x2="17.5791497%" y2="100%" id="linearGradient-6">
            <stop stop-color="#00EAF7" offset="0%"></stop>
            <stop stop-color="#325BFF" offset="100%"></stop>
        </linearGradient>
        <polygon id="path-7" points="-6.68478606e-13 3.20312665e-13 76.37875 45.82725 76.37875 49.0245 -6.68478606e-13 94.85175 -6.68478606e-13 90.766375 72.293375 47.6035 72.293375 47.24825 -6.68478606e-13 4.085375"></polygon>
        <filter x="-11.1%" y="-9.0%" width="122.3%" height="117.9%" filterUnits="objectBoundingBox" id="filter-8">
            <feMorphology radius="3" operator="erode" in="SourceAlpha" result="shadowSpreadInner1"></feMorphology>
            <feGaussianBlur stdDeviation="6.5" in="shadowSpreadInner1" result="shadowBlurInner1"></feGaussianBlur>
            <feOffset dx="0" dy="1" in="shadowBlurInner1" result="shadowOffsetInner1"></feOffset>
            <feComposite in="shadowOffsetInner1" in2="SourceAlpha" operator="arithmetic" k2="-1" k3="1" result="shadowInnerInner1"></feComposite>
            <feColorMatrix values="0 0 0 0 0   0 0 0 0 0   0 0 0 0 0  0 0 0 0 0" type="matrix" in="shadowInnerInner1"></feColorMatrix>
        </filter>
    </defs>
    <g id="Page-1" stroke="none" stroke-width="1" fill="none" fill-rule="evenodd">
        <g id="video_poster">
            <rect id="Rectangle" fill="url(#linearGradient-1)" x="0" y="0" width="1683" height="1033"></rect>
            <g id="Group" transform="translate(754.000000, 452.000000)">
                <g id="logo_acuvera-path" opacity="0.626046317">
                    <use fill="url(#linearGradient-3)" fill-rule="evenodd" xlink:href="#path-4"></use>
                    <use fill="black" fill-opacity="1" filter="url(#filter-5)" xlink:href="#path-4"></use>
                </g>
                <g id="logo_acuvera-path" opacity="0.601771763">
                    <use fill="url(#linearGradient-6)" fill-rule="evenodd" xlink:href="#path-7"></use>
                    <use fill="black" fill-opacity="1" filter="url(#filter-8)" xlink:href="#path-7"></use>
                </g>
            </g>
            <g id="Group-2" opacity="0.697986421" transform="translate(76.000000, 76.000000)">
                <rect id="Rectangle" stroke="#FFFFFF" stroke-width="0.5" x="0" y="0" width="111" height="35" rx="17.5"></rect>
                <path d="M32,12 C32,12 35.1764438,13.7633502 41.5293314,17.2900507 L32,22.2086911 C32,15.402897 32,12 32,12 Z" id="Path" stroke="#979797" fill="#B5B5B5"></path>
                <path d="M51.1300706,23 L51.1300706,18.6054688 L52.8439378,18.6054688 C54.0695237,18.6054688 54.9960374,18.3295898 55.6234788,17.777832 C56.2509202,17.2260742 56.5646409,16.4106445 56.5646409,15.331543 C56.5646409,14.262207 56.2496995,13.4504395 55.6198167,12.8962402 C54.9899339,12.342041 54.0646409,12.0649414 52.8439378,12.0649414 L52.8439378,12.0649414 L49.6505784,12.0649414 L49.6505784,23 L51.1300706,23 Z M52.8439378,17.3896484 L51.1300706,17.3896484 L51.1300706,13.2807617 L52.8439378,13.2807617 C53.5324144,13.2807617 54.0670823,13.4602051 54.4479417,13.8190918 C54.8288011,14.1779785 55.0192308,14.6821289 55.0192308,15.331543 C55.0192308,15.980957 54.8275804,16.4863281 54.4442796,16.8476562 C54.0609788,17.2089844 53.5275315,17.3896484 52.8439378,17.3896484 L52.8439378,17.3896484 Z M65.6961388,23 L65.6961388,21.7548828 L60.4153771,21.7548828 L60.4153771,12.0649414 L58.9285607,12.0649414 L58.9285607,23 L65.6961388,23 Z M68.3017578,23 L69.0927734,20.1508789 L72.9233398,20.1508789 L73.7290039,23 L75.2597656,23 L71.9125977,12.0649414 L70.1181641,12.0649414 L66.7709961,23 L68.3017578,23 Z M72.5717773,18.9643555 L69.4516602,18.9643555 L71.0117188,13.3686523 L72.5717773,18.9643555 Z M80.8976112,23 L80.8976112,18.0927734 L84.405912,12.0649414 L82.8165565,12.0649414 L80.1578651,16.8916016 L77.4918495,12.0649414 L75.9171424,12.0649414 L79.4107948,18.0927734 L79.4107948,23 L80.8976112,23 Z" id="PLAY" fill="#FFFFFF" fill-rule="nonzero"></path>
            </g>
            <path d="M104.201172,866.091797 L109.083984,852.771484 L107.53125,852.771484 L103.566406,864.294922 L103.517578,864.294922 L99.5429688,852.771484 L98,852.771484 L102.84375,866.091797 L104.201172,866.091797 Z M110.429237,866.091797 L111.864784,861.892578 L117.030799,861.892578 L118.476112,866.091797 L119.901893,866.091797 L115.126502,852.771484 L113.778846,852.771484 L108.99369,866.091797 L110.429237,866.091797 Z M116.640174,860.769531 L112.255409,860.769531 L114.433143,854.460938 L114.472206,854.460938 L116.640174,860.769531 Z M125.241286,866.091797 L125.241286,854.011719 L129.401442,854.011719 L129.401442,852.771484 L119.743239,852.771484 L119.743239,854.011719 L123.89363,854.011719 L123.89363,866.091797 L125.241286,866.091797 Z M137.082181,866.091797 L137.082181,860.623047 L140.588041,860.623047 L143.185697,866.091797 L144.757963,866.091797 L141.955228,860.339844 C143.244291,859.919922 144.523588,858.816406 144.523588,856.658203 C144.523588,854.578125 143.185697,852.771484 140.353666,852.771484 L135.714994,852.771484 L135.714994,866.091797 L137.082181,866.091797 Z M140.119291,859.382812 L137.082181,859.382812 L137.082181,854.011719 L140.177885,854.011719 C141.97476,854.011719 143.117338,854.96875 143.117338,856.746094 C143.117338,858.416016 142.072416,859.382812 140.119291,859.382812 Z M151.152043,866.257812 C153.378606,866.257812 154.6872,864.988281 155.038762,863.40625 L153.671575,863.40625 C153.36884,864.373047 152.558293,865.095703 151.191106,865.095703 C149.384465,865.095703 148.320012,863.689453 148.320012,861.550781 L148.320012,861.306641 L155.185246,861.306641 L155.185246,860.457031 C155.185246,857.585938 153.661809,855.710938 151.073918,855.710938 C148.456731,855.710938 146.96259,857.595703 146.96259,860.349609 L146.96259,861.511719 C146.96259,864.402344 148.534856,866.257812 151.152043,866.257812 Z M153.827825,860.134766 L148.320012,860.134766 L148.320012,860.105469 C148.320012,858.25 149.394231,856.882812 151.073918,856.882812 C152.734075,856.882812 153.827825,858.25 153.827825,860.105469 L153.827825,860.134766 Z M159.928936,866.091797 L159.928936,857.039062 L162.087139,857.039062 L162.087139,855.886719 L159.928936,855.886719 L159.928936,854.871094 C159.928936,853.5625 160.495343,853.162109 161.647686,853.162109 C161.901593,853.162109 162.067608,853.191406 162.223858,853.210938 L162.223858,852.068359 C162.057843,852.039062 161.803936,852 161.501202,852 C159.538311,852 158.591046,852.859375 158.591046,854.783203 L158.591046,855.886719 L157.155499,855.886719 L157.155499,857.039062 L158.591046,857.039062 L158.591046,866.091797 L159.928936,866.091797 Z M168.01247,866.257812 C169.701923,866.257812 170.688251,865.476562 171.049579,864.636719 L171.108173,864.636719 L171.108173,866.091797 L172.455829,866.091797 L172.455829,855.886719 L171.098407,855.886719 L171.098407,862.185547 C171.098407,863.884766 170.024189,865.017578 168.354267,865.017578 C166.879657,865.017578 165.756611,864.285156 165.756611,862.361328 L165.756611,855.886719 L164.408954,855.886719 L164.408954,862.742188 C164.408954,865.066406 165.932392,866.257812 168.01247,866.257812 Z M177.082332,866.091797 L177.082332,859.841797 C177.082332,858.347656 177.922175,856.951172 179.836238,856.951172 C181.457332,856.951172 182.482722,857.966797 182.482722,859.714844 L182.482722,866.091797 L183.830379,866.091797 L183.830379,859.519531 C183.830379,857.048828 182.277644,855.710938 180.178035,855.710938 C178.46905,855.710938 177.502254,856.619141 177.121394,857.351562 L177.082332,857.351562 L177.082332,855.886719 L175.734675,855.886719 L175.734675,866.091797 L177.082332,866.091797 Z M190.605319,866.248047 C192.167819,866.248047 193.202975,865.408203 193.701022,864.451172 L193.740084,864.451172 L193.740084,866.091797 L195.019381,866.091797 L195.019381,852.058594 L193.671725,852.058594 L193.671725,857.419922 L193.632662,857.419922 C193.163912,856.541016 192.11899,855.710938 190.605319,855.710938 C188.12485,855.710938 186.542819,857.634766 186.542819,860.417969 L186.542819,861.550781 C186.542819,864.34375 187.997897,866.248047 190.605319,866.248047 Z M190.742037,865.046875 C189.101412,865.046875 187.890475,863.845703 187.890475,861.492188 L187.890475,860.496094 C187.890475,858.083984 189.130709,856.921875 190.71274,856.921875 C192.558444,856.921875 193.701022,858.376953 193.701022,860.486328 L193.701022,861.501953 C193.701022,863.669922 192.597506,865.046875 190.742037,865.046875 Z M201.423227,866.257812 C203.698618,866.257812 205.358774,865.183594 205.358774,863.171875 C205.358774,861.160156 203.688852,860.701172 201.804087,860.330078 C200.505258,860.056641 199.245493,859.773438 199.245493,858.582031 C199.245493,857.439453 200.222055,856.873047 201.520883,856.873047 C203.259165,856.873047 203.796274,857.898438 203.835337,858.689453 L205.114633,858.689453 C205.114633,857.15625 203.991587,855.710938 201.569712,855.710938 C199.626352,855.710938 197.917368,856.667969 197.917368,858.71875 C197.917368,860.525391 199.43104,861.082031 201.354868,861.511719 C202.917368,861.84375 204.020883,862.097656 204.020883,863.318359 C204.020883,864.34375 203.151743,865.105469 201.520883,865.105469 C199.948618,865.105469 199.138071,864.324219 199.020883,863.396484 L197.692758,863.396484 C197.692758,865.085938 199.138071,866.257812 201.423227,866.257812 Z M208.86223,859.177734 C209.399339,859.177734 209.848558,858.738281 209.848558,858.191406 C209.848558,857.644531 209.399339,857.205078 208.86223,857.205078 C208.315355,857.205078 207.875901,857.644531 207.875901,858.191406 C207.875901,858.738281 208.315355,859.177734 208.86223,859.177734 Z M208.86223,866.21875 C209.399339,866.21875 209.848558,865.779297 209.848558,865.232422 C209.848558,864.695312 209.399339,864.246094 208.86223,864.246094 C208.315355,864.246094 207.875901,864.695312 207.875901,865.232422 C207.875901,865.779297 208.315355,866.21875 208.86223,866.21875 Z M99.5039062,890.091797 L100.939453,885.892578 L106.105469,885.892578 L107.550781,890.091797 L108.976562,890.091797 L104.201172,876.771484 L102.853516,876.771484 L98.0683594,890.091797 L99.5039062,890.091797 Z M105.714844,884.769531 L101.330078,884.769531 L103.507812,878.460938 L103.546875,878.460938 L105.714844,884.769531 Z M120.153395,890.384766 C123.258864,890.384766 125.094802,888.421875 125.094802,885.638672 L125.094802,876.771484 L123.747145,876.771484 L123.747145,885.472656 C123.747145,887.699219 122.370192,889.134766 120.153395,889.134766 C117.936599,889.134766 116.559645,887.689453 116.559645,885.472656 L116.559645,876.771484 L115.211989,876.771484 L115.211989,885.638672 C115.211989,888.421875 117.047927,890.384766 120.153395,890.384766 Z M131.440054,890.257812 C133.715445,890.257812 135.375601,889.183594 135.375601,887.171875 C135.375601,885.160156 133.705679,884.701172 131.820913,884.330078 C130.522085,884.056641 129.26232,883.773438 129.26232,882.582031 C129.26232,881.439453 130.238882,880.873047 131.53771,880.873047 C133.275992,880.873047 133.813101,881.898438 133.852163,882.689453 L135.13146,882.689453 C135.13146,881.15625 134.008413,879.710938 131.586538,879.710938 C129.643179,879.710938 127.934195,880.667969 127.934195,882.71875 C127.934195,884.525391 129.447867,885.082031 131.371695,885.511719 C132.934195,885.84375 134.03771,886.097656 134.03771,887.318359 C134.03771,888.34375 133.16857,889.105469 131.53771,889.105469 C129.965445,889.105469 129.154898,888.324219 129.03771,887.396484 L127.709585,887.396484 C127.709585,889.085938 129.154898,890.257812 131.440054,890.257812 Z M141.81851,890.257812 C144.045072,890.257812 145.353666,888.988281 145.705228,887.40625 L144.338041,887.40625 C144.035306,888.373047 143.22476,889.095703 141.857572,889.095703 C140.050931,889.095703 138.986478,887.689453 138.986478,885.550781 L138.986478,885.306641 L145.851713,885.306641 L145.851713,884.457031 C145.851713,881.585938 144.328275,879.710938 141.740385,879.710938 C139.123197,879.710938 137.629056,881.595703 137.629056,884.349609 L137.629056,885.511719 C137.629056,888.402344 139.201322,890.257812 141.81851,890.257812 Z M144.494291,884.134766 L138.986478,884.134766 L138.986478,884.105469 C138.986478,882.25 140.060697,880.882812 141.740385,880.882812 C143.400541,880.882812 144.494291,882.25 144.494291,884.105469 L144.494291,884.134766 Z M152.402043,890.257812 C154.77509,890.257812 155.966496,888.958984 156.278996,887.357422 L154.941106,887.357422 C154.745793,888.236328 153.954778,889.027344 152.509465,889.027344 C150.732121,889.027344 149.599309,887.669922 149.599309,885.511719 L149.599309,884.457031 C149.599309,882.240234 150.683293,880.941406 152.480168,880.941406 C153.769231,880.941406 154.648137,881.830078 154.872746,882.787109 L156.220403,882.787109 C156.122746,881.292969 154.745793,879.710938 152.392278,879.710938 C149.823918,879.710938 148.251653,881.595703 148.251653,884.369141 L148.251653,885.521484 C148.251653,888.255859 149.765325,890.257812 152.402043,890.257812 Z M161.667218,890.257812 C163.288311,890.257812 164.245343,889.515625 164.704327,888.724609 L164.743389,888.724609 L164.743389,890.091797 L166.051983,890.091797 L166.051983,882.962891 C166.051983,880.882812 164.538311,879.710938 162.409405,879.710938 C160.065655,879.710938 158.864483,880.941406 158.73753,882.689453 L160.016827,882.689453 C160.153546,881.595703 160.92503,880.882812 162.360577,880.882812 C163.835186,880.882812 164.704327,881.654297 164.704327,883.128906 L164.704327,884.28125 L161.882061,884.28125 C159.557843,884.291016 158.337139,885.423828 158.337139,887.181641 C158.337139,889.046875 159.694561,890.257812 161.667218,890.257812 Z M161.979718,889.095703 C160.778546,889.095703 159.733624,888.441406 159.733624,887.142578 C159.733624,886.117188 160.387921,885.384766 161.930889,885.384766 L164.704327,885.384766 L164.704327,886.683594 C164.704327,888.109375 163.522686,889.095703 161.979718,889.095703 Z M172.338642,890.257812 C174.614032,890.257812 176.274189,889.183594 176.274189,887.171875 C176.274189,885.160156 174.604267,884.701172 172.719501,884.330078 C171.420673,884.056641 170.160907,883.773438 170.160907,882.582031 C170.160907,881.439453 171.13747,880.873047 172.436298,880.873047 C174.174579,880.873047 174.711689,881.898438 174.750751,882.689453 L176.030048,882.689453 C176.030048,881.15625 174.907001,879.710938 172.485126,879.710938 C170.541767,879.710938 168.832782,880.667969 168.832782,882.71875 C168.832782,884.525391 170.346454,885.082031 172.270282,885.511719 C173.832782,885.84375 174.936298,886.097656 174.936298,887.318359 C174.936298,888.34375 174.067157,889.105469 172.436298,889.105469 C170.864032,889.105469 170.053486,888.324219 169.936298,887.396484 L168.608173,887.396484 C168.608173,889.085938 170.053486,890.257812 172.338642,890.257812 Z M182.717097,890.257812 C184.94366,890.257812 186.252254,888.988281 186.603816,887.40625 L185.236629,887.40625 C184.933894,888.373047 184.123347,889.095703 182.75616,889.095703 C180.949519,889.095703 179.885066,887.689453 179.885066,885.550781 L179.885066,885.306641 L186.7503,885.306641 L186.7503,884.457031 C186.7503,881.585938 185.226863,879.710938 182.638972,879.710938 C180.021785,879.710938 178.527644,881.595703 178.527644,884.349609 L178.527644,885.511719 C178.527644,888.402344 180.09991,890.257812 182.717097,890.257812 Z M185.392879,884.134766 L179.885066,884.134766 L179.885066,884.105469 C179.885066,882.25 180.959285,880.882812 182.638972,880.882812 C184.299129,880.882812 185.392879,882.25 185.392879,884.105469 L185.392879,884.134766 Z M195.690805,890.091797 L195.690805,881.039062 L197.849008,881.039062 L197.849008,879.886719 L195.690805,879.886719 L195.690805,878.871094 C195.690805,877.5625 196.257212,877.162109 197.409555,877.162109 C197.663462,877.162109 197.829477,877.191406 197.985727,877.210938 L197.985727,876.068359 C197.819712,876.039062 197.565805,876 197.263071,876 C195.30018,876 194.352915,876.859375 194.352915,878.783203 L194.352915,879.886719 L192.917368,879.886719 L192.917368,881.039062 L194.352915,881.039062 L194.352915,890.091797 L195.690805,890.091797 Z M204.155198,890.257812 C206.889573,890.257812 208.442308,888.285156 208.442308,885.511719 L208.442308,884.447266 C208.442308,881.693359 206.879808,879.710938 204.155198,879.710938 C201.420823,879.710938 199.858323,881.683594 199.858323,884.447266 L199.858323,885.511719 C199.858323,888.285156 201.420823,890.257812 204.155198,890.257812 Z M204.155198,889.056641 C202.309495,889.056641 201.20598,887.699219 201.20598,885.443359 L201.20598,884.525391 C201.20598,882.259766 202.319261,880.902344 204.155198,880.902344 C205.991136,880.902344 207.094651,882.259766 207.094651,884.525391 L207.094651,885.443359 C207.094651,887.699219 205.991136,889.056641 204.155198,889.056641 Z M212.648888,890.091797 L212.648888,883.792969 C212.648888,882.210938 213.312951,880.980469 215.148888,880.980469 C215.461388,880.980469 215.793419,881 215.939904,881.029297 L215.939904,879.769531 C215.754357,879.75 215.539513,879.730469 215.305138,879.730469 C213.762169,879.730469 213.000451,880.570312 212.687951,881.273438 L212.648888,881.273438 L212.648888,879.886719 L211.301232,879.886719 L211.301232,890.091797 L212.648888,890.091797 Z M222.478065,890.091797 L223.913612,885.892578 L229.079627,885.892578 L230.52494,890.091797 L231.950721,890.091797 L227.175331,876.771484 L225.827674,876.771484 L221.042518,890.091797 L222.478065,890.091797 Z M228.689002,884.769531 L224.304237,884.769531 L226.481971,878.460938 L226.521034,878.460938 L228.689002,884.769531 Z M237.749099,890.257812 C240.122145,890.257812 241.313552,888.958984 241.626052,887.357422 L240.288161,887.357422 C240.092849,888.236328 239.301833,889.027344 237.85652,889.027344 C236.079177,889.027344 234.946364,887.669922 234.946364,885.511719 L234.946364,884.457031 C234.946364,882.240234 236.030349,880.941406 237.827224,880.941406 C239.116286,880.941406 239.995192,881.830078 240.219802,882.787109 L241.567458,882.787109 C241.469802,881.292969 240.092849,879.710938 237.739333,879.710938 C235.170974,879.710938 233.598708,881.595703 233.598708,884.369141 L233.598708,885.521484 C233.598708,888.255859 235.11238,890.257812 237.749099,890.257812 Z M247.746695,890.257812 C249.436148,890.257812 250.422476,889.476562 250.783804,888.636719 L250.842398,888.636719 L250.842398,890.091797 L252.190054,890.091797 L252.190054,879.886719 L250.832632,879.886719 L250.832632,886.185547 C250.832632,887.884766 249.758413,889.017578 248.088492,889.017578 C246.613882,889.017578 245.490835,888.285156 245.490835,886.361328 L245.490835,879.886719 L244.143179,879.886719 L244.143179,886.742188 C244.143179,889.066406 245.666617,890.257812 247.746695,890.257812 Z M259.248197,890.091797 L262.949369,879.886719 L261.591947,879.886719 L258.545072,888.392578 L258.496244,888.392578 L255.595853,879.886719 L254.179838,879.886719 L257.81265,890.091797 L259.248197,890.091797 Z M268.552434,890.257812 C270.778996,890.257812 272.08759,888.988281 272.439153,887.40625 L271.071965,887.40625 C270.769231,888.373047 269.958684,889.095703 268.591496,889.095703 C266.784856,889.095703 265.720403,887.689453 265.720403,885.550781 L265.720403,885.306641 L272.585637,885.306641 L272.585637,884.457031 C272.585637,881.585938 271.0622,879.710938 268.474309,879.710938 C265.857121,879.710938 264.362981,881.595703 264.362981,884.349609 L264.362981,885.511719 C264.362981,888.402344 265.935246,890.257812 268.552434,890.257812 Z M271.228215,884.134766 L265.720403,884.134766 L265.720403,884.105469 C265.720403,882.25 266.794621,880.882812 268.474309,880.882812 C270.134465,880.882812 271.228215,882.25 271.228215,884.105469 L271.228215,884.134766 Z M276.753155,890.091797 L276.753155,883.792969 C276.753155,882.210938 277.417218,880.980469 279.253155,880.980469 C279.565655,880.980469 279.897686,881 280.044171,881.029297 L280.044171,879.769531 C279.858624,879.75 279.64378,879.730469 279.409405,879.730469 C277.866436,879.730469 277.104718,880.570312 276.792218,881.273438 L276.753155,881.273438 L276.753155,879.886719 L275.405499,879.886719 L275.405499,890.091797 L276.753155,890.091797 Z M284.85622,890.257812 C286.477314,890.257812 287.434345,889.515625 287.893329,888.724609 L287.932392,888.724609 L287.932392,890.091797 L289.240986,890.091797 L289.240986,882.962891 C289.240986,880.882812 287.727314,879.710938 285.598407,879.710938 C283.254657,879.710938 282.053486,880.941406 281.926532,882.689453 L283.205829,882.689453 C283.342548,881.595703 284.114032,880.882812 285.549579,880.882812 C287.024189,880.882812 287.893329,881.654297 287.893329,883.128906 L287.893329,884.28125 L285.071064,884.28125 C282.746845,884.291016 281.526142,885.423828 281.526142,887.181641 C281.526142,889.046875 282.883564,890.257812 284.85622,890.257812 Z M285.16872,889.095703 C283.967548,889.095703 282.922626,888.441406 282.922626,887.142578 C282.922626,886.117188 283.576923,885.384766 285.119892,885.384766 L287.893329,885.384766 L287.893329,886.683594 C287.893329,888.109375 286.711689,889.095703 285.16872,889.095703 Z M292.56866,881.322266 L293.808894,876.771484 L292.344051,876.771484 L291.494441,881.322266 L292.56866,881.322266 Z M298.220553,890.257812 C300.495944,890.257812 302.1561,889.183594 302.1561,887.171875 C302.1561,885.160156 300.486178,884.701172 298.601412,884.330078 C297.302584,884.056641 296.042819,883.773438 296.042819,882.582031 C296.042819,881.439453 297.019381,880.873047 298.318209,880.873047 C300.05649,880.873047 300.5936,881.898438 300.632662,882.689453 L301.911959,882.689453 C301.911959,881.15625 300.788912,879.710938 298.367037,879.710938 C296.423678,879.710938 294.714694,880.667969 294.714694,882.71875 C294.714694,884.525391 296.228365,885.082031 298.152194,885.511719 C299.714694,885.84375 300.818209,886.097656 300.818209,887.318359 C300.818209,888.34375 299.949069,889.105469 298.318209,889.105469 C296.745944,889.105469 295.935397,888.324219 295.818209,887.396484 L294.490084,887.396484 C294.490084,889.085938 295.935397,890.257812 298.220553,890.257812 Z M103.126953,914.384766 C105.822266,914.384766 107.970703,913.037109 107.970703,910.488281 C107.970703,908.388672 106.59375,907.480469 104.474609,906.904297 L102.296875,906.308594 C100.910156,905.947266 100.246094,905.224609 100.246094,904.121094 C100.246094,902.587891 101.505859,901.699219 103.302734,901.699219 C105.333984,901.699219 106.320312,902.822266 106.427734,904.121094 L107.804688,904.121094 C107.755859,901.679688 105.617188,900.458984 103.332031,900.458984 C100.958984,900.458984 98.8496094,901.806641 98.8496094,904.199219 C98.8496094,906.220703 100.304688,907.216797 101.916016,907.646484 L104.142578,908.242188 C105.773438,908.662109 106.564453,909.326172 106.564453,910.585938 C106.564453,912.138672 105.265625,913.134766 103.292969,913.134766 C101.027344,913.134766 99.9335938,911.884766 99.8164062,910.576172 L98.4296875,910.576172 C98.4785156,912.236328 99.6796875,914.384766 103.126953,914.384766 Z M114.423377,914.257812 C116.64994,914.257812 117.958534,912.988281 118.310096,911.40625 L116.942909,911.40625 C116.640174,912.373047 115.829627,913.095703 114.46244,913.095703 C112.655799,913.095703 111.591346,911.689453 111.591346,909.550781 L111.591346,909.306641 L118.456581,909.306641 L118.456581,908.457031 C118.456581,905.585938 116.933143,903.710938 114.345252,903.710938 C111.728065,903.710938 110.233924,905.595703 110.233924,908.349609 L110.233924,909.511719 C110.233924,912.402344 111.80619,914.257812 114.423377,914.257812 Z M117.099159,908.134766 L111.591346,908.134766 L111.591346,908.105469 C111.591346,906.25 112.665565,904.882812 114.345252,904.882812 C116.005409,904.882812 117.099159,906.25 117.099159,908.105469 L117.099159,908.134766 Z M122.624099,914.091797 L122.624099,907.841797 C122.624099,906.347656 123.463942,904.951172 125.378005,904.951172 C126.999099,904.951172 128.024489,905.966797 128.024489,907.714844 L128.024489,914.091797 L129.372145,914.091797 L129.372145,907.519531 C129.372145,905.048828 127.819411,903.710938 125.719802,903.710938 C124.010817,903.710938 123.04402,904.619141 122.663161,905.351562 L122.624099,905.351562 L122.624099,903.886719 L121.276442,903.886719 L121.276442,914.091797 L122.624099,914.091797 Z M136.147085,914.248047 C137.709585,914.248047 138.744742,913.408203 139.242788,912.451172 L139.281851,912.451172 L139.281851,914.091797 L140.561148,914.091797 L140.561148,900.058594 L139.213492,900.058594 L139.213492,905.419922 L139.174429,905.419922 C138.705679,904.541016 137.660757,903.710938 136.147085,903.710938 C133.666617,903.710938 132.084585,905.634766 132.084585,908.417969 L132.084585,909.550781 C132.084585,912.34375 133.539663,914.248047 136.147085,914.248047 Z M136.283804,913.046875 C134.643179,913.046875 133.432242,911.845703 133.432242,909.492188 L133.432242,908.496094 C133.432242,906.083984 134.672476,904.921875 136.254507,904.921875 C138.10021,904.921875 139.242788,906.376953 139.242788,908.486328 L139.242788,909.501953 C139.242788,911.669922 138.139273,913.046875 136.283804,913.046875 Z M147.707181,914.384766 C150.402494,914.384766 152.550931,913.037109 152.550931,910.488281 C152.550931,908.388672 151.173978,907.480469 149.054838,906.904297 L146.877103,906.308594 C145.490385,905.947266 144.826322,905.224609 144.826322,904.121094 C144.826322,902.587891 146.086088,901.699219 147.882963,901.699219 C149.914213,901.699219 150.900541,902.822266 151.007963,904.121094 L152.384916,904.121094 C152.336088,901.679688 150.197416,900.458984 147.91226,900.458984 C145.539213,900.458984 143.429838,901.806641 143.429838,904.199219 C143.429838,906.220703 144.884916,907.216797 146.496244,907.646484 L148.722806,908.242188 C150.353666,908.662109 151.144681,909.326172 151.144681,910.585938 C151.144681,912.138672 149.845853,913.134766 147.873197,913.134766 C145.607572,913.134766 144.513822,911.884766 144.396635,910.576172 L143.009916,910.576172 C143.058744,912.236328 144.259916,914.384766 147.707181,914.384766 Z M159.003606,914.257812 C161.230168,914.257812 162.538762,912.988281 162.890325,911.40625 L161.523137,911.40625 C161.220403,912.373047 160.409856,913.095703 159.042668,913.095703 C157.236028,913.095703 156.171575,911.689453 156.171575,909.550781 L156.171575,909.306641 L163.036809,909.306641 L163.036809,908.457031 C163.036809,905.585938 161.513371,903.710938 158.925481,903.710938 C156.308293,903.710938 154.814153,905.595703 154.814153,908.349609 L154.814153,909.511719 C154.814153,912.402344 156.386418,914.257812 159.003606,914.257812 Z M161.679387,908.134766 L156.171575,908.134766 L156.171575,908.105469 C156.171575,906.25 157.245793,904.882812 158.925481,904.882812 C160.585637,904.882812 161.679387,906.25 161.679387,908.105469 L161.679387,908.134766 Z M169.587139,914.257812 C171.960186,914.257812 173.151593,912.958984 173.464093,911.357422 L172.126202,911.357422 C171.930889,912.236328 171.139874,913.027344 169.694561,913.027344 C167.917218,913.027344 166.784405,911.669922 166.784405,909.511719 L166.784405,908.457031 C166.784405,906.240234 167.868389,904.941406 169.665264,904.941406 C170.954327,904.941406 171.833233,905.830078 172.057843,906.787109 L173.405499,906.787109 C173.307843,905.292969 171.930889,903.710938 169.577374,903.710938 C167.009014,903.710938 165.436749,905.595703 165.436749,908.369141 L165.436749,909.521484 C165.436749,912.255859 166.950421,914.257812 169.587139,914.257812 Z M179.584736,914.257812 C181.274189,914.257812 182.260517,913.476562 182.621845,912.636719 L182.680439,912.636719 L182.680439,914.091797 L184.028095,914.091797 L184.028095,903.886719 L182.670673,903.886719 L182.670673,910.185547 C182.670673,911.884766 181.596454,913.017578 179.926532,913.017578 C178.451923,913.017578 177.328876,912.285156 177.328876,910.361328 L177.328876,903.886719 L175.98122,903.886719 L175.98122,910.742188 C175.98122,913.066406 177.504657,914.257812 179.584736,914.257812 Z M188.654597,914.091797 L188.654597,907.792969 C188.654597,906.210938 189.31866,904.980469 191.154597,904.980469 C191.467097,904.980469 191.799129,905 191.945613,905.029297 L191.945613,903.769531 C191.760066,903.75 191.545222,903.730469 191.310847,903.730469 C189.767879,903.730469 189.00616,904.570312 188.69366,905.273438 L188.654597,905.273438 L188.654597,903.886719 L187.306941,903.886719 L187.306941,914.091797 L188.654597,914.091797 Z M197.841647,914.257812 C200.068209,914.257812 201.376803,912.988281 201.728365,911.40625 L200.361178,911.40625 C200.058444,912.373047 199.247897,913.095703 197.880709,913.095703 C196.074069,913.095703 195.009615,911.689453 195.009615,909.550781 L195.009615,909.306641 L201.87485,909.306641 L201.87485,908.457031 C201.87485,905.585938 200.351412,903.710938 197.763522,903.710938 C195.146334,903.710938 193.652194,905.595703 193.652194,908.349609 L193.652194,909.511719 C193.652194,912.402344 195.224459,914.257812 197.841647,914.257812 Z M200.517428,908.134766 L195.009615,908.134766 L195.009615,908.105469 C195.009615,906.25 196.083834,904.882812 197.763522,904.882812 C199.423678,904.882812 200.517428,906.25 200.517428,908.105469 L200.517428,908.134766 Z M213.100511,914.091797 L213.100511,902.011719 L217.260667,902.011719 L217.260667,900.771484 L207.602464,900.771484 L207.602464,902.011719 L211.752855,902.011719 L211.752855,914.091797 L213.100511,914.091797 Z M221.105919,914.257812 C223.332482,914.257812 224.641076,912.988281 224.992638,911.40625 L223.625451,911.40625 C223.322716,912.373047 222.512169,913.095703 221.144982,913.095703 C219.338341,913.095703 218.273888,911.689453 218.273888,909.550781 L218.273888,909.306641 L225.139123,909.306641 L225.139123,908.457031 C225.139123,905.585938 223.615685,903.710938 221.027794,903.710938 C218.410607,903.710938 216.916466,905.595703 216.916466,908.349609 L216.916466,909.511719 C216.916466,912.402344 218.488732,914.257812 221.105919,914.257812 Z M223.781701,908.134766 L218.273888,908.134766 L218.273888,908.105469 C218.273888,906.25 219.348107,904.882812 221.027794,904.882812 C222.687951,904.882812 223.781701,906.25 223.781701,908.105469 L223.781701,908.134766 Z M231.689453,914.257812 C234.0625,914.257812 235.253906,912.958984 235.566406,911.357422 L234.228516,911.357422 C234.033203,912.236328 233.242188,913.027344 231.796875,913.027344 C230.019531,913.027344 228.886719,911.669922 228.886719,909.511719 L228.886719,908.457031 C228.886719,906.240234 229.970703,904.941406 231.767578,904.941406 C233.056641,904.941406 233.935547,905.830078 234.160156,906.787109 L235.507813,906.787109 C235.410156,905.292969 234.033203,903.710938 231.679688,903.710938 C229.111328,903.710938 227.539063,905.595703 227.539063,908.369141 L227.539063,909.521484 C227.539063,912.255859 229.052734,914.257812 231.689453,914.257812 Z M239.606971,914.091797 L239.606971,907.841797 C239.606971,906.347656 240.437049,904.951172 242.360877,904.951172 C243.981971,904.951172 245.017127,905.966797 245.017127,907.714844 L245.017127,914.091797 L246.355018,914.091797 L246.355018,907.519531 C246.355018,905.048828 244.792518,903.710938 242.702674,903.710938 C240.99369,903.710938 240.017127,904.619141 239.646034,905.351562 L239.606971,905.351562 L239.606971,900.058594 L238.259315,900.058594 L238.259315,914.091797 L239.606971,914.091797 Z M250.835036,914.091797 L250.835036,907.841797 C250.835036,906.347656 251.67488,904.951172 253.588942,904.951172 C255.210036,904.951172 256.235427,905.966797 256.235427,907.714844 L256.235427,914.091797 L257.583083,914.091797 L257.583083,907.519531 C257.583083,905.048828 256.030349,903.710938 253.930739,903.710938 C252.221755,903.710938 251.254958,904.619141 250.874099,905.351562 L250.835036,905.351562 L250.835036,903.886719 L249.48738,903.886719 L249.48738,914.091797 L250.835036,914.091797 Z M264.592398,914.257812 C267.326773,914.257812 268.879507,912.285156 268.879507,909.511719 L268.879507,908.447266 C268.879507,905.693359 267.317007,903.710938 264.592398,903.710938 C261.858023,903.710938 260.295523,905.683594 260.295523,908.447266 L260.295523,909.511719 C260.295523,912.285156 261.858023,914.257812 264.592398,914.257812 Z M264.592398,913.056641 C262.746695,913.056641 261.643179,911.699219 261.643179,909.443359 L261.643179,908.525391 C261.643179,906.259766 262.75646,904.902344 264.592398,904.902344 C266.428335,904.902344 267.531851,906.259766 267.531851,908.525391 L267.531851,909.443359 C267.531851,911.699219 266.428335,913.056641 264.592398,913.056641 Z M273.164213,914.091797 L273.164213,900.058594 L271.816557,900.058594 L271.816557,914.091797 L273.164213,914.091797 Z M280.398137,914.257812 C283.132512,914.257812 284.685246,912.285156 284.685246,909.511719 L284.685246,908.447266 C284.685246,905.693359 283.122746,903.710938 280.398137,903.710938 C277.663762,903.710938 276.101262,905.683594 276.101262,908.447266 L276.101262,909.511719 C276.101262,912.285156 277.663762,914.257812 280.398137,914.257812 Z M280.398137,913.056641 C278.552434,913.056641 277.448918,911.699219 277.448918,909.443359 L277.448918,908.525391 C277.448918,906.259766 278.5622,904.902344 280.398137,904.902344 C282.234075,904.902344 283.33759,906.259766 283.33759,908.525391 L283.33759,909.443359 C283.33759,911.699219 282.234075,913.056641 280.398137,913.056641 Z M291.382061,917.783203 C293.70628,917.783203 295.591046,916.455078 295.591046,913.964844 L295.591046,903.886719 L294.292218,903.886719 L294.292218,905.429688 L294.253155,905.429688 C293.794171,904.492188 292.622296,903.710938 291.196514,903.710938 C288.803936,903.710938 287.124249,905.410156 287.124249,908.320312 L287.124249,909.316406 C287.124249,912.265625 288.813702,913.945312 291.196514,913.945312 C292.61253,913.945312 293.823468,913.154297 294.214093,912.207031 L294.253155,912.207031 L294.253155,913.974609 C294.253155,915.625 293.110577,916.621094 291.391827,916.621094 C289.897686,916.621094 288.940655,915.810547 288.764874,914.873047 L287.368389,914.873047 C287.583233,916.5625 288.940655,917.783203 291.382061,917.783203 Z M291.391827,912.753906 C289.565655,912.753906 288.471905,911.396484 288.471905,909.199219 L288.471905,908.457031 C288.471905,906.220703 289.555889,904.902344 291.391827,904.902344 C293.120343,904.902344 294.253155,906.308594 294.253155,908.457031 L294.253155,909.208984 C294.253155,911.376953 293.159405,912.753906 291.391827,912.753906 Z M299.485126,917.626953 C301.037861,917.626953 301.975361,916.992188 302.717548,915.019531 L303.030048,914.179688 L306.711689,903.886719 L305.276142,903.886719 L302.317157,912.539062 L302.268329,912.539062 L299.289814,903.886719 L297.795673,903.886719 L301.604267,914.248047 L301.389423,914.931641 C301.067157,916.015625 300.471454,916.455078 299.358173,916.455078 C299.104267,916.455078 298.791767,916.435547 298.615986,916.416016 L298.615986,917.548828 C298.889423,917.607422 299.192157,917.626953 299.485126,917.626953 Z" id="VATRefunds:AUsecaseforAcuvera’sSendSecureTechnology" fill="#FFFFFF" fill-rule="nonzero" opacity="0.313546317"></path>
        </g>
    </g>
</svg>