<?xml version="1.0" encoding="UTF-8"?>
<svg width="1405px" height="770px" viewBox="0 0 1405 770" version="1.1" xmlns="http://www.w3.org/2000/svg" xmlns:xlink="http://www.w3.org/1999/xlink">
    <!-- Generator: Sketch 61 (89581) - https://sketch.com -->
    <title>video_poster_dutyfree</title>
    <desc>Created with Sketch.</desc>
    <defs>
        <linearGradient x1="100%" y1="22.7208161%" x2="0%" y2="77.2791839%" id="linearGradient-1">
            <stop stop-color="#00EAF7" offset="0%"></stop>
            <stop stop-color="#325BFF" offset="100%"></stop>
        </linearGradient>
        <linearGradient x1="100%" y1="49.7419573%" x2="0%" y2="50.2580427%" id="linearGradient-2">
            <stop stop-color="#00EAF7" offset="0%"></stop>
            <stop stop-color="#325BFF" offset="100%"></stop>
        </linearGradient>
        <polygon id="path-3" points="87.25828 61.635875 87.25828 63.3233125 44.62828 63.3233125 44.62828 61.635875"></polygon>
        <filter x="-11.7%" y="-140.8%" width="123.5%" height="381.6%" filterUnits="objectBoundingBox" id="filter-4">
            <feMorphology radius="2" operator="erode" in="SourceAlpha" result="shadowSpreadInner1"></feMorphology>
            <feGaussianBlur stdDeviation="3.5" in="shadowSpreadInner1" result="shadowBlurInner1"></feGaussianBlur>
            <feOffset dx="0" dy="1" in="shadowBlurInner1" result="shadowOffsetInner1"></feOffset>
            <feComposite in="shadowOffsetInner1" in2="SourceAlpha" operator="arithmetic" k2="-1" k3="1" result="shadowInnerInner1"></feComposite>
            <feColorMatrix values="0 0 0 0 0   0 0 0 0 0   0 0 0 0 0  0 0 0 0 0" type="matrix" in="shadowInnerInner1"></feColorMatrix>
        </filter>
        <linearGradient x1="82.4208503%" y1="0%" x2="17.5791497%" y2="100%" id="linearGradient-5">
            <stop stop-color="#00EAF7" offset="0%"></stop>
            <stop stop-color="#325BFF" offset="100%"></stop>
        </linearGradient>
        <polygon id="path-6" points="-3.34239303e-13 1.60156333e-13 38.189375 22.913625 38.189375 24.51225 -3.34239303e-13 47.425875 -3.34239303e-13 45.3831875 36.1466875 23.80175 36.1466875 23.624125 -3.34239303e-13 2.0426875"></polygon>
        <filter x="-13.1%" y="-10.5%" width="126.2%" height="121.1%" filterUnits="objectBoundingBox" id="filter-7">
            <feMorphology radius="2" operator="erode" in="SourceAlpha" result="shadowSpreadInner1"></feMorphology>
            <feGaussianBlur stdDeviation="3.5" in="shadowSpreadInner1" result="shadowBlurInner1"></feGaussianBlur>
            <feOffset dx="0" dy="1" in="shadowBlurInner1" result="shadowOffsetInner1"></feOffset>
            <feComposite in="shadowOffsetInner1" in2="SourceAlpha" operator="arithmetic" k2="-1" k3="1" result="shadowInnerInner1"></feComposite>
            <feColorMatrix values="0 0 0 0 0   0 0 0 0 0   0 0 0 0 0  0 0 0 0 0" type="matrix" in="shadowInnerInner1"></feColorMatrix>
        </filter>
        <linearGradient x1="100%" y1="45.0288126%" x2="0%" y2="54.9711874%" id="linearGradient-8">
            <stop stop-color="#00EAF7" offset="0%"></stop>
            <stop stop-color="#325BFF" offset="100%"></stop>
        </linearGradient>
        <linearGradient x1="93.5667072%" y1="0%" x2="6.43329279%" y2="100%" id="linearGradient-9">
            <stop stop-color="#00EAF7" offset="0%"></stop>
            <stop stop-color="#325BFF" offset="100%"></stop>
        </linearGradient>
        <linearGradient x1="100%" y1="45.050409%" x2="0%" y2="54.949591%" id="linearGradient-10">
            <stop stop-color="#00EAF7" offset="0%"></stop>
            <stop stop-color="#325BFF" offset="100%"></stop>
        </linearGradient>
        <path d="M1027.13007,520 L1027.13007,515.605469 L1028.84394,515.605469 C1030.06952,515.605469 1030.99604,515.32959 1031.62348,514.777832 C1032.25092,514.226074 1032.56464,513.410645 1032.56464,512.331543 C1032.56464,511.262207 1032.2497,510.450439 1031.61982,509.89624 C1030.98993,509.342041 1030.06464,509.064941 1028.84394,509.064941 L1028.84394,509.064941 L1025.65058,509.064941 L1025.65058,520 L1027.13007,520 Z M1028.84394,514.389648 L1027.13007,514.389648 L1027.13007,510.280762 L1028.84394,510.280762 C1029.53241,510.280762 1030.06708,510.460205 1030.44794,510.819092 C1030.8288,511.177979 1031.01923,511.682129 1031.01923,512.331543 C1031.01923,512.980957 1030.82758,513.486328 1030.44428,513.847656 C1030.06098,514.208984 1029.52753,514.389648 1028.84394,514.389648 L1028.84394,514.389648 Z M1041.69614,520 L1041.69614,518.754883 L1036.41538,518.754883 L1036.41538,509.064941 L1034.92856,509.064941 L1034.92856,520 L1041.69614,520 Z M1044.30176,520 L1045.09277,517.150879 L1048.92334,517.150879 L1049.729,520 L1051.25977,520 L1047.9126,509.064941 L1046.11816,509.064941 L1042.771,520 L1044.30176,520 Z M1048.57178,515.964355 L1045.45166,515.964355 L1047.01172,510.368652 L1048.57178,515.964355 Z M1056.89761,520 L1056.89761,515.092773 L1060.40591,509.064941 L1058.81656,509.064941 L1056.15787,513.891602 L1053.49185,509.064941 L1051.91714,509.064941 L1055.41079,515.092773 L1055.41079,520 L1056.89761,520 Z" id="path-11"></path>
    </defs>
    <g id="Page-1-Copy" stroke="none" stroke-width="1" fill="none" fill-rule="evenodd">
        <g id="video_poster_dutyfree">
            <rect id="Rectangle" fill="#000000" x="0" y="0" width="1405" height="770"></rect>
            <g id="Group" transform="translate(160.000000, 578.000000)">
                <g id="logo_acuvera-path" opacity="0.626046317">
                    <use fill="url(#linearGradient-2)" fill-rule="evenodd" xlink:href="#path-3"></use>
                    <use fill="black" fill-opacity="1" filter="url(#filter-4)" xlink:href="#path-3"></use>
                </g>
                <g id="logo_acuvera-path" opacity="0.601771763">
                    <use fill="url(#linearGradient-5)" fill-rule="evenodd" xlink:href="#path-6"></use>
                    <use fill="black" fill-opacity="1" filter="url(#filter-7)" xlink:href="#path-6"></use>
                </g>
            </g>
            <g id="Group-2" opacity="0.697986421" transform="translate(144.000000, 111.000000)">
                <rect id="Rectangle" stroke="url(#linearGradient-8)" stroke-width="2.5" x="976" y="497" width="111" height="35" rx="17.5"></rect>
                <path d="M1008,509 C1008,509 1011.17644,510.76335 1017.52933,514.290051 L1008,519.208691 C1008,512.402897 1008,509 1008,509 Z" id="Path" stroke="#979797" fill="url(#linearGradient-9)"></path>
                <g id="PLAY" fill-rule="nonzero">
                    <use fill="#FFFFFF" xlink:href="#path-11"></use>
                    <use fill="url(#linearGradient-10)" xlink:href="#path-11"></use>
                </g>
                <path d="M8.7,26.375 C10.0333333,26.375 11.2291667,26.0916667 12.2875,25.525 C13.3458333,24.9583333 14.1708333,24.1583333 14.7625,23.125 C15.3541667,22.0916667 15.65,20.9 15.65,19.55 L15.65,19.55 L15.65,8 L14.2,8 L14.2,19.275 C14.2,20.5416667 13.9166667,21.6083333 13.35,22.475 C12.7833333,23.3416667 12.0833333,23.9791667 11.25,24.3875 C10.4166667,24.7958333 9.56666667,25 8.7,25 C7.85,25 7.00416667,24.7958333 6.1625,24.3875 C5.32083333,23.9791667 4.61666667,23.3416667 4.05,22.475 C3.48333333,21.6083333 3.2,20.5416667 3.2,19.275 L3.2,19.275 L3.2,8 L1.75,8 L1.75,19.55 C1.75,20.9 2.04583333,22.0916667 2.6375,23.125 C3.22916667,24.1583333 4.05,24.9583333 5.1,25.525 C6.15,26.0916667 7.35,26.375 8.7,26.375 Z M25.8027564,26.375 C27.0527564,26.375 28.1610897,26.1666667 29.1277564,25.75 C30.0944231,25.3333333 30.8485897,24.7333333 31.3902564,23.95 C31.9319231,23.1666667 32.2027564,22.25 32.2027564,21.2 C32.2027564,20.1666667 31.9694231,19.3333333 31.5027564,18.7 C31.0360897,18.0666667 30.5069231,17.6041667 29.9152564,17.3125 C29.3235897,17.0208333 28.6777564,16.7666667 27.9777564,16.55 L27.9777564,16.55 L24.3527564,15.475 C23.3360897,15.1916667 22.5152564,14.8291667 21.8902564,14.3875 C21.2652564,13.9458333 20.9527564,13.2916667 20.9527564,12.425 C20.9527564,11.775 21.1444231,11.1958333 21.5277564,10.6875 C21.9110897,10.1791667 22.4444231,9.775 23.1277564,9.475 C23.8110897,9.175 24.5777564,9.025 25.4277564,9.025 C26.7944231,9.04166667 27.9569231,9.425 28.9152564,10.175 C29.8735897,10.925 30.4444231,11.9166667 30.6277564,13.15 L30.6277564,13.15 L32.1277564,12.875 C31.9444231,11.825 31.5527564,10.9041667 30.9527564,10.1125 C30.3527564,9.32083333 29.5777564,8.70833333 28.6277564,8.275 C27.6777564,7.84166667 26.6110897,7.625 25.4277564,7.625 C24.2610897,7.625 23.2277564,7.825 22.3277564,8.225 C21.4277564,8.625 20.7194231,9.19583333 20.2027564,9.9375 C19.6860897,10.6791667 19.4277564,11.525 19.4277564,12.475 C19.4277564,13.5416667 19.7485897,14.4166667 20.3902564,15.1 C21.0319231,15.7833333 21.9694231,16.3083333 23.2027564,16.675 L23.2027564,16.675 L27.7277564,18.05 C28.6110897,18.3 29.3360897,18.6583333 29.9027564,19.125 C30.4694231,19.5916667 30.7527564,20.2916667 30.7527564,21.225 C30.7527564,22.3583333 30.2944231,23.2666667 29.3777564,23.95 C28.4610897,24.6333333 27.2777564,24.975 25.8277564,24.975 C24.3944231,24.975 23.1777564,24.6291667 22.1777564,23.9375 C21.1777564,23.2458333 20.5110897,22.3 20.1777564,21.1 L20.1777564,21.1 L18.7277564,21.35 C18.9277564,22.3666667 19.3485897,23.2541667 19.9902564,24.0125 C20.6319231,24.7708333 21.4527564,25.3541667 22.4527564,25.7625 C23.4527564,26.1708333 24.5694231,26.375 25.8027564,26.375 Z M47.1554548,26 L47.1554548,24.6 L37.4804548,24.6 L37.4804548,17.65 L45.6554548,17.65 L45.6554548,16.225 L37.4804548,16.225 L37.4804548,9.4 L47.1554548,9.4 L47.1554548,8 L36.0304548,8 L36.0304548,26 L47.1554548,26 Z M64.8856137,26.375 C66.9356137,26.375 68.6231137,25.8458333 69.9481137,24.7875 C71.2731137,23.7291667 72.1772803,22.2666667 72.6606137,20.4 L72.6606137,20.4 L71.1606137,20.025 C70.7606137,21.575 70.031447,22.7875 68.9731137,23.6625 C67.9147803,24.5375 66.5522803,24.975 64.8856137,24.975 C63.4522803,24.975 62.2356137,24.6416667 61.2356137,23.975 C60.2356137,23.3083333 59.4856137,22.375 58.9856137,21.175 C58.4856137,19.975 58.2356137,18.5833333 58.2356137,17 C58.268947,14.5666667 58.8522803,12.6291667 59.9856137,11.1875 C61.118947,9.74583333 62.7522803,9.025 64.8856137,9.025 C66.5522803,9.025 67.9147803,9.4625 68.9731137,10.3375 C70.031447,11.2125 70.7606137,12.425 71.1606137,13.975 L71.1606137,13.975 L72.6606137,13.6 C72.1772803,11.7333333 71.2731137,10.2708333 69.9481137,9.2125 C68.6231137,8.15416667 66.9356137,7.625 64.8856137,7.625 C63.1356137,7.625 61.6481137,8.01666667 60.4231137,8.8 C59.1981137,9.58333333 58.2731137,10.6791667 57.6481137,12.0875 C57.0231137,13.4958333 56.7106137,15.1333333 56.7106137,17 C56.7106137,18.8666667 57.0231137,20.5041667 57.6481137,21.9125 C58.2731137,23.3208333 59.1981137,24.4166667 60.4231137,25.2 C61.6481137,25.9833333 63.1356137,26.375 64.8856137,26.375 Z M76.4632053,26 L78.063,21.475 L86.331,21.475 L87.9382053,26 L89.4632053,26 L83.0882053,8 L81.3132053,8 L74.9382053,26 L76.4632053,26 Z M85.852,20.125 L78.541,20.125 L82.189,9.808 L85.852,20.125 Z M98.6156565,26.375 C99.8656565,26.375 100.97399,26.1666667 101.940657,25.75 C102.907323,25.3333333 103.66149,24.7333333 104.203157,23.95 C104.744823,23.1666667 105.015657,22.25 105.015657,21.2 C105.015657,20.1666667 104.782323,19.3333333 104.315657,18.7 C103.84899,18.0666667 103.319823,17.6041667 102.728157,17.3125 C102.13649,17.0208333 101.490657,16.7666667 100.790657,16.55 L100.790657,16.55 L97.1656565,15.475 C96.1489899,15.1916667 95.3281565,14.8291667 94.7031565,14.3875 C94.0781565,13.9458333 93.7656565,13.2916667 93.7656565,12.425 C93.7656565,11.775 93.9573232,11.1958333 94.3406565,10.6875 C94.7239899,10.1791667 95.2573232,9.775 95.9406565,9.475 C96.6239899,9.175 97.3906565,9.025 98.2406565,9.025 C99.6073232,9.04166667 100.769823,9.425 101.728157,10.175 C102.68649,10.925 103.257323,11.9166667 103.440657,13.15 L103.440657,13.15 L104.940657,12.875 C104.757323,11.825 104.365657,10.9041667 103.765657,10.1125 C103.165657,9.32083333 102.390657,8.70833333 101.440657,8.275 C100.490657,7.84166667 99.4239899,7.625 98.2406565,7.625 C97.0739899,7.625 96.0406565,7.825 95.1406565,8.225 C94.2406565,8.625 93.5323232,9.19583333 93.0156565,9.9375 C92.4989899,10.6791667 92.2406565,11.525 92.2406565,12.475 C92.2406565,13.5416667 92.5614899,14.4166667 93.2031565,15.1 C93.8448232,15.7833333 94.7823232,16.3083333 96.0156565,16.675 L96.0156565,16.675 L100.540657,18.05 C101.42399,18.3 102.14899,18.6583333 102.715657,19.125 C103.282323,19.5916667 103.565657,20.2916667 103.565657,21.225 C103.565657,22.3583333 103.107323,23.2666667 102.190657,23.95 C101.27399,24.6333333 100.090657,24.975 98.6406565,24.975 C97.2073232,24.975 95.9906565,24.6291667 94.9906565,23.9375 C93.9906565,23.2458333 93.3239899,22.3 92.9906565,21.1 L92.9906565,21.1 L91.5406565,21.35 C91.7406565,22.3666667 92.1614899,23.2541667 92.8031565,24.0125 C93.4448232,24.7708333 94.2656565,25.3541667 95.2656565,25.7625 C96.2656565,26.1708333 97.3823232,26.375 98.6156565,26.375 Z M119.968355,26 L119.968355,24.6 L110.293355,24.6 L110.293355,17.65 L118.468355,17.65 L118.468355,16.225 L110.293355,16.225 L110.293355,9.4 L119.968355,9.4 L119.968355,8 L108.843355,8 L108.843355,26 L119.968355,26 Z M127.070812,13.45 L127.070812,11.625 L125.245812,11.625 L125.245812,13.45 L127.070812,13.45 Z M127.070812,22.375 L127.070812,20.55 L125.245812,20.55 L125.245812,22.375 L127.070812,22.375 Z M7.125,60 C8.125,60 8.90833333,59.9583333 9.475,59.875 C10.775,59.6916667 11.8791667,59.1958333 12.7875,58.3875 C13.6958333,57.5791667 14.375,56.5375 14.825,55.2625 C15.275,53.9875 15.5,52.5666667 15.5,51 C15.5,49.4333333 15.275,48.0166667 14.825,46.75 C14.375,45.4833333 13.6958333,44.4416667 12.7875,43.625 C11.8791667,42.8083333 10.775,42.3083333 9.475,42.125 C8.89166667,42.0416667 8.10833333,42 7.125,42 L7.125,42 L1.75,42 L1.75,60 L7.125,60 Z M7.125,58.6 L3.275,58.6 L3.275,43.4 L7.125,43.4 C8.04166667,43.4 8.76666667,43.45 9.3,43.55 C10.9,43.8333333 12.075,44.6333333 12.825,45.95 C13.575,47.2666667 13.95,48.95 13.95,51 C13.95,53.0333333 13.575,54.7125 12.825,56.0375 C12.075,57.3625 10.9,58.1666667 9.3,58.45 C8.76666667,58.55 8.04166667,58.6 7.125,58.6 L7.125,58.6 Z M26.5274604,60.375 C27.8607937,60.375 29.0566271,60.0916667 30.1149604,59.525 C31.1732937,58.9583333 31.9982937,58.1583333 32.5899604,57.125 C33.1816271,56.0916667 33.4774604,54.9 33.4774604,53.55 L33.4774604,53.55 L33.4774604,42 L32.0274604,42 L32.0274604,53.275 C32.0274604,54.5416667 31.7441271,55.6083333 31.1774604,56.475 C30.6107937,57.3416667 29.9107937,57.9791667 29.0774604,58.3875 C28.2441271,58.7958333 27.3941271,59 26.5274604,59 C25.6774604,59 24.8316271,58.7958333 23.9899604,58.3875 C23.1482937,57.9791667 22.4441271,57.3416667 21.8774604,56.475 C21.3107937,55.6083333 21.0274604,54.5416667 21.0274604,53.275 L21.0274604,53.275 L21.0274604,42 L19.5774604,42 L19.5774604,53.55 C19.5774604,54.9 19.8732937,56.0916667 20.4649604,57.125 C21.0566271,58.1583333 21.8774604,58.9583333 22.9274604,59.525 C23.9774604,60.0916667 25.1774604,60.375 26.5274604,60.375 Z M44.6552168,60 L44.6552168,43.4 L51.0802168,43.4 L51.0802168,42 L36.7552168,42 L36.7552168,43.4 L43.2052168,43.4 L43.2052168,60 L44.6552168,60 Z M60.8076711,60 L60.8076711,52.4 L66.8076711,42 L65.1326711,42 L60.0826711,50.75 L55.0326711,42 L53.3576711,42 L59.3576711,52.4 L59.3576711,60 L60.8076711,60 Z M76.56301,60 L76.56301,51.725 L83.78801,51.725 L83.78801,50.275 L76.56301,50.275 L76.56301,43.45 L85.28801,43.45 L85.28801,42 L75.11301,42 L75.11301,60 L76.56301,60 Z M90.2656382,60 L90.2656382,52.975 L96.485,52.975 L99.8906382,60 L101.590638,60 L97.967,52.568 L98.1105362,52.5107143 C98.810026,52.2107143 99.4044775,51.7660714 99.8938908,51.1767857 L100.053138,50.975 C100.778138,50.0083333 101.140638,48.85 101.140638,47.5 C101.140638,46.1 100.753138,44.9 99.9781382,43.9 C99.2031382,42.9 98.1489716,42.3 96.8156382,42.1 C96.4156382,42.0333333 96.0156382,42 95.6156382,42 L95.6156382,42 L88.8156382,42 L88.8156382,60 L90.2656382,60 Z M95.5906382,51.575 L90.2656382,51.575 L90.2656382,43.4 L95.5906382,43.4 C95.9739716,43.4 96.3406382,43.4333333 96.6906382,43.5 C97.6239716,43.7 98.3448049,44.1708333 98.8531382,44.9125 C99.3614716,45.6541667 99.6156382,46.5166667 99.6156382,47.5 C99.6156382,48.4666667 99.3614716,49.3208333 98.8531382,50.0625 C98.3448049,50.8041667 97.6239716,51.275 96.6906382,51.475 C96.3573049,51.5416667 95.9906382,51.575 95.5906382,51.575 L95.5906382,51.575 Z M116.743089,60 L116.743089,58.6 L107.068089,58.6 L107.068089,51.65 L115.243089,51.65 L115.243089,50.225 L107.068089,50.225 L107.068089,43.4 L116.743089,43.4 L116.743089,42 L105.618089,42 L105.618089,60 L116.743089,60 Z M132.145547,60 L132.145547,58.6 L122.470547,58.6 L122.470547,51.65 L130.645547,51.65 L130.645547,50.225 L122.470547,50.225 L122.470547,43.4 L132.145547,43.4 L132.145547,42 L121.020547,42 L121.020547,60 L132.145547,60 Z M144.150706,60 L144.150706,52.975 L150.37,52.975 L153.775706,60 L155.475706,60 L151.852,52.568 L151.995604,52.5107143 C152.695093,52.2107143 153.289545,51.7660714 153.778958,51.1767857 L153.938206,50.975 C154.663206,50.0083333 155.025706,48.85 155.025706,47.5 C155.025706,46.1 154.638206,44.9 153.863206,43.9 C153.088206,42.9 152.034039,42.3 150.700706,42.1 C150.300706,42.0333333 149.900706,42 149.500706,42 L149.500706,42 L142.700706,42 L142.700706,60 L144.150706,60 Z M149.475706,51.575 L144.150706,51.575 L144.150706,43.4 L149.475706,43.4 C149.859039,43.4 150.225706,43.4333333 150.575706,43.5 C151.509039,43.7 152.229872,44.1708333 152.738206,44.9125 C153.246539,45.6541667 153.500706,46.5166667 153.500706,47.5 C153.500706,48.4666667 153.246539,49.3208333 152.738206,50.0625 C152.229872,50.8041667 151.509039,51.275 150.575706,51.475 C150.242372,51.5416667 149.875706,51.575 149.475706,51.575 L149.475706,51.575 Z M170.628157,60 L170.628157,58.6 L160.953157,58.6 L160.953157,51.65 L169.128157,51.65 L169.128157,50.225 L160.953157,50.225 L160.953157,43.4 L170.628157,43.4 L170.628157,42 L159.503157,42 L159.503157,60 L170.628157,60 Z M176.355614,60 L176.355614,51.725 L183.580614,51.725 L183.580614,50.275 L176.355614,50.275 L176.355614,43.45 L185.080614,43.45 L185.080614,42 L174.905614,42 L174.905614,60 L176.355614,60 Z M195.558242,60.375 C196.891576,60.375 198.087409,60.0916667 199.145742,59.525 C200.204076,58.9583333 201.029076,58.1583333 201.620742,57.125 C202.212409,56.0916667 202.508242,54.9 202.508242,53.55 L202.508242,53.55 L202.508242,42 L201.058242,42 L201.058242,53.275 C201.058242,54.5416667 200.774909,55.6083333 200.208242,56.475 C199.641576,57.3416667 198.941576,57.9791667 198.108242,58.3875 C197.274909,58.7958333 196.424909,59 195.558242,59 C194.708242,59 193.862409,58.7958333 193.020742,58.3875 C192.179076,57.9791667 191.474909,57.3416667 190.908242,56.475 C190.341576,55.6083333 190.058242,54.5416667 190.058242,53.275 L190.058242,53.275 L190.058242,42 L188.608242,42 L188.608242,53.55 C188.608242,54.9 188.904076,56.0916667 189.495742,57.125 C190.087409,58.1583333 190.908242,58.9583333 191.958242,59.525 C193.008242,60.0916667 194.208242,60.375 195.558242,60.375 Z M208.735999,60 L208.735999,44.55 L219.160999,60 L220.610999,60 L220.610999,42 L219.160999,42 L219.160999,57.425 L208.735999,42 L207.285999,42 L207.285999,60 L208.735999,60 Z M230.763499,60 C231.763499,60 232.546832,59.9583333 233.113499,59.875 C234.413499,59.6916667 235.517666,59.1958333 236.425999,58.3875 C237.334332,57.5791667 238.013499,56.5375 238.463499,55.2625 C238.913499,53.9875 239.138499,52.5666667 239.138499,51 C239.138499,49.4333333 238.913499,48.0166667 238.463499,46.75 C238.013499,45.4833333 237.334332,44.4416667 236.425999,43.625 C235.517666,42.8083333 234.413499,42.3083333 233.113499,42.125 C232.530166,42.0416667 231.746832,42 230.763499,42 L230.763499,42 L225.388499,42 L225.388499,60 L230.763499,60 Z M230.763499,58.6 L226.913499,58.6 L226.913499,43.4 L230.763499,43.4 C231.680166,43.4 232.405166,43.45 232.938499,43.55 C234.538499,43.8333333 235.713499,44.6333333 236.463499,45.95 C237.213499,47.2666667 237.588499,48.95 237.588499,51 C237.588499,53.0333333 237.213499,54.7125 236.463499,56.0375 C235.713499,57.3625 234.538499,58.1666667 232.938499,58.45 C232.405166,58.55 231.680166,58.6 230.763499,58.6 L230.763499,58.6 Z M249.340959,60.375 C250.590959,60.375 251.699293,60.1666667 252.665959,59.75 C253.632626,59.3333333 254.386793,58.7333333 254.928459,57.95 C255.470126,57.1666667 255.740959,56.25 255.740959,55.2 C255.740959,54.1666667 255.507626,53.3333333 255.040959,52.7 C254.574293,52.0666667 254.045126,51.6041667 253.453459,51.3125 C252.861793,51.0208333 252.215959,50.7666667 251.515959,50.55 L251.515959,50.55 L247.890959,49.475 C246.874293,49.1916667 246.053459,48.8291667 245.428459,48.3875 C244.803459,47.9458333 244.490959,47.2916667 244.490959,46.425 C244.490959,45.775 244.682626,45.1958333 245.065959,44.6875 C245.449293,44.1791667 245.982626,43.775 246.665959,43.475 C247.349293,43.175 248.115959,43.025 248.965959,43.025 C250.332626,43.0416667 251.495126,43.425 252.453459,44.175 C253.411793,44.925 253.982626,45.9166667 254.165959,47.15 L254.165959,47.15 L255.665959,46.875 C255.482626,45.825 255.090959,44.9041667 254.490959,44.1125 C253.890959,43.3208333 253.115959,42.7083333 252.165959,42.275 C251.215959,41.8416667 250.149293,41.625 248.965959,41.625 C247.799293,41.625 246.765959,41.825 245.865959,42.225 C244.965959,42.625 244.257626,43.1958333 243.740959,43.9375 C243.224293,44.6791667 242.965959,45.525 242.965959,46.475 C242.965959,47.5416667 243.286793,48.4166667 243.928459,49.1 C244.570126,49.7833333 245.507626,50.3083333 246.740959,50.675 L246.740959,50.675 L251.265959,52.05 C252.149293,52.3 252.874293,52.6583333 253.440959,53.125 C254.007626,53.5916667 254.290959,54.2916667 254.290959,55.225 C254.290959,56.3583333 253.832626,57.2666667 252.915959,57.95 C251.999293,58.6333333 250.815959,58.975 249.365959,58.975 C247.932626,58.975 246.715959,58.6291667 245.715959,57.9375 C244.715959,57.2458333 244.049293,56.3 243.715959,55.1 L243.715959,55.1 L242.265959,55.35 C242.465959,56.3666667 242.886793,57.2541667 243.528459,58.0125 C244.170126,58.7708333 244.990959,59.3541667 245.990959,59.7625 C246.990959,60.1708333 248.107626,60.375 249.340959,60.375 Z" id="USECASE:DUTYFREEREFUNDS" fill="#FFFFFF" fill-rule="nonzero"></path>
            </g>
        </g>
    </g>
</svg>