<?xml version="1.0" encoding="UTF-8"?>
<svg width="1405px" height="770px" viewBox="0 0 1405 770" version="1.1" xmlns="http://www.w3.org/2000/svg" xmlns:xlink="http://www.w3.org/1999/xlink">
    <!-- Generator: Sketch 61 (89581) - https://sketch.com -->
    <title>video_poster_main</title>
    <desc>Created with Sketch.</desc>
    <defs>
        <linearGradient x1="100%" y1="22.7208161%" x2="0%" y2="77.2791839%" id="linearGradient-1">
            <stop stop-color="#00EAF7" offset="0%"></stop>
            <stop stop-color="#325BFF" offset="100%"></stop>
        </linearGradient>
        <linearGradient x1="100%" y1="49.7419573%" x2="0%" y2="50.2580427%" id="linearGradient-2">
            <stop stop-color="#00EAF7" offset="0%"></stop>
            <stop stop-color="#325BFF" offset="100%"></stop>
        </linearGradient>
        <polygon id="path-3" points="87.25828 61.635875 87.25828 63.3233125 44.62828 63.3233125 44.62828 61.635875"></polygon>
        <filter x="-11.7%" y="-140.8%" width="123.5%" height="381.6%" filterUnits="objectBoundingBox" id="filter-4">
            <feMorphology radius="2" operator="erode" in="SourceAlpha" result="shadowSpreadInner1"></feMorphology>
            <feGaussianBlur stdDeviation="3.5" in="shadowSpreadInner1" result="shadowBlurInner1"></feGaussianBlur>
            <feOffset dx="0" dy="1" in="shadowBlurInner1" result="shadowOffsetInner1"></feOffset>
            <feComposite in="shadowOffsetInner1" in2="SourceAlpha" operator="arithmetic" k2="-1" k3="1" result="shadowInnerInner1"></feComposite>
            <feColorMatrix values="0 0 0 0 0   0 0 0 0 0   0 0 0 0 0  0 0 0 0 0" type="matrix" in="shadowInnerInner1"></feColorMatrix>
        </filter>
        <linearGradient x1="82.4208503%" y1="0%" x2="17.5791497%" y2="100%" id="linearGradient-5">
            <stop stop-color="#00EAF7" offset="0%"></stop>
            <stop stop-color="#325BFF" offset="100%"></stop>
        </linearGradient>
        <polygon id="path-6" points="-3.34239303e-13 1.60156333e-13 38.189375 22.913625 38.189375 24.51225 -3.34239303e-13 47.425875 -3.34239303e-13 45.3831875 36.1466875 23.80175 36.1466875 23.624125 -3.34239303e-13 2.0426875"></polygon>
        <filter x="-13.1%" y="-10.5%" width="126.2%" height="121.1%" filterUnits="objectBoundingBox" id="filter-7">
            <feMorphology radius="2" operator="erode" in="SourceAlpha" result="shadowSpreadInner1"></feMorphology>
            <feGaussianBlur stdDeviation="3.5" in="shadowSpreadInner1" result="shadowBlurInner1"></feGaussianBlur>
            <feOffset dx="0" dy="1" in="shadowBlurInner1" result="shadowOffsetInner1"></feOffset>
            <feComposite in="shadowOffsetInner1" in2="SourceAlpha" operator="arithmetic" k2="-1" k3="1" result="shadowInnerInner1"></feComposite>
            <feColorMatrix values="0 0 0 0 0   0 0 0 0 0   0 0 0 0 0  0 0 0 0 0" type="matrix" in="shadowInnerInner1"></feColorMatrix>
        </filter>
        <linearGradient x1="100%" y1="45.0288126%" x2="0%" y2="54.9711874%" id="linearGradient-8">
            <stop stop-color="#00EAF7" offset="0%"></stop>
            <stop stop-color="#325BFF" offset="100%"></stop>
        </linearGradient>
        <linearGradient x1="93.5667072%" y1="0%" x2="6.43329279%" y2="100%" id="linearGradient-9">
            <stop stop-color="#00EAF7" offset="0%"></stop>
            <stop stop-color="#325BFF" offset="100%"></stop>
        </linearGradient>
        <linearGradient x1="100%" y1="45.050409%" x2="0%" y2="54.949591%" id="linearGradient-10">
            <stop stop-color="#00EAF7" offset="0%"></stop>
            <stop stop-color="#325BFF" offset="100%"></stop>
        </linearGradient>
        <path d="M51.1300706,23 L51.1300706,18.6054688 L52.8439378,18.6054688 C54.0695237,18.6054688 54.9960374,18.3295898 55.6234788,17.777832 C56.2509202,17.2260742 56.5646409,16.4106445 56.5646409,15.331543 C56.5646409,14.262207 56.2496995,13.4504395 55.6198167,12.8962402 C54.9899339,12.342041 54.0646409,12.0649414 52.8439378,12.0649414 L52.8439378,12.0649414 L49.6505784,12.0649414 L49.6505784,23 L51.1300706,23 Z M52.8439378,17.3896484 L51.1300706,17.3896484 L51.1300706,13.2807617 L52.8439378,13.2807617 C53.5324144,13.2807617 54.0670823,13.4602051 54.4479417,13.8190918 C54.8288011,14.1779785 55.0192308,14.6821289 55.0192308,15.331543 C55.0192308,15.980957 54.8275804,16.4863281 54.4442796,16.8476562 C54.0609788,17.2089844 53.5275315,17.3896484 52.8439378,17.3896484 L52.8439378,17.3896484 Z M65.6961388,23 L65.6961388,21.7548828 L60.4153771,21.7548828 L60.4153771,12.0649414 L58.9285607,12.0649414 L58.9285607,23 L65.6961388,23 Z M68.3017578,23 L69.0927734,20.1508789 L72.9233398,20.1508789 L73.7290039,23 L75.2597656,23 L71.9125977,12.0649414 L70.1181641,12.0649414 L66.7709961,23 L68.3017578,23 Z M72.5717773,18.9643555 L69.4516602,18.9643555 L71.0117188,13.3686523 L72.5717773,18.9643555 Z M80.8976112,23 L80.8976112,18.0927734 L84.405912,12.0649414 L82.8165565,12.0649414 L80.1578651,16.8916016 L77.4918495,12.0649414 L75.9171424,12.0649414 L79.4107948,18.0927734 L79.4107948,23 L80.8976112,23 Z" id="path-11"></path>
        <linearGradient x1="50%" y1="100%" x2="50%" y2="21.0356841%" id="linearGradient-12">
            <stop stop-color="#616161" offset="0%"></stop>
            <stop stop-color="#8E8E8F" offset="100%"></stop>
        </linearGradient>
        <path d="M221.446778,134 L221.446778,125.7 L231.871778,125.7 L231.871778,134 L233.296778,134 L233.296778,116 L231.871778,116 L231.871778,124.3 L221.446778,124.3 L221.446778,116 L219.996778,116 L219.996778,134 L221.446778,134 Z M245.249482,134.375 C247.016149,134.375 248.511982,133.983333 249.736982,133.2 C250.961982,132.416667 251.886982,131.320833 252.511982,129.9125 C253.136982,128.504167 253.449482,126.866667 253.449482,125 C253.449482,123.133333 253.136982,121.495833 252.511982,120.0875 C251.886982,118.679167 250.961982,117.583333 249.736982,116.8 C248.511982,116.016667 247.016149,115.625 245.249482,115.625 C243.499482,115.625 242.011982,116.016667 240.786982,116.8 C239.561982,117.583333 238.636982,118.679167 238.011982,120.0875 C237.386982,121.495833 237.074482,123.133333 237.074482,125 C237.074482,126.866667 237.386982,128.504167 238.011982,129.9125 C238.636982,131.320833 239.561982,132.416667 240.786982,133.2 C242.011982,133.983333 243.499482,134.375 245.249482,134.375 Z M245.249482,132.975 C243.816149,132.958333 242.599482,132.616667 241.599482,131.95 C240.599482,131.283333 239.849482,130.354167 239.349482,129.1625 C238.849482,127.970833 238.607816,126.583333 238.624482,125 C238.641149,122.566667 239.216149,120.629167 240.349482,119.1875 C241.482816,117.745833 243.116149,117.025 245.249482,117.025 C247.416149,117.041667 249.066149,117.770833 250.199482,119.2125 C251.332816,120.654167 251.899482,122.583333 251.899482,125 C251.899482,127.416667 251.328649,129.35 250.186982,130.8 C249.045316,132.25 247.399482,132.975 245.249482,132.975 Z M261.827169,134 L266.252169,118.575 L270.677169,134 L272.152169,134 L277.327169,116 L275.802169,116 L271.427169,131.475 L267.002169,116 L265.477169,116 L261.102169,131.475 L256.677169,116 L255.177169,116 L260.352169,134 L261.827169,134 Z M288.782575,134 L288.782575,116 L287.332575,116 L287.332575,134 L288.782575,134 Z M300.210029,134 L300.210029,117.4 L306.635029,117.4 L306.635029,116 L292.310029,116 L292.310029,117.4 L298.760029,117.4 L298.760029,134 L300.210029,134 Z M320.790185,134 L325.215185,118.575 L329.640185,134 L331.115185,134 L336.290185,116 L334.765185,116 L330.390185,131.475 L325.965185,116 L324.440185,116 L320.065185,131.475 L315.640185,116 L314.140185,116 L319.315185,134 L320.790185,134 Z M346.442889,134.375 C348.209556,134.375 349.705389,133.983333 350.930389,133.2 C352.155389,132.416667 353.080389,131.320833 353.705389,129.9125 C354.330389,128.504167 354.642889,126.866667 354.642889,125 C354.642889,123.133333 354.330389,121.495833 353.705389,120.0875 C353.080389,118.679167 352.155389,117.583333 350.930389,116.8 C349.705389,116.016667 348.209556,115.625 346.442889,115.625 C344.692889,115.625 343.205389,116.016667 341.980389,116.8 C340.755389,117.583333 339.830389,118.679167 339.205389,120.0875 C338.580389,121.495833 338.267889,123.133333 338.267889,125 C338.267889,126.866667 338.580389,128.504167 339.205389,129.9125 C339.830389,131.320833 340.755389,132.416667 341.980389,133.2 C343.205389,133.983333 344.692889,134.375 346.442889,134.375 Z M346.442889,132.975 C345.009556,132.958333 343.792889,132.616667 342.792889,131.95 C341.792889,131.283333 341.042889,130.354167 340.542889,129.1625 C340.042889,127.970833 339.801223,126.583333 339.817889,125 C339.834556,122.566667 340.409556,120.629167 341.542889,119.1875 C342.676223,117.745833 344.309556,117.025 346.442889,117.025 C348.609556,117.041667 350.259556,117.770833 351.392889,119.2125 C352.526223,120.654167 353.092889,122.583333 353.092889,125 C353.092889,127.416667 352.522056,129.35 351.380389,130.8 C350.238723,132.25 348.592889,132.975 346.442889,132.975 Z M359.870575,134 L359.870575,126.975 L366.09,126.975 L369.495575,134 L371.195575,134 L367.572,126.568 L367.715473,126.510714 C368.414963,126.210714 369.009415,125.766071 369.498828,125.176786 L369.658075,124.975 C370.383075,124.008333 370.745575,122.85 370.745575,121.5 C370.745575,120.1 370.358075,118.9 369.583075,117.9 C368.808075,116.9 367.753909,116.3 366.420575,116.1 C366.020575,116.033333 365.620575,116 365.220575,116 L365.220575,116 L358.420575,116 L358.420575,134 L359.870575,134 Z M365.195575,125.575 L359.870575,125.575 L359.870575,117.4 L365.195575,117.4 C365.578909,117.4 365.945575,117.433333 366.295575,117.5 C367.228909,117.7 367.949742,118.170833 368.458075,118.9125 C368.966409,119.654167 369.220575,120.516667 369.220575,121.5 C369.220575,122.466667 368.966409,123.320833 368.458075,124.0625 C367.949742,124.804167 367.228909,125.275 366.295575,125.475 C365.962242,125.541667 365.595575,125.575 365.195575,125.575 L365.195575,125.575 Z M376.673027,134 L376.673027,124.8 L385.948027,134 L387.873027,134 L378.523027,124.65 L387.123027,116 L385.223027,116 L376.673027,124.55 L376.673027,116 L375.223027,116 L375.223027,134 L376.673027,134 Z M396.275524,134.375 C397.525524,134.375 398.633857,134.166667 399.600524,133.75 C400.56719,133.333333 401.321357,132.733333 401.863024,131.95 C402.40469,131.166667 402.675524,130.25 402.675524,129.2 C402.675524,128.166667 402.44219,127.333333 401.975524,126.7 C401.508857,126.066667 400.97969,125.604167 400.388024,125.3125 C399.796357,125.020833 399.150524,124.766667 398.450524,124.55 L398.450524,124.55 L394.825524,123.475 C393.808857,123.191667 392.988024,122.829167 392.363024,122.3875 C391.738024,121.945833 391.425524,121.291667 391.425524,120.425 C391.425524,119.775 391.61719,119.195833 392.000524,118.6875 C392.383857,118.179167 392.91719,117.775 393.600524,117.475 C394.283857,117.175 395.050524,117.025 395.900524,117.025 C397.26719,117.041667 398.42969,117.425 399.388024,118.175 C400.346357,118.925 400.91719,119.916667 401.100524,121.15 L401.100524,121.15 L402.600524,120.875 C402.41719,119.825 402.025524,118.904167 401.425524,118.1125 C400.825524,117.320833 400.050524,116.708333 399.100524,116.275 C398.150524,115.841667 397.083857,115.625 395.900524,115.625 C394.733857,115.625 393.700524,115.825 392.800524,116.225 C391.900524,116.625 391.19219,117.195833 390.675524,117.9375 C390.158857,118.679167 389.900524,119.525 389.900524,120.475 C389.900524,121.541667 390.221357,122.416667 390.863024,123.1 C391.50469,123.783333 392.44219,124.308333 393.675524,124.675 L393.675524,124.675 L398.200524,126.05 C399.083857,126.3 399.808857,126.658333 400.375524,127.125 C400.94219,127.591667 401.225524,128.291667 401.225524,129.225 C401.225524,130.358333 400.76719,131.266667 399.850524,131.95 C398.933857,132.633333 397.750524,132.975 396.300524,132.975 C394.86719,132.975 393.650524,132.629167 392.650524,131.9375 C391.650524,131.245833 390.983857,130.3 390.650524,129.1 L390.650524,129.1 L389.200524,129.35 C389.400524,130.366667 389.821357,131.254167 390.463024,132.0125 C391.10469,132.770833 391.925524,133.354167 392.925524,133.7625 C393.925524,134.170833 395.04219,134.375 396.275524,134.375 Z" id="path-13"></path>
    </defs>
    <g id="Page-1-Copy" stroke="none" stroke-width="1" fill="none" fill-rule="evenodd">
        <g id="video_poster_main" transform="translate(-62.000000, 0.000000)">
            <rect id="Rectangle" fill="#000000" x="62" y="0" width="1405" height="770"></rect>
            <g id="Group" transform="translate(222.000000, 578.000000)">
                <g id="logo_acuvera-path" opacity="0.626046317">
                    <use fill="url(#linearGradient-2)" fill-rule="evenodd" xlink:href="#path-3"></use>
                    <use fill="black" fill-opacity="1" filter="url(#filter-4)" xlink:href="#path-3"></use>
                </g>
                <g id="logo_acuvera-path" opacity="0.601771763">
                    <use fill="url(#linearGradient-5)" fill-rule="evenodd" xlink:href="#path-6"></use>
                    <use fill="black" fill-opacity="1" filter="url(#filter-7)" xlink:href="#path-6"></use>
                </g>
            </g>
            <g id="Group-2" opacity="0.697986421" transform="translate(1182.000000, 608.000000)">
                <rect id="Rectangle" stroke="url(#linearGradient-8)" stroke-width="2.5" x="0" y="0" width="111" height="35" rx="17.5"></rect>
                <path d="M32,12 C32,12 35.1764438,13.7633502 41.5293314,17.2900507 L32,22.2086911 C32,15.402897 32,12 32,12 Z" id="Path" stroke="#979797" fill="url(#linearGradient-9)"></path>
                <g id="PLAY" fill-rule="nonzero">
                    <use fill="#FFFFFF" xlink:href="#path-11"></use>
                    <use fill="url(#linearGradient-10)" xlink:href="#path-11"></use>
                </g>
            </g>
            <g id="HOWITWORKS" fill-rule="nonzero">
                <use fill="#FFFFFF" xlink:href="#path-13"></use>
                <use fill="url(#linearGradient-12)" xlink:href="#path-13"></use>
            </g>
        </g>
    </g>
</svg>